<svg id="satnh" x="0px" y="200px" viewBox="0 0 650 545" xmlns="http://www.w3.org/2000/svg" version="1.1">
  <style>
    g { fill: black; }
  </style>
  <g>
    <path fill-rule="evenodd" clip-rule="evenodd" d="M-641.16,223.545c4.176-1.244,8.874-5.293,12.887-5.788
      c1.963-3.217,9.826-3.734,11.207-7.172c4.105-1.246,7.347-7.322,11.43-7.827c2.088-3.479,9.121-5.008,10.336-9.134
      c2.107-0.612,2.671-5.315,3.209-5.45c-0.847-2.567,0.476-6.054-1.405-8.372c2.128-0.022-3.497-4.574-2.877-3.914
      c-2.388-0.506-12.237-1.291-13.707-2.898c-4.293-0.386-9.61-2.09-14.106-1.199c-1.893-2.367-10.578,1.42-12.738-0.953
      c-4.061-0.36-8.862-4.281-12.871-3.733c0.264,0.319-4.194-2.258-1.754-2.536c0.613-1.022,2.734-3.601,4.002-3.755
      c0.629-1.038,3.614-4.182,4.832-4.329c1.025-1.71,4.584-2.137,5.242-3.914c4.032-1.229,7.355-6.672,11.578-7.181
      c0.381-0.622,4.932-4.026,5.417-4.146c-0.815-2.464,0.456-5.81-1.35-8.037c0.718-0.007,0.054-1.394,0.054-1.361
      c-0.063-2.513-2.677-1.193-4.052-1.039c-1.457,3.055-10.443,3.908-11.126,7.183c-1.004,0.27-5.256,2.528-5.456,3.491
      c-2.086,0.558-3.901,3.515-5.742,3.721c-1.782,3.714-7.918,4.636-8.733,9.24c-0.52,0.086-1.726,3.257-1.84,3.904
      c-2.857,0.458-0.351,3.242-1.041,3.908c0.785,0.329,2.315,5.442,1.547,6.5c0.576,1.177-0.92,1.415-0.104,2.092
      c0.05,0.042,0.731,1.4,0.73,1.412c-0.234,0.723,1.754,1.958,1.685,2.772c-0.648,2,4.625,4.85,4.658,4.676
      c5.218,2.365,14.825,5.957,21.652,4.781c3.629,1.187,11.184,1.36,14.998,0.944c0.015-0.103,8.589,1.579,9.346,1.618
      c-0.289,1.519-4.938,2.165-5.27,3.927c-1.113,0.286-5.915,3.357-6.118,4.438c-1.691,0.443-12.515,6.552-12.854,8.139
      c-0.969,0.258-6.418,3.009-6.664,3.818c-1.131,0.323-6.638,2-6.944,2.992c-2.578,0.736-4.396,1.09-7.044,1.683
      c0-1.081-11.8,1.485-5.236,3.741c-0.084-0.363,0.237-0.601,0.416-0.766c0.744,0.559-1.192,1.964-0.6,3.07
      c0.896,1.671,0.531,5.842,0.857,6.128C-653.087,225.652-642.525,226.32-641.16,223.545
      C-640.829,223.447-641.191,223.609-641.16,223.545z"/>
    <path fill-rule="evenodd" clip-rule="evenodd" d="M-379.041,144.382c-0.398,0.618-0.199,0.839,0.597,0.662
      c-0.104-0.453,0.509-1.064,0.938-1.183c-0.363,2.32-1.82,1.532-0.534,4.515c1.871,4.344-2.007,6.459,5.2,4.337
      c0.432,0.552-0.962,2.252,1.652,1.634c1.419-0.335,1.944-2.673,1.943-2.673c-0.533-1.599-0.958-6.122-0.25-7.487
      c0.944-0.541,1.484-4.432,2.52-4.562c1.313-2.201,2.974-8.309,5.977-8.667c0.943-1.561,10.42-3.626,12.441-3.87
      c0.71-1.301,10.694-3.513,12.365-3.715c0.931-1.529,10.191-4.178,12.132-4.411c0.29-0.487,4.79-2.678,5.274-2.736
      c0.856-1.421,3.799-3.505,5.063-4.573c0.067,0.715,5.32,4.061,6.229,4.026c0.856,1.988,4.76,2.309,6.529,3.046
      c0.24,1.385,6.653,2.941,6.402,4.341c2.806,1.267,6.92,1.416,10.705,0.435c4.433,0.501,7.233-2.481,10.938-2.926
      c1.076-1.823,6.014-1.313,7.008-3.148c2.388-0.73,4.174-4.433,6.487-4.711c2.548-4.213,4.954-3.996,3.474-10.729
      c2.106,0.641,1.061,7.037,3.218,7.587c0.677,1.197,2.147,3.458,3.142,3.806c-2.527,1.446,3.773,1.289,3.941,1.269
      c0.643-1.066,1.029-1.008,2.01-1.663c1.488-0.335,2.146-2.256,2.91-2.35c0.968-1.62,1.837-3.474,3.066-4.826
      c0.391-0.076,4.744-3.468,4.936-4.007c0.313-0.094,3.11-1.6,2.829-0.043c0.718,0.324,4.108,0.661,3.874,1.973
      c2.354,1.065,2.359,5.167,5.514,5.069c2.069,4.081,9.517-0.799,13.064-1.226c0.887-1.461,5.92-7.634,7.471-8.021
      c-0.141-0.529,5.763-8.515,6.444-8.67c-0.101-0.335,5.051-8.675,5.37-8.86c0.03,0.904,0.627,1.093,1.79,0.568
      c-0.221,1.496-0.42,5.975-1.425,7.064c0.22,0.982-0.908,2.487-0.506,3.4c-0.283,1.814,0.943,3.149,0.943,3.8
      c-0.164,0.511,0.706,5.739,0.892,5.81c-2.125,4.401,4.407,2.08,3.399,0.398c1.662-0.807,0.337-9.294,2.063-9.719
      c-0.796-2.416,1.352-7.561,1.771-10.036c0.665-3.924,5.292-2.914,9.017-4.043c2.034-0.104,13.576-1.708,14.502-3.303
      c1.364,0.791,4.905,6.786,4.905,7.642c0,0.715,7.884,3.73,8.905,3.638c0.107,1.028,5.813,2.441,6.18-0.043
      c0.917,0.224-0.818-8.917-0.843-9.863c-0.074-2.949-8.562-3.35-10.193-5.156c-3.23-0.289-4.803-6.043-7.055-7.983
      c-0.054-1.341-2.855-8.799-3.789-9.227c-0.086-2.431-3.443-9.068-5.068-10.803c-0.267-0.056-1.607-2.374-1.89-2.687
      c-2.08-0.186-1.768-2.685-4.298-1.933c-2.522,0.75-0.962,2.006-2.89,2.593c-1.038,0.315-1.688,2.228-2.093,2.271
      c-1.568,3.259-3.845,7.354-4.51,10.903c1.322-0.197-3.461-20.52-6.109-7.89c-0.355,0.044-1.284,4.636-1.399,5.182
      c-0.067,0.007-4.703,13.057-4.641,12.679c-2.712,0.462-3.284,11.07-6.133,11.388c-1.702,3.531-7.271,7.244-7.825,11.063
      c-0.604,0.126-3.938,3.865-4.034,4.5c-2.27,0.534-3.149,3.368-6.063,4.26c-1.547,0.162-3.015,0.267-4.212,0.299
      c-0.483-0.395-1.812-1.694-2.392-1.738c-1.099-2.158-3.387-3.436-5.021-5.243c-3.306-0.297-4.832-1.752-8.684-1.321
      c-0.306,0.634-4.504,3.395-5.399,3.495c-0.451,0.941-5.586,8.411-6.717,8.539c-1.398,2.875-8.221-11.774-6.864-12.155
      c-2.525-1.563-0.344-10.86-3.755-12.454c-0.162-4.581-4.053-6.762-6.703-9.693c-1.068-0.098-3.563-2.353-4.316-3.188
      c-1.001-0.088-3.693-1.542-4.028,0.718c-0.099,0.666,0.829,3.062,1.255,2.148c0.276,0.206-1.003,4.941,1.057,4.779
      c0.186,1.736-1.777,5.047,1.333,5.06c1.212,1.315,5.566,5.719,7.423,5.786c-0.703,0.401,4.953,14.979,4.553,16.317
      c-6.094-1.97-7.799,6.565-12.896,7.133c-1.43,2.951-10.277,2.2-11.699,5.044c-3.449,0.255-7.123,1.321-10.539,1.321
      c-1.434,0-3.444-3.703-5.287-3.641c-0.334-0.284-3.139-4.842-2.306-5.083c-2.299-1.452-2.711-18.122-2.02-18.291
      c-0.669-2.027-0.234-6.357,0.211-8.176c0.425-1.736-0.257-8.463-1.417-9.701c-7.097-1.5-1.989,2.762-4.552,5.534
      c0.48,2.135-1.347,7.253-0.017,8.935c-0.416,1.888,1.791,7.663,0.54,9.026c0.488,2.14-0.238,7.318,1.563,8.866
      c-0.549,1.675,0.855,4.039,0.588,5.411c-2.681-2.231-11.298-9.899-14.688-9.71c-3.701-3.526-10.209-4.141-13.635-7.919
      c-1.537-0.144-5.535-3.891-6.631-5.104c-1.271-0.114-5.505-3.725-6.236-4.796c-0.053-1.057-2.483-7.287-3.315-7.684
      c-0.022-0.68-1.135-3.733-1.662-3.985c-0.113-3.466-5.896-3.127-5.065-0.495c-3.766-3.176-5.445,5.485-4.137,7.351
      c-0.251,1.652-1.381,7.29-0.433,8.641c-0.249,1.641-1.381,7.305-0.433,8.641c-0.205,1.35-1.669,6.673-1.182,7.958
      c-0.305,1.981-2.49,6.66-1.768,8.466c-0.315,2.014-0.714,7.9-2.058,9.357c0.14,0.608-0.427,3.737-0.886,4.234
      c0.172,0.76-1.529,0.419-1.743,0.965c-1.101,0.324-4.366,1.569-4.589,2.669c-0.549,0.147-1.702,0.557-1.828,1.152
      c-2.604,0.704,0.419,2.312-0.517,3.223c1.109,0.465,0.53-0.535,1.496-0.524c-0.395,0.801-2.089,5.377,0.348,5.186
      c0.056,0.453-1.519,3.37-1.905,3.414C-376.555,136.992-381.08,142.855-379.041,144.382
      C-379.172,144.51-379.408,144.107-379.041,144.382z M-256.788,100.14C-256.011,100.132-255.829,101.324-256.788,100.14
      C-256.646,100.138-256.624,100.342-256.788,100.14z M-256.434,99.552c-0.049,0.056-0.093,0.121-0.125,0.209
      C-256.567,99.673-256.547,99.595-256.434,99.552z M-165.754,51.914c-1.814,3.024,3.854,6.626,3.96,9.92
      c-1.198,2.029,3.257,1.543-1.417,2.987c-3.359,0.364-7.313,1.34-10.471,2.522c0.716,0,1.873-6.884,2.742-6.993
      C-169.58,58.084-168.662,52.266-165.754,51.914C-165.73,51.875-166.238,51.973-165.754,51.914z M-256.288,99.424
      C-256.742,99.733-256.85,98.563-256.288,99.424C-256.334,99.455-256.376,99.289-256.288,99.424z M-355.248,66.147
      C-355.034,66.332-355.749,66.038-355.248,66.147C-355.227,66.166-355.293,66.137-355.248,66.147z M-353.348,76.098
      c-1.098,1.162,4.141,8.675,3.944,10.487c0.123,0.038,1.589,2.538,1.552,2.746c1.525,0.69,3.4,3.446,5.049,3.465
      c0.97,1.299,8.669,5.611,8.431,6.942c3.221,1.458,6.466,4.575,9.695,5.423c-1.956,0.466-15.59,4.601-16.221,6.2
      c-5.905,1.71-11.809,3.844-17.681,5.431c-0.359-1.148,2.219-13.544,2.896-13.711c-0.23-0.701,0.417-9.286,0.621-9.336
      c-1.782-5.42,1.29-13.358,0.94-19.057C-354.111,74.691-353.33,76.207-353.348,76.098
      C-353.447,76.204-353.401,75.772-353.348,76.098z M-354.631,68.8c0.4,2.499,1.775,3.189,0.38,5.398
      C-354.332,73.232-354.67,68.733-354.631,68.8C-354.575,69.147-354.68,68.716-354.631,68.8z M-355.263,66.523
      c0.357,1.089,0.088,0.542,0.219,1.297C-355.301,67.284-355.59,67.084-355.263,66.523
      C-355.193,66.735-355.365,66.699-355.263,66.523z M-256.278,100.981c0.558,0.199,0.653,0.482,0.288,0.85
      C-256.086,101.548-256.183,101.264-256.278,100.981C-256.041,101.055-256.158,101.246-256.278,100.981z M-187.301,96.524
      c-0.001,0.005-0.002,0.01-0.003,0.015C-187.303,96.534-187.302,96.529-187.301,96.524z M-168.361,41.938
      c-0.238,0.503-0.39,1.032-0.453,1.586c-0.441-0.249,0.027-0.775-0.416-0.975C-168.926,42.368-168.636,42.164-168.361,41.938
      C-168.453,42.523-168.752,42.046-168.361,41.938z M-256.464,98.48C-257.303,99.013-256.698,97.643-256.464,98.48
      C-256.569,98.547-256.513,98.306-256.464,98.48z"/>
    <path fill-rule="evenodd" clip-rule="evenodd" d="M-152.658,29.262c-0.909,0.875,0.498,0.478,0.745,0.303
      c-0.057-0.042,0.879,7.449,0.445,7.702c-1.6,0.935,5.124,3.405,5.034,3.898c0.845,0.381,6.685,2.3,6.518,3.229
      c1.79,0.809,3.688,4.34,5.646,4.401c1.095,1.136,10.528,7.33,10.462,7.704c1.069,0.484,2.439,1.837,3.351,2.072
      c0.095-2.085,3.122,1.705,2.971,1.545c-0.137,0.707,0.522,2.903,0.089,3.374c0.463,2.034,0.982,7.276,2.01,8.391
      c-0.534,0.312,0.969,10.07,2.633,10.729c-0.074,0.665,0.687,3.49,1.68,3.403c1.715-0.149,7.774-1.348,8.152-3.928
      c0.654,0.16-0.482-9.645-1.913-11.226c-2.274-0.204-5.321,2.963-6.256-0.542c-0.049-1.924-0.761-4.488-1.204-6.643
      c0.049-1.013-0.119-3.128-0.256-4.377c0.09-2.574,7.665-1.03,9.764-1.526c4.448-1.051,7.613-7.224,11.921-7.747
      c1.426-2.36,5.448-2.939,6.154-6.047c1.537-0.4,5.921-7.363,6.257-8.91c2.374-0.569,2.759-6.552,2.262-8.312
      c0.14-0.767-0.234-5.473-1.034-6.326c-1.878-0.397-4.253-1.116-4.661,1.574c-1.735,0.326-2.169,5.162-4.012,5.37
      c-0.607,1.267-3.768,6.841-5.075,6.989c-1.03,2.129-6.091,3.067-6.503,5.204c-1.226,0.318-6.854,3.763-7.087,4.937
      c-4.846,0.088-10.882,1.843-15.049,1.843c-1.146,0-3.444-3.972-5.313-3.893c-1.409-1.232-3.424-1.629-4.618-3.119
      c-0.563-0.723-3.322-3.351-4.211-3.499c-0.516-0.639-3.494-3.503-4.258-3.547c-2.17-0.936-5.492-3.98-7.859-3.762
      c-0.926-0.953-2.416-0.837-3.311-1.822C-150.34,26.597-155.954,26.79-152.658,29.262C-152.788,29.387-153.02,28.991-152.658,29.262
      z"/>
    <path fill-rule="evenodd" clip-rule="evenodd" d="M-28.666,55.953c0.934-2.025-0.814-10.131-2.441-11.863
      c-1.451-0.309-3.137-4.422-4.281-5.454c-0.184-4.426-12.342-3.657-14.271-5.808c-1.239-0.112-5.685,0.371-6.464-0.485
      c-1.599-0.144-4.324-1.283-5.578-1.211c-2.123-1.923,1.797-4.651,4.449-4.968c1.399-2.311,6.853-1.381,9.262-2.053
      c1.81-0.504,1.961-2.275,1.697-4c-0.261-1.712-0.161-6.44-1.391-7.749c-1.128-0.24-11-1.119-11.434,0.766
      c-2.305,0.635-4.068,3.118-6.434,3.382c-1.164,2.4-8.207,7.437-4.5,11.036c-0.558,2.406,1.018,6.79,1.748,8.605
      c-0.297,1.433-0.178,2.392-0.328,3.802c1.744,0.529,3.258,3.171,5.287,3.046c0.9,2.356,8.721,3.037,11.571,2.576
      c1.205,0.442,4.671,1.123,5.692,1.016c0.004,0.261,3.585,1.349,4.123,1.292c-0.043-1.303,4.992,3.131,5.116,3.171
      c1.024-0.204-6.224,3.567-6.118,3.297c-2.199,0.441-4.075,1.339-5.783,1.757c-4.264-0.23-9.863-0.107-14.026,0.8
      c-1.601-1.601-11.838,3.045-6.255,4.965c-0.037-0.162,0.166-0.605,0.264-0.66c-0.103,0.169,0.047,0.201,0.449,0.096
      c-0.105,0.212-1.169,1.917-1.169,1.739c-0.252,1.992,2.438,3.396,1.192,5.113c0.825,1.678-1.506,3.512,2.893,2.243
      c6.816,0.233,13.945-1.442,20.686-2.251c0.713-1.07,8.844-2.817,10.144-2.973C-33.813,63.927-26.918,57.467-28.666,55.953
      C-28.281,55.118-28.217,56.342-28.666,55.953z"/>
    <path fill-rule="evenodd" clip-rule="evenodd" d="M-554.783,302.587c-0.041,0.143,0.983,7.241,0.686,6.979
      c1.34,1.183,1.491,0.85,1.921,2.398c-0.529,0.422,1.619,9.983,2.101,10.254c-1.539,1.435,6.62,9.076,7.3,4.447
      c0.89,0.22-0.797-8.678-0.819-9.6c-0.048-1.883-3.228-2.941-3.668-4.633c-0.269-2.149-1.575-3.255,1.064-3.969
      c1.767-0.345,3.542-1.276,5.339-1.436c0.877-1.753,7.313-0.724,8.314-2.504c3.551-1.036,6.662-3.161,10.146-4.186
      c0.901,1.503,0.811,4.428,1.54,5.807c-1.146,0.573,1.394,7.803,1.183,8.979c0.615,0.224,6.917,10.346,7.776,4.469
      c0.83,0.204-0.705-9.957-2.32-11.584c-0.038-0.637-1.7-2.725-2.142-3.199c-1.196-0.242-1.052-4.416-1.282-5.342
      c-0.067-1.216,4.217-4.608,5.406-4.902c-0.787-2.38-0.697-6.024-1.103-8.248c-0.682-3.733-2.379-2.024-5.057-1.645
      c-0.12-2.268-0.619-4.968-0.253-7.144c0.189-1.13-0.175-6.27-1.035-7.099c-1.517-2.479,0.203-3.297-4.264-2.797
      c-0.738,1.533-1.032,8.283-0.033,9.454c-0.32,1.878,1.315,7.907,0.115,9.215c0.66,2.9-21.755,9.426-26.362,10.344
      c-0.155-2.321-1.329-14.464-3.264-16.266c-0.03-0.34-0.452-2.542-0.718-2.604c-0.063-0.729,1.369-2.198,2.041-2.276
      c1.214-2.006,0.854-5.066,0.314-7.573c-0.38-1.764-0.614-3.444-1.884-4.846c-2.377-0.212-3.086,1.52-4.946,1.729
      c-0.699,1.463-5.949,0.659-6.414,2.374c-4.306,1.252-8.271,5.405-12.667,5.897c-1.407,2.946-10.883,3.064-11.702,6.136
      c-4.744,1.308-8.757,3.549-13.834,4.97c-3.889,0.059-9.022,0.97-12.777,1.996c-4.187,0-9.861,0.945-13.899,2.059
      c-2.224,0-5.056,0.369-7.228,0.85c-1.266-1.519-5.552,2.423-1.998,3.656c-0.076-0.325,0.211-0.585,0.372-0.721
      c-0.514-0.369,0.437,6.891,0.362,6.992c0.426,0.873-1.379,3.101,1.186,2.744c1.352,0.583,5.561-0.034,6.993-0.418
      c3.522,0.361,9.518-0.78,12.935-1.742c3.819,0.222,8.649-1.087,12.416-1.789c-0.938,2.714,3.021,10.891,1.203,12.863
      c0.561,2.444,0.895,5.772,1.807,7.596c-1.32,0.93,2.296,10.867,2.744,12.406c-0.863,0.547,0.694,3.203,1.707,3.416
      c3.453,1.457,2.074,4.561,7.047,3.961c3.76-6.266-1.92-12.575-5.861-16.629c-0.052-0.525-1.594-5.024-1.239-5.131
      c-1.522-0.891-1.51-9.089-1.646-10.262c-0.215-2.974-0.526-6.034-0.938-8.99c1.293-0.019,6.23-1.09,6.771-2.172
      c5.211-1.532,10.461-6.339,15.531-6.934c1.121-1.875,6.012-1.694,6.903-3.656c1.466-0.441,7.169-2.495,7.767-3.794
      c1.419-0.427,2.533-1.494,4.069-1.681c0.739-1.183,1.345,2.038,1.074,2.33c0.681,2.953,1.341,5.895,1.8,8.145
      c0.102-0.065,0.34,4.791,0.642,4.877c0.928,2.399-0.915,6.595,0.802,7.178c-0.058-0.248,0.18-0.581,0.313-0.67
      c0.021,0.037,0.637,1.321,0.637,1.041C-554.643,301.412-554.656,302.08-554.783,302.587
      C-554.791,302.615-554.781,302.58-554.783,302.587z"/>
    <path fill-rule="evenodd" clip-rule="evenodd" d="M-491.253,304.13c1.51,2,7.837,6.234,11.155,5.629
      c7.854,2.467,16.377-1.992,24.012-2.904c0.533-0.884,4.732-2.685,5.842-2.822c0.258-0.42,2.262-1.67,2.785-1.732
      c1.224-2.018,0.859-5.1,0.316-7.622c-0.383-1.779-0.62-3.461-1.896-4.878c-2.289-0.203-3.152,1.466-4.9,1.656
      c-0.738,1.54-5.463,1.416-5.945,2.998c-3.546,0.982-7.288,1.823-10.911,2.453c-2.18-0.165-5.034-0.587-7.166-0.152
      c-0.788-0.993-4.013,0.295-5.286-1.109c-2.02-0.174-3.75-3.171-5.663-3.295c-0.576-2.42-0.764-2.916,2.5-3.313
      c0.842-1.403,5.429-0.601,6.209-2.031c1.156-0.325,5.675-1.357,6.161-2.357c4.726-1.411,0.626-10.356,1.698-10.66
      c-1.443-0.897,0.131-3.069-2.881-2.175c-0.276,0.082-2.403,0.612-2.535,1.036c-1.662,0.486-3.277,1.479-5,1.668
      c-0.526,1.094-7.652,2.821-9.029,3.041c0.195-1.121-0.174-8.943,0.498-9.105c-1.355-4.115,4.362-3.177,7.086-3.971
      c4.487,0.095,10.789-1.341,15.082-2.637c6.646-0.385,4.47-5.849,3.617-10.527c-0.771-4.235-8.621-1.75-12.232-0.708
      c-4.53,0.091-10.564,1.258-14.918,2.523c-1.719,0.026-3.606,0.408-5.324,0.9c-2.965,0.055-4.002,2.888-1.586,3.722
      c-0.09-0.388,0.258-0.599,0.443-0.788c-0.73,1.304-0.824,2.29-0.041,4.111c0.646,1.5-0.867,6.087,1.633,5.637
      c-1.708,2.928,2.403,10.477,0.176,12.885c0.755,3.245,1.789,8.061,1.482,10.904c0.383,0.121,1.965,5.533,2.109,6.305
      C-494.15,297.159-491.77,303.902-491.253,304.13C-491.172,304.238-491.346,304.089-491.253,304.13z"/>
    <path fill-rule="evenodd" clip-rule="evenodd" d="M-402.581,236.151c0.286,1.246,1.162,1.304,1.575,1.95
      c-0.457,1.507-0.445,1.311,0.329,3.108c0.441,1.025-0.144,5.375,0.563,5.623c-0.179,0.869,2.559,3.515,2.696,4.463
      c-0.743,0.875,2.584,5.117,2.448,6.372c0.668,0.208,2.133,11.437,1.229,12.412c0.71,3.147-1.792,11.018,0.128,13.478
      c-0.291,1.919,1.239,8.369,1.982,9.643c-1.144,0.691,0.191,1.709,0.04,2.553c1.371,0.619,4.563-1.196,3.37-2.492
      c0.321-0.352-0.157-3.246,0.195-3.334c-1.544-4.692,1.063-10.435,0.013-15.455c0.183-3.994-0.638-8.929-1.298-12.887
      c0.105-2.872-0.098-10.988-1.646-12.642c0.102,0.036,0.15,0.025,0.146-0.032c0,1.161,21.868,10.599,25.125,10.154
      c2.783,1.109,9.922,1.775,12.895,1.361c3.08,1.215,10.741,1.878,14.018,1.387c0.658,0.241,2.25,1.173,2.137,2.08
      c1.304,0.398-0.426,1.392,2.02,0.813c1.659-0.393,0.849-1.278,2.052-1.579c-0.377-1.138,4.234-2.208,2.503-3.707
      c1.273-2.756-0.48-11.043-4.291-10.33c-0.258-0.318-2.493-0.396-2.994-0.332c-0.413-0.76-1.691-1.954-2.347-2.479
      c-0.28-2.044-1.291-3.973-1.369-6.018c-0.066,0.04-2.412-13.557-2.972-13.951c-0.321-3.148-1.223-8.197-3.272-10.382
      c-0.831-0.172-1.616-2.961-2.24-3.626c-1.595-0.335-0.835-1.987-3.177-1.291c-1.314,0.391-2.922,1.454-1.078,2.811
      c0.452,0.949-0.107,1.894,0.455,2.941c0.875,1.633,0.521,5.715,0.838,5.993c1.635,1.435,5.805,9.788,5.003,10.656
      c0.509,2.203,0.857,4.19,1.505,6.217c-0.752,0.457,1.099,7.706,1.752,8.401c-4.84-0.305-11.143-2.4-15.896-1.501
      c-0.565-0.704-6.129-0.908-7.153-0.825c-1.427-1.789-5.349-1.243-6.934-2.981c-4.717-0.411-9.895-6.313-14.546-5.857
      c-0.834-0.913-5.571-3.226-6.813-3.107c-0.925-0.957-2.423-0.839-3.311-1.83C-403.545,231.516-400.908,234.339-402.581,236.151
      C-402.469,236.64-402.25,235.792-402.581,236.151z"/>
    <path fill-rule="evenodd" clip-rule="evenodd" d="M-331.569,217.48c1.169,0.359,1.06,1.091,2.849,0.588
      c0.021,0.119,0.703,1.98,0.922,1.981c0.57,1.804-1.19,3.668,0.137,4.734c0.92,0.739,4.231,8.583,4.253,8.336
      c0.855,0.354-0.447,2.063-0.447,1.461c-0.243,1.935,1.532,3.823,1.586,5.575c-0.929,2.547,1.003,0.947,0.853,2.326
      c0.008,0.002,2.285,5.386,2.394,6.232c-0.896,1.042,2.421,7.674,4.78,7.518c0.62,2.075,9.811,6.042,13.125,5.49
      c4.033,1.392,16.375,1.633,18.27-2.867c1.537-0.464,5.566-2.42,5.813-4.105c-0.482-0.119,1.453-12.484-3.4-11.042
      c-4.862,1.445-7.965,4.473-13.088,5.478c-1.907-2.343-9.559,1.128-11.938-1.465c-1.386-0.128-4.748-2.039-5.695-3.09
      c-2.795-0.243-2.607-3.311-4.188-3.916c1.518-0.434,13.93-1.766,15.35-3.896c1.715-0.473,3.43-0.911,5.146-1.375
      c6.401-1.113,4.774-5.958,3.831-11.161c-0.809-4.45-5.848-1.491-9.029-0.521c-2.084,0.382-4.225,1.065-6.265,1.682
      c-4.21,0.856-8.464,2.697-12.811,3.297c-0.791-3.164-1.812-10.437-5.116-12.482c1.235-2.316,9.628-3.008,11.938-3.676
      c2.696,0.129,8.833-0.803,9.24-3.436c0.349-2.256-0.329-11.335-3.925-10.24c-3.294,0.193-7.641,0.846-10.789,1.818
      c-2.766-0.011-4.573,2.042-7.024,2.313c-0.436,0.908-13.137,4.278-6.966,6.407c-0.054-0.236,0.177-0.585,0.305-0.67
      c-0.166,0.245-0.052,0.324,0.342,0.238c-0.889,1.913-1.25,1.401-0.247,3.73C-330.496,214.765-331.365,215.579-331.569,217.48
      C-331.232,217.583-331.483,216.677-331.569,217.48z"/>
    <path fill-rule="evenodd" clip-rule="evenodd" d="M-227.739,230.734c0.658,0.162-0.485-9.771-1.938-11.375
      c-1.759-0.162-5.058-0.61-6.239-1.926c-4.214-0.364-8.229-4.394-12.333-4.519c0.568-1.124,3.429-6.186,4.527-6.456
      c-0.145-0.451,1.074-1.944,1.15-2.435c0.287-1.862-0.174-8.351-1.507-9.776c-1.064-0.223-3.749-1.702-4.103,0.635
      c-0.971,0.199-0.593,1.732-1.586,1.844c-0.434,0.904-2.191,4.27-3.158,4.376c-0.68,1.419-4.296,7.674-5.764,7.839
      c0.056-0.118-7.882-2.837-8.463-3.48c-3.237-0.295-7.496-2.62-10.775-2.067c-0.852-1.059-3.525-0.113-4.438-1.124
      c-1.362-0.124-1.979-1.056-3.503-0.604c-3.847,1.144,0.25,1.975-1.201,3.393c0.535,0.304,0.821,0.229,0.859-0.227
      c0.548,0.41-0.744,1.664-0.275,2.537c1.43,2.666,0.635,3.318,0.373,5.742c2.076,0.636,3.86,3.05,6.819,2.707
      c0.009-0.113,13.557,3.521,13.984,3.482c-1.288,2.978-11.983,18.913-8.471,20.113c-0.103-0.447,0.503-1.053,0.929-1.171
      c-0.018,0.112-0.775,2.101-0.65,2.101c-0.16,0-0.191-0.281-0.189-0.407c-1.868,1.338,2.464,5.387,0.395,6.943
      c-1.07,0.806,2.787,2.775,3.296,0.177c0.624-0.142,0.272-0.906,0.765-0.973c0.438-0.721,2.008-4.577,2.697-4.652
      c0.789-1.323,4.13-9.229,5.303-9.373c0.43-0.717,1.939-4.634,2.611-4.717c0.421-0.706,3.488-4.469,3.37-3.81
      C-252.754,224.659-228.331,234.772-227.739,230.734C-227.426,230.811-227.801,231.154-227.739,230.734z"/>
    <path fill-rule="evenodd" clip-rule="evenodd" d="M-226.141,193.532c5.502,0.975,17.994-4.825,17.072,3.702
      c1.464,0.453,4.928,10.368,5.156,11.754c-0.656,0.567,4.436,14.889,7.804,16.113c-0.295,1.672,4.871,4.467,4.613,5.894
      c6.27,2.832,1.949-10.128,2.575-10.306c-1.614-1.003-2.776-4.795-4.32-6.156c-0.051-1.279-2.829-4.463-3.758-5.273
      c-0.026-0.666-2.184-5.476-2.615-5.935c-2.454-0.521-2.437-11.052-4.9-12.319c-0.003-0.084-0.005-0.168-0.008-0.252
      c5.607-0.488,10.988-2.873,16.499-3.791c0.336-0.671,7.248-1.493,4.739-3.668c1.104-2.4-1.025-6.136-1.083-8.381
      c-0.075-2.954-3.52-0.875-5.108-0.699c-0.63,1.26-8.888,2.032-10.183,2.429c-4.95,0.445-10.231,2.088-15.098,3.122
      c-2.571-0.132-8.42,2.232-10.054,0.805c-0.21,0.331-0.49,0.588-0.84,0.773c-1.189-0.891-1.785,0-3.117,0
      c1.268,0.1-3.246-0.162-2.006,0c-1.047,0-6.023,0.667-6.514,0.122c-1.238-0.113-3.094-0.049-4.308,0.224
      c-1.337-1.486-5.363,2.475-1.938,3.639c-0.084-0.358,0.234-0.584,0.408-0.75c0.716,0.512-1.148,1.946-0.587,2.993
      c0.872,1.625,0.519,5.688,0.834,5.965C-240.662,195.478-229.426,194.339-226.141,193.532
      C-225.771,193.597-226.486,193.617-226.141,193.532z"/>
    <path fill-rule="evenodd" clip-rule="evenodd" d="M-506.522,419.88c3.613-0.992,7.404-1.437,10.984-2.527
      c2.104-0.19,9.741-3.603,9.376-0.207c1.274,0.39,6.115,9.999,6.022,10.896c0.94,0.278,8.226,7.723,8.063,8.623
      c3.06,1.389,3.342,4.939,8.118,4.453c-0.032,0.345,11.386,3.551,12.091-0.62c0.384-2.269-0.76-5.924-1.107-7.864
      c-0.402-2.246-1.24-1.658-2.391-2.891c-1.457-0.134-5.39-0.323-6.354-1.381c-5.045-0.458-7.035-2.694-10.479-6.371
      c-1.66-0.358-7.611-7.51-7.611-8.99c0-1.106,1.641-1.754,1.325-3.867c-0.363-2.437-1.136-4.819-1.189-6.974
      c-0.074-3.033-3.687-0.804-5.108-0.64c-0.768,1.534-1.704-1.429-1.847-1.58c-3.029-0.643-3.761-9.854-6.406-11.385
      c-0.019-0.832-4.808-9.344-4.269-9.498c-0.752-0.459-0.941-3.708-1.136-4.463c-0.159-1.208-0.338-3.316-0.872-4.076
      c-0.342-2.25-4.008-3.334-4.377-0.844c-0.112,0.761,0.645,3.361,0.24,3.797c1.142,4.947,1.92,8.641,2.801,12.447
      c-1.07,0.688,1.396,5.021,1.443,5.996c-0.713,1.126,2.918,4.817,2.771,6.221c0.712,0.219,3.01,5.104,2.902,5.615
      c-4.297,1.146-8.792,1.719-13.043,3.016c-4.86,0.544-9.99,2.581-14.628,3.982c-2.912,0.543-5.734,1.958-8.696,2.293
      c-2.121,3.394-7.356-7.773-8.511-8.795c-0.086-2.055-5.854-9.09-7.367-10.703c-1.248-0.26-1.839-4.91-2.715-5.842
      c-0.761-0.159-0.871-2.397-1.357-2.922c-0.578-0.119-0.205-0.799-0.699-1.072c-0.071-2.544-2.644-1.227-4.058-1.068
      c-1.158,2.41,4.081,9.155,1.647,10.574c-1.229,0.717,4.992,10.881,4.842,12.32c0.748,0.229,8.247,10.065,8.047,11.184
      c2.152,0.906,2.625,5.539,4.459,6.994c1.854,1.472,3.795,6.576,4.388,8.34c-0.727,0.471,2.138,10.061,2.357,10.637
      c-2.101,1.34,3.921,9.69,3.683,11.965c1.203,0.371,1.365,1.537,3.15,1.367c-0.088,0.707,5.552,0.039,6.081-0.023
      c1.228-2.027,0.864-5.123,0.318-7.656c-0.384-1.783-0.621-3.482-1.905-4.899c-0.891-0.082-2.691,0.084-3.295-0.582
      c-3.096-0.273-1.626-3.422-3.689-4.496c-0.09-3.706-2.156-8.598-3.054-12.189c-0.054-1.54,12.338-4.251,14.797-4.549
      C-511.741,420.244-507.551,421.252-506.522,419.88C-506.323,419.826-506.525,419.884-506.522,419.88z"/>
    <path fill-rule="evenodd" clip-rule="evenodd" d="M-422.589,361.914c-0.677-0.814-5.054-2.201-6.148-2.059
      c-1.886-2.233-9.627-0.037-12.428,0.803c-2.897,0.178-10.553,1.349-10.958,4.184c-1.967,0.45-2.729,4.805-4.716,5.02
      c-0.335,0.697-1.297,2.371-2.102,2.467c-0.715,1.485,0.052,2.437-1.104,3.689c0.416,1.792-1.525,5.226-0.625,6.779
      c-0.577,4.082-0.42,8.532,1.672,12.26c0.046,0.552-0.909,3.854,0.352,4.219c-0.839,0.514,1.816,5.731,1.705,6.766
      c2.247,0.682,2.131,9.202,6.648,9.836c1.156,0.626,4.82,4.684,4.242,6.52c1.166,1.088-0.5,3.192,0.168,3.778
      c0.973,0.854,5.143,0.833,6.872,0.486c3.646,1.028,9.644,0.499,13.327,0.057c1.018-1.78,6.113-1.659,6.983-3.834
      c5.267-1.606,11.02-7.312,11.952-12.477c3.32-0.643,3.152-12.305,3.947-12.504c-0.611-1.858,0.021-4.5-0.091-6.449
      c1.726-1.089-1.258-10.152-1.305-11.962c-0.069-2.7-4.7-9.008-6.596-11.021c-2.126-0.458-2.365-4.9-5.651-4.502
      C-417.124,363.154-421.491,361.771-422.589,361.914C-422.689,361.792-422.363,361.884-422.589,361.914z M-424.068,374.576
      c0.681,0.308,6.229,1.607,6.146,2.055c0.956,0.432,3.336,0.243,3.205,1.506c0.385,0.118,1.021,1.682,1.232,1.682
      c-0.313,1.483,3.793,3.791,3.601,5.482c2.19,0.669,1.424,9.011,0.664,9.1c-1.063,2.223-6.743,9.668-6.049,12.049
      c-4.203,1.179-7.703,6.41-11.987,6.873c-0.593,1.23-10.183-3.443-12.551-3.063c-0.948-1.198-4.164-1.313-5.724-3.09
      c-0.219-1.385-3.712-4.038-4.698-5.094c-2.204-0.462-5.915-10.975-4.417-11.338c-0.496-1.501,1.581-5.217,0.481-6.381
      c0.664-1.298,4.858-7.072,6.23-7.238C-445.414,372.965-423.45,371.196-424.068,374.576
      C-423.727,374.73-424.054,374.496-424.068,374.576z"/>
    <path fill-rule="evenodd" clip-rule="evenodd" d="M-404.857,351.773c-0.396,0.615-0.199,0.835,0.594,0.66
      c-0.018-0.078,0.165-0.613,0.218-0.637c0.866,0.647-0.306,1.214-0.476,1.895c-0.361,1.123,1.351,4.201,1.391,5.648
      c-1.379,3.788,5.163,2.029,4.973,2.98c0.22,0.1,3.218,0.424,3.205,0.488c2.736,1.237,1.072,3.413,0.859,5.393
      c0.715,0.219,5.643,4.26,5.485,5.135c2.792,1.267,1.173,7.286,3.019,7.957c-0.535,1.548,1.058,3.411,0.746,4.867
      c-1.964,0.449-6.826,4.355-3.128,5.631c-0.126-0.543,0.285-0.707,0.749-0.656c-0.985,2.039-1.364,1.598-0.35,3.953
      c0.87,2.02-0.001,2.835-0.202,4.734c3.313,1.018,3.36-0.616,6.2-1.563c1.08,0.374,4.536,11.087,4.76,12.545
      c-0.691,0.622,1.363,5.828,3.245,5.385c4.226-0.996,0.851-7.986,0.775-10.966c-0.021-0.795-1.54-5.806-2.136-6.044
      c-0.238-4.192-2.241-3.492,1.933-3.914c0.25,1.668,12.28,3.722,12.008,5.201c0.591,0.266,25.061,8.277,25.567,6.25
      c12.635,5.728,10.236-13.442,3.458-12.205c-2.07-2.635-10.658,0.282-12.964-2.271c-3.113-0.28-7.836-2.699-10.566-2.387
      c-2.22-2.435-8.156-1.682-10.118-4.148c0.11-0.427,4.099-6.157,4.384-6.189c0.31-0.521,1.217-2.692,1.737-2.752
      c1.443-2.425,0.408-3.25,0.86-6.352c6.803,2.26,5.74-14.716-2.984-13.219c-2.472-3.089-11.054-0.944-13.77-3.955
      c-4.545-0.405-10.325-3.291-15.045-2.457c-0.606-0.758-6.409-1.292-7.48-1.094C-399.166,348.072-408.617,348.965-404.857,351.773
      C-404.988,351.9-405.224,351.5-404.857,351.773z M-384.271,364.437c1.164,0.521,8.926,0.992,8.769,1.881
      c2.237,1.002,6.71,2.459,9.118,2.459c-0.864,2.247-3.944,7.636-6.525,7.936c-0.789,1.625-5.695,6.432-7.527,6.756
      C-380.735,377.756-385.14,368.779-384.271,364.437C-383.914,364.597-384.27,364.427-384.271,364.437z"/>
    <path fill-rule="evenodd" clip-rule="evenodd" d="M-312.057,388.814c-0.074,0.545,3.498,3.915,4.092,3.961
      c2.61,1.966,2.881,4.306,6.925,3.826c1.002-1.659,0.955-3.21,0.354-5.338c0.139-0.761-0.233-5.426-1.025-6.271
      c-1.546-0.325-4.407-3.755-5.38-4.895c-0.152-0.763-3.012-3.83-3.65-4.293c-0.027-1.286-2.65-5.389-3.535-6.332
      c-2.764-0.573-4.459-9.606-6.911-11.322c-0.058-2.788-5.934-9.436-7.87-11.516c-2.62-0.555-6.437-9.085-8.355-11.203
      c-4.171-0.375-3.197,2.443-1.973,4.16c-0.309,2.678,1.292,5.753,0.854,8.188c1.551,0.73,2.043,5.049,3.67,5.514
      c-0.431,1.982,5.285,5.025,5.058,7.186c1.022,0.312,5.839,7.053,5.783,7.969c-0.888,2.387,6.107,7.602,6.031,10.266
      C-318.268,379.359-312.658,388.621-312.057,388.814C-312.06,388.835-312.105,388.798-312.057,388.814z"/>
    <path fill-rule="evenodd" clip-rule="evenodd" d="M-229.726,336.765c0.863,0.212-0.287-7.736-0.9-8.492
      c0.433-0.004-0.349-3.404-3.399-2.611c-0.307-5.529-25.813,3.78-28.764,0.383c-1.569-0.142-7.65,0.663-8.633-0.408
      c-1.591-0.144-7.633,0.661-8.632-0.424c-1.591-0.145-7.627,0.619-8.627-0.467c-1.569-0.143-7.66,0.602-8.631-0.477
      c-1.614-0.139-7.62,0.463-8.623-0.656c-0.952-0.083-3.694,0.236-4.308-0.445c-1.39-0.126-2.544,0.252-4.001,0.416
      c-0.578,1.204,0.769,2.534,0.264,3.027c1.215,0.508,0.593-0.306,1.039-0.578c-0.394-0.285,0.28,4.87,0.209,5.096
      c1.386,1.303-0.144,2.111-0.292,3.514c-0.02-0.006,2.633,1.65,2.729,1.117c1.667,0.754,5.954,1.138,7.594,0.9
      c2.582,1.044,9.181,1.361,11.933,0.885c2.397,0.833,8.282,1.074,10.789,0.643c2.648,0.897,9.134,1.097,11.891,0.59
      c6.358,2.08,16.763,0.051,23.252-0.934c-0.508,3.685-4.79,6.869-5.434,10.758c-2.879,0.458-2.927,10.285-6.573,10.686
      c-1.534,3.198-7.589,5.838-8.106,9.352c-0.869,0.171-3.676,4.252-3.82,5.236c-0.38,0.075-1.588,2.512-2.319,1.635
      c-5.36-0.482-1.646,2.644-2.812,3.775c0.564,0.323,0.859,0.252,0.883-0.213c-0.255-0.273,0.479,4.851,0.436,4.988
      c0.338,0.311,0.992,2.525,0.119,3.037c-1.441,0.844,1.15,1.513,1.411,1.836c0.562,0.697-0.306,0.62,0.437,1.271
      c1.793,1.574,2.213-0.416,3.571-0.568c0.993-1.644,1.825-0.948,3.835-1.422c2.107,0.371,10.931-1.157,12.016-3.326
      c1.71-0.51,8.076-2.341,8.645-3.988c1.625-0.493,7.297-4.367,7.799-5.969c4.896-1.462,3.476-10.971,0.699-14.035
      c-4.745-0.428-6.132,5.318-9.921,5.742c-0.874,1.811-5.72,4.281-8.03,4.547c2.365-5.418,7.961-10.167,8.982-16.137
      c1.948-0.362,1.916-6.647,3.923-7.139c-0.494-1.498,3.437-2.758,3.815-3.93C-232.364,343.094-230.123,339.507-229.726,336.765
      C-229.407,336.843-229.787,337.189-229.726,336.765z M-232.717,327.83c0.028,0.557-0.176,0.772-0.613,0.646
      C-233.456,328.151-233.252,327.936-232.717,327.83C-232.757,328.085-233.024,327.916-232.717,327.83z M-252.08,371.414
      C-252.132,371.434-251.906,370.871-252.08,371.414C-252.09,371.417-252.058,371.343-252.08,371.414z"/>
    <path fill-rule="evenodd" clip-rule="evenodd" d="M-149.142,319.193c-2.741-8.331,0.07-19.483-5.867-25.953
      c-0.233-1.767-4.842-5.414-6.099-6.764c-2.089-0.44-3.09-3.224-5.748-2.764c-0.811-1.02-3.557,0.008-4.441-0.957
      c-2.887-0.261-6.557-1.92-9.398-1.428c-0.323-0.407-11.033,1.555-11.517,2.779c-0.682,0.202-3.88,0.723-4.122,1.299
      c-2.155,0.638-3.629,3.275-5.205,3.441c-1.268,2.661-4.357,6.089-6.396,8.41c-0.997,3.641-2.007,7.169-2.913,10.795
      c-2.072,3.315,1.636,10.948-0.797,13.559c0.703,3.148-1.006,11.401,1.184,13.773c-0.341,1.788,1.351,4.213,1.131,6.252
      c1.229,0.38,0.067,4.929,1.235,5.954c0.478,0.419,2.587,4.833,2.665,5.569c-1.632,2.204,4.426,4.22,4.895,4.801
      c0.729,0.903,4.896,2.083,6.376,1.914c-0.11,1.552,9.306,0.896,6.418-1.6c1.049-2.272-0.507-10.758-3.923-10.287
      c-1.373-1.596-5.197-0.454-6.586-2c-8.291-0.719-7.559-14.892-7.559-21.438c0-1.146-0.071-7.781,1.187-8.096
      c-1.131-3.4,3.06-8.485,3.794-11.258c0.995-0.284,3.99-3.813,4.271-4.879c-0.015,0.004,2.886-2.18,2.929-2.252
      c1.332-0.381,2.717-1.072,4.09-1.238c1.999-3.331,10.063-1.539,12.805-1.83c-0.119,0.837,14.052,0.81,13.533,3.705
      c1.248,0.567,8.101,8.129,7.665,8.604c0.661,2.833,0.03,5.563-0.737,8.885c-0.601,1.241-0.681,2.873-1.003,4.211
      c-0.894,1.916-2.553,4.772-2.79,6.34c-1.938,0.388-3.816,6.136-5.01,7.789c-1.35,0.406-7.572,2.795-7.895,4.016
      c-2.037,0.563-5.845,0.971-7.729-1.094c-0.916-0.08-3.562-0.57-4.141-1.217c-2.802-0.253-6.688,2.41-3.043,3.656
      c-0.058-0.251,0.182-0.588,0.315-0.68c0.229,0.166-0.427,2.821,0.089,4.02c0.628,1.457-0.785,5.991,1.484,5.691
      c-0.054,0.428,9.393,2.361,9.271,3.031c4.689,2.116,8.14-3.105,12.358-3.637c0.66-1.086,3.959-1.199,3.709-2.953
      c1.185-0.358,1.175-2.115,2.121-2.373c-0.16-0.502,4.032-6.678,4.564-6.744C-152.844,334.38-149.932,319.385-149.142,319.193
      C-149.318,318.656-149.246,319.218-149.142,319.193z"/>
    <path fill-rule="evenodd" clip-rule="evenodd" d="M-82.816,292.109c-0.099-0.296-3.059-19.664-3.653-19.494
      c-1.075-0.676-0.385-3.683-1.75-4.453c-0.031-1.273-2.706-7.239-3.721-7.798c-0.048-2.231-3.115-5.753-4.63-7.147
      c-0.078-1.369-2.503-2.677-3.367-3.632c-5.479-0.493-1.91,3.091-1.959,3.642c0.012,0.009,1.136,6.56,1.15,7.094
      c-0.694,1.914,0.109,2.482,1.747,3.921c0.87,0.764,3.83,4.948,3.724,5.916c2.446,0.758,4.211,9.873,5.84,11.683
      c0.453-0.332-0.124,4.09,0.102,4.564c-0.116,0.795-0.881,2.469-0.536,3.195c-0.248,1.697-1.747,1.083-2.02,2.332
      c-2.325,0.624-3.182,1.63-5.539,1.982c-1.254-1.56-5.183-0.416-6.519-1.92c-1.436-0.125-3.67-0.352-4.701-1.504
      c-1.754-0.135-3.26-3.676-5.056-3.719c-2.232-1.454-6.818-7.116-9.385-7.195c-0.993-0.667-2.731-3.337-3.919-3.414
      c-2.867-1.336-6.758-5.416-8.926-7.729c-3.313-0.414-6.264-6.316-9.845-6.135c-1.748-1.616-4.508-1.929-6.111-3.684
      c-1.003-0.092-4.601-2.543-5.098-0.01c-2.821,0.308-3.742,2.979-1.337,3.811c-0.107-0.465,0.521-1.092,0.963-1.215
      c-0.168,1.075-3.291,4.846-0.492,4.918c1.162,0.904-1.454,5.721,1.268,5.563c-0.529,3.353,0.266,4.787,3.015,7.204
      c0.592,0.521,4.34,4.947,4.224,5.595c1.12,0.538,7.1,6.49,6.982,7.146c0.717,0.323,4.801,3.688,4.658,4.488
      c1.737,0.796,2.965,4.222,4.758,4.617c0.9,0.359,7.682,7.921,7.54,8.709c1.373,0.618,4.087,6.158,4.195,7.488
      c-0.771,0.982,2.438,4.787,2.532,5.914c-0.772,0.916,1.306,2.49,2.277,2.261c2.587-0.609,2.215-3.348,1.582-5.591
      c0.633-3.477-2.585-12.852-4.798-15.223c-0.421-0.09-3.429-6.195-4.274-7.107c-0.186-1.722-4.704-5.66-5.933-6.965
      c-1.413-0.298-5.333-5.269-6.424-6.564c-0.544-2.439-5.204-3.952-6.255-6.215c2.74,0.884,5.914,6.133,8.553,6.244
      c1.534,1.493,5.955,6.954,8.193,7.049c1.796,1.764,15.729,10.618,15.42,12.363c3.226,1.455,17.858,7.585,19.824,2.561
      c2.149-0.643,8.054-3.585,6.375-6.729C-83.104,298.129-83.977,292.466-82.816,292.109
      C-82.987,291.593-82.842,292.117-82.816,292.109z M-143.107,276.988C-142.435,277.067-142.692,277.396-143.107,276.988
      C-142.975,277.003-142.996,277.097-143.107,276.988z"/>
    <path fill-rule="evenodd" clip-rule="evenodd" d="M-371.424,464.268c1.958-0.379,11.996-2.143,12.684-3.518
      c8.657-2.465,16.041-3.414,25.498-6.268c8.412-0.801,18.25-3.498,26.345-5.947c8.435-0.852,18.218-3.49,26.338-5.948
      c8.414-0.799,18.291-3.339,26.389-5.783c8.411-0.848,18.268-3.431,26.351-5.926c11.055-1.05,23.979-5.176,34.097-8.031
      c-0.053,0.013,1.206,0.496,1.349,0.496c-0.309,0,2.97-2.405,4.212-1c-0.24,0,4.392-2.443,4.158-2.039
      c2.28-0.676,4.591-2.2,6.962-2.48c1.726-2.876,10.582-1.674,12.033-4.793c3.934-1.177,7.166-7.362,11.139-7.854
      c0.611-1.02,3.939-3.896,5.148-4.033c1.747-2.889,0.73-9.785-1.553-12.291c-2.373-0.214-12.394,5.998-12.771,7.92
      c-4.089,1.079-6.645,5.439-11.687,6.021c-1.315,2.729-11.233,1.759-12.251,4.568c-2.903,0.827-5.966,1.426-8.896,2.318
      c-2.041,0.375-4.512,1.662-6.577,1.662c-55.322,13.671-114.77,23.065-167.942,38.776c-11.468,2.564-23.139,8.418-34.831,9.643
      c-0.974,2.125-14.683,4.049-17.286,4.83c-8.618,1.672-16.455,7.434-25.066,8.412c-0.67,1.395-10.473,4.021-12.254,4.223
      c-1.285,2.682-11.282,1.566-12.314,4.318c-4.295,1.264-8.808,3.891-13.245,4.391c-0.391,0.814-15.86,4.33-9.185,6.627
      c-0.066-0.287,0.191-0.576,0.336-0.684c-0.029,0.287-0.788,1.752-0.788,1.848c-0.246,1.953,1.532,3.947,1.581,5.727
      c-0.771,2.121-0.575,2.021,2.347,1.672c0.419-0.729,2.741-0.344,3.115-1.092c4.343-1.209,8.845-3.76,13.31-4.307
      c1.736-2.777,10.816-1.266,12.356-4.127c4.295-1.244,8.892-3.826,13.297-4.338c1.614-2.826,10.798-1.363,12.33-4.223
      c4.324-1.236,8.822-3.846,13.272-4.391c1.125-1.971,11.827-3.391,14.286-4.049C-396.473,471.824-383.908,467.783-371.424,464.268
      C-371.363,464.256-371.493,464.287-371.424,464.268z"/>
    <path fill-rule="evenodd" clip-rule="evenodd" d="M-327.785,498.371c18.809-4.84,37.943-8.725,56.443-14.01
      c1.811-0.387,11.994-2.1,12.712-3.535c3.354-0.955,15.104-2.668,16.376-5.209c4.276-1.256,8.625-4.389,13.033-4.92
      c1.809-2.949,10.517-1.797,12.158-4.816c4.342-1.275,8.584-4.303,13.131-4.863c1.673-2.787,10.859-1.43,12.301-4.311
      c4.318-1.238,8.79-3.92,13.239-4.471c1.719-2.865,10.661-1.412,12.304-4.311c7.599-2.23,15.955-2.896,23.649-5.225
      c4.148-0.328,8.811-1.767,12.797-2.947c0.759-0.1,7.382-1.183,7.927-2.117c4.67-1.307,2.456-6.483,1.781-10.218
      c-0.738-4.082-3.443-1.958-6.383-1.632c-0.449,0.897-6.25,1.405-7.095,1.666c-4.347,0.48-9.431,1.651-13.62,2.91
      c-8.037,0.665-16.26,4.543-23.841,5.365c-1.3,2.707-11.254,1.589-12.308,4.361c-4.296,1.268-8.795,3.922-13.232,4.424
      c-1.283,2.674-11.316,1.615-12.306,4.361c-4.342,1.281-8.715,4.367-13.147,4.863c-1.336,2.756-11.205,2.016-12.155,4.869
      c-4.316,1.221-8.589,4.375-13.034,4.873c-1.018,2.1-8.166,1.238-9.046,3.158c-4.272,1.424-8.672,2.348-12.978,3.643
      c-1.738,0.375-12.435,2.297-13.017,3.674c-8.616,1.814-18.131,4.131-26.864,6.818c-4.403,0.561-9.403,1.938-13.644,3.264
      c-1.187,0.143-9.428,1.357-9.866,2.541c-1.966,0.6-12.783,3.066-13.364,4.717c-1.947,0.564-12.643,3.045-13.239,4.678
      c-2.339,0.68-4.662,2.092-7.078,2.367c-0.361,0.779-8.391,2.723-3.033,4.594c-0.063-0.275,0.188-0.582,0.329-0.684
      c-0.072,0.604-0.346,0.977-0.587,1.941c-0.436,1.355,2.097,3.455,0.989,4.984c0.448,0.91-1.474,3.371,1.511,2.666
      c0.536-0.127,3.048-0.664,3.328-1.131c3.971-1.145,8.113-3.664,12.208-4.143c1.525-2.568,9.948-1.336,11.274-3.986
      C-338.188,502.023-328.592,499.984-327.785,498.371C-327.618,498.328-327.789,498.379-327.785,498.371z"/>
    <path fill-rule="evenodd" clip-rule="evenodd" d="M-60.282,471.5c1.121-2.432-1.04-6.223-1.098-8.5
      c-0.066-2.643-3.285-1.295-4.812-0.834c-1.779,0.355-3.599,0.877-5.357,1.424c-2.06,0.352-4.415,1.078-6.26,1.605
      c-7.82,0.443-17.669,3.549-25.199,5.846c-8.461,0.984-18.135,3.496-26.293,5.967c-6.553,0.684-12.971,3.748-19.405,4.463
      c-0.866,1.732-7.511,0.516-8.37,2.234c-11.732,2.596-23.648,5.721-35.205,9.211c-2.903,0.547-5.735,1.855-8.678,2.217
      c-0.885,1.768-7.321,0.506-8.375,2.193c-2.336,0.504-15.977,2.58-16.764,4.416c-4.297,1.289-8.605,2.414-12.916,3.674
      c-1.765,0.395-12.483,2.305-13.074,3.703c-4.411,1.471-9.189,1.566-13.837,2.867c-4.816,0-11.401,1.109-16.041,2.412
      c-2.568,0-6.081,0.592-8.556,1.287c-2.831,0-6.131,2.717-2.728,3.898c-0.093-0.402,0.272-0.609,0.464-0.811
      c-1.738,1.938,0.606,5.258,0.676,7.76c-0.646,1.771-0.668,2.674,2.438,1.801c2.125,0.123,5.44-0.447,7.492-1.025
      c3.664,0.213,9.294-0.781,12.838-1.758c4.297,0.227,10.219-1.066,14.374-2.168c4.281-0.809,8.512-3.078,12.843-3.51
      c0.797-1.594,11.221-3.125,13.186-3.652c13.015-2.693,26.683-6.469,39.519-10.34c4.468-0.67,11.326-4.377,15.278-3.537
      c1.173,0,3.241-1,4.181-1c2.169-1.584,5.133-1.418,7.28-2c2.233,0,4.873-1.693,7.064-2.297c0.232-0.059,2.638-0.703,3.447-0.703
      c1.131-0.232,2.766,0,3.115,0c0.9-1.148,1.149-1,2.079-1c1.573-1.189,2.848-1,4.157-1c3.326-2.553,9.001-2.355,12.965-3.551
      c4.733-0.451,10.264-1.936,14.809-3.338c9.555-1.063,20.288-4.213,29.5-6.979c0.136-0.018,14.256-2.904,14.256-3.617
      C-69.309,476.303-58.098,473.389-60.282,471.5C-59.898,470.668-59.835,471.887-60.282,471.5z"/>
    <path fill-rule="evenodd" clip-rule="evenodd" d="M-588.151,153.443c-0.387,0.601-0.193,0.815,0.58,0.644
      c-0.099-0.427,0.477-1.029,0.911-1.15c-0.229,1.47-1.845,1.947-1.087,3.359c1.447,2.699,0.609,3.453,0.369,5.678
      c4.848,1.487,2.572-1.841,5.446-2.652c0.178,0.257,0.196,4.577,0.014,4.774c0.401,1.757,0.795,1.535-1.122,2.104
      c-3.788,1.125,0.248,1.948-1.181,3.349c1.232,0.518,0.568-0.312,1.014-0.566c-0.299-0.224,0.58,6.545,0.451,6.723
      c0.414,0.85-1.35,3.048,1.195,2.65c0.031,0.191,2.167,1.035,2.427,1.609c-1.573,0.894,0.78,4.551,0.962,5.829
      c-0.748,0.889,2.578,5.149,2.439,6.413c0.772,0.227,8.985,5.44,8.969,5.523c2.549,1.156,6.588,1.015,9.08,1.431
      c1.646,0.275,4.438,0.95,6.119,0.487c1.558,0.12,11.789-0.653,12.393-1.97c0.905-0.197,4.123-3.741,4.349-4.719
      c2.622-0.71,1.683-6.811,1.286-8.651c-0.38-1.767-0.615-3.444-1.885-4.851c-2.771-0.249-2.844,2.052-4.367,2.221
      c-1.422,2.987-3.821,3.236-7.213,4.153c-3.489-0.027-12.841,1.987-15.256-0.715c-3.836-0.337-11.231-2.595-11.876-6.937
      c5.51-0.633,10.949-3.111,16.303-3.765c0.622-1.053,3.675-0.434,4.217-1.678c2.793-0.824,1.839-7.702,0.341-9.548
      c1.583-0.014-2.809-6.167-4.072-2.204c-1.644,0.48-3.354,1.29-5.092,1.484c-0.921,1.934-11.614,2.65-13.698,3.109
      c0.176-1.117,1.202-4.739,0.199-5.952c-0.11-2.633,3.114-0.656,4.127-2.175c3.263-0.898,5.987-1.61,9.168-2.479
      c1.177-0.118,3.867-0.931,5.525-1.381c1.438-0.262,9.688-1.866,10.352-3.119c3.44-0.984,4.36-2.713,3.313-6.423
      c0.382-2.094-0.767-3.591-0.812-5.367c-0.075-2.996-3.646-0.801-5.061-0.643c-0.803,1.697-10.035,3.021-12.047,3.631
      c-3.945,0.777-7.811,2.746-11.845,3.195c-0.301,0.647-4.5,1.277-5.269,1.497c-2,0.395-3.972-0.005-5.494,0.447
      C-585.457,147.251-590.625,151.589-588.151,153.443C-588.278,153.567-588.508,153.176-588.151,153.443z M-581.104,149.631
      C-581.561,150.078-581.325,149.468-581.104,149.631C-581.169,149.695-581.141,149.604-581.104,149.631z M-580.43,149.711
      C-579.625,149.582-580.431,149.711-580.43,149.711C-580.306,149.691-580.406,149.724-580.43,149.711z M-583.546,149.382
      C-583.701,149.179-583.443,149.062-583.546,149.382C-583.559,149.365-583.524,149.315-583.546,149.382z"/>
    <path fill-rule="evenodd" clip-rule="evenodd" d="M-529.503,153.417c-0.237,1.243,1.081,4.983,0.259,5.873
      c0.193,0.853,1.33,5.137,1.332,5.132c-0.166-0.097,0.366,3.202,0.3,3.818c0.768,0.237,0.483,2.561,0.341,3.006
      c-1.016,1.096,1.283,1.327,1.117,2.249c2.809,1.27,4.535,6.403,8.275,5.801c3.33,1.185,9.684,0.975,13.003-0.037
      c1.484-0.075,9.561-1.077,10.251-2.228c3.113-0.898,11.561-2.294,12.057-5.51c0.346-2.244-0.752-5.786-1.098-7.708
      c-0.54-2.995-1.378-2.469-4.241-2.147c-0.308,0.66-4.513,1.516-5.289,1.746c-4.15,0.927-8.779,1.733-12.987,2.997
      c-3.143,0.21-10.935,1.622-13.105-0.687c-0.102,0.195-0.137,0.402-0.108,0.621c-0.446,0-0.499-0.966-0.695-1.176
      c-0.353-0.077-1.111-1.063-1.604-1.584c-0.104,0.244-0.14,0.497-0.11,0.76c-0.321,0-2.825-3.867-2.001-4.063
      c-0.203-0.612,10.424-0.998,11.902-1.445c3.475-0.267,6.842-2.097,10.139-2.495c0.986-1.636,0.942-3.164,0.348-5.262
      c0.137-0.75-0.229-5.351-1.011-6.183c-2.643-0.56-13.823,3.537-15.271,1.928c-1.703-0.153-5.193,1.232-5.63-0.645
      c0.336-5.059-1.89-3.554,3.357-4.877c2.788,0.462,10.159-0.119,10.581-2.855c0.475-3.083-0.241-11.079-4.49-10.097
      c-1.553-1.553-13.402,1.331-15.183,1.53c-1.671,3.482,2.257,10.087-0.083,12.608C-528.612,144.82-531.168,151.613-529.503,153.417
      C-529.539,153.607-529.643,153.266-529.503,153.417z"/>
    <path fill-rule="evenodd" clip-rule="evenodd" d="M-482.036,158.408c-0.588,0.571,0.646,0.991,0.868,1.015
      c-1.715,0.167,0.521,3.542,0.264,4.362c1.338,1.247-0.156,2.282-0.309,3.71c1.8,0.553,4.869,4.387,5.708-0.25
      c0.144-0.791,0.08-10.087,0.683-10.234c-1.385-4.187,1.574-8.361,5.801-8.871c0.622-1.03,5.543-3.087,6.828-3.243
      c0.451-0.747,5.273-3.615,6.072-3.712c0.915,0.956-1.232,0.939-0.198,1.848c0.229,0.201,1.797,1.679,1.735,2.027
      c1.328,0.6,2.488,3.045,3.949,3.075c1.699,1.661,4.578,5.01,6.793,5.755c0.323,1.791,14.825,6.681,17.31,6.396
      c-0.027,1.381,6.535-0.333,4.349-2.221c1.051-2.276-0.558-8.127-2.154-9.89c-2.143-0.191-7.857-1.416-9.285-2.987
      c-5.021-0.455-12.031-4.508-15.656-8.978c2.748-0.606,5.049-5.341,7.828-5.673c1.57-2.604,6.691-4.084,7.564-7.013
      c4.373-1.31,7.547-8.83,3.963-13.247c0.768-0.007-0.031-2.093-0.151-2.22c-2.175-0.459-2.913,0.375-4.627,0.57
      c-0.447,0.934-2.954,3.467-4.026,3.587c-1.214,2.524-7.061,4.293-7.491,6.963c-3.041,0.76-5.161,5.348-8.339,5.706
      c-1.175,2.436-7.563,3.55-8.058,6.146c-2.944,0.774-5.522,3.723-8.615,4.341c1.611-1.285,2.82-8.958,4.872-9.202
      c1.712-2.802,2.192-5.292,1.32-9.348c-0.035-0.166-0.665-3.679-0.968-4.001c-2.179-0.46-2.941,0.59-4.332,0.746
      c-0.881,1.828-2.673,3.398-3.01,5.451c-0.819,0.149-4.669,7.385-3.995,8.919c-0.373,2.438-0.703,9.687-2.323,11.444
      c-0.417-1.862-2.621,6.094-0.798,4.113c0.126,0.556,0.053,2.693-0.316,3.092C-480.121,149.475-482.982,157.701-482.036,158.408
      C-482.172,158.54-482.416,158.124-482.036,158.408z M-480.204,142.741C-480.204,142.747-480.206,142.742-480.204,142.741
      C-480.204,142.742-480.205,142.741-480.204,142.741z M-480.904,159.417C-480.9,159.501-481.352,159.463-480.904,159.417
      C-480.903,159.44-480.966,159.423-480.904,159.417z M-480.282,143.151c-0.004,0.013-0.007,0.027-0.012,0.041
      C-480.292,143.176-480.286,143.164-480.282,143.151z"/>
  </g>
  <g>
    <path fill-rule="evenodd" clip-rule="evenodd" d="M139.928,249.311c0.884-1.917-0.519-11.036-3.467-10.316
      c-1.723-2.93-3.704-1.41-5.453-3.34c-3.807-0.343-8.493-3.609-12.18-3.097c-2.141-2.617-8.613-1.4-11.156-4.227
      c-1.74-0.157-8.416-2.739-8.774-5.251c0.989-0.279,4.753-2.654,5.102-3.614c0.317-0.068,3.881-0.625,4.177-1.068
      c1.264-0.356,8.278-2.13,6.016,1.018c0.401,0.848-1.957,4.435,1.299,3.665c2.381-0.563,2.207-3.366,2.538-5.256
      c0.187-1.069,8.548-2.218,6.327-4.14c0.793-1.718-1.006-11.426-3.335-10.765c-0.36-0.223-3.992-5.302-4.591-1.12
      c-0.465,0.11-2.088,1.577-2.203,2c-2.406,0.038-5.025,0.86-7.29,1.555c-1.293,0.236-2.622,0.648-3.888,1.009
      c-3.035,0.382-4.277,2.917-6.623,3.181c-0.439,0.915-2.246,1.732-3.396,1.861c-0.466,0.967-0.152,2.901-0.836,3.642
      c0.114,0.505-0.16,2.712-0.539,3.16c-2.186,0.451,0.566,2.573-0.16,3.282c0.408,0.171,2.027,4.757,1.841,5.357
      c0.667,0.62-0.614,2.888-0.263,3.505c-0.197,0.63,0.685,0.392,0.574,1.01c4.427,1.992,4.711,9.365,10.867,8.908
      c0.363,2.08,21.293,7.212,21.202,7.519c-2.003,0.543-3.489,2.559-5.546,2.79c-0.272,0.569-2.121,1.535-2.812,1.612
      c-0.447,0.931-0.911,0.169-1.103,1.458c-0.137,0.922,1.15,1.718,0.488,2.363c1.356,0.569,0.399-0.691,1.563-0.555
      c-0.407,0.835-2.193,5.613,0.358,5.416c0.348,3.198-2.398,4.734,2.506,4.146c1.329-2.219,6.673-2.288,7.653-4.596
      c1.443-0.438,7.001-2.879,7.553-4.199C137.795,255.792,141.802,250.934,139.928,249.311
      C140.322,248.455,140.388,249.709,139.928,249.311z"/>
    <path fill-rule="evenodd" clip-rule="evenodd" d="M155.224,254.611c1.259,0.629,8.022-0.049,10.999-0.808
      c1.184,0.188,7.061-1.056,4.984-2.857c0.62-1.345-0.168-7.954-1.274-9.132c-3.165-0.67-8.316-0.887-11.897,0.106
      c-2.623,0.728-4.059-4.438-5.506-6.199c3.754-1.011,7.475-4.138,11.348-4.601c0.526-0.87,4.855-2.428,5.954-2.562
      c0.155-0.256,2.632-2.332,2.709-2.351c-0.807-2.44,0.452-5.752-1.336-7.958c1.317-0.012-0.974-2.87-1.022-2.924
      c-2.16-0.193-3.143,1.35-4.859,1.542c-0.401,0.838-4.906,2.455-5.95,2.572c-0.742,1.541-9.673,4.579-11.517,4.964
      c-0.25-2.574-0.386-5.037,0.039-7.672c0.184-1.135,1.05-4.041,2.468-4.213c1.026-1.71,4.158-3.215,4.687-4.708
      c1.367-0.415,4.336-2.343,4.721-3.834c1.858-0.532,2.863-4.845,4.663-5.063c1.692-2.813,3.945-7.104,0.849-10.926
      c0.342-0.003,0.199-3.535-2.491-2.736c-1.632,0.485-2.329,2.685-3.547,2.82c-3.791,7.87-15.466,9.675-16.922,19.5
      c-1.052,7.093-0.511,16.933,2.111,21.129c-1.375,2.974,1.23,5.919,1.806,8.819c-1.823,1.318,3.316,6.655,3.053,8.127
      C150.19,246.059,155.42,253.518,155.224,254.611C155.226,254.612,155.324,254.051,155.224,254.611z"/>
    <path fill-rule="evenodd" clip-rule="evenodd" d="M176.539,223.402c-0.391,0.607-0.194,0.824,0.587,0.651
      c-0.005-0.02,0.176-0.612,0.187-0.616c-0.086,0.164,0.086,0.182,0.516,0.056c-0.523,1.063-1.486,1.663-0.88,2.794
      c0.61,1.14,2.066,4.35,0.779,5.101c-1.882,1.099,2.374,1.188,2.836,1.132c0.318-0.523,1.872-1.314,2.499-1.482
      c0.465,0.945,0.129,5.285,1.681,5.873c-0.952,1.164,3.31,6.466,3.395,7.9c-1.185,1.451,7.978-0.838,7.519,1.708
      c3.476,1.566,10.945,2.344,15.457,1.076c3.618-1.017,1.451-13.117-1.658-12.41c-0.417-0.556-7.669-0.219-8.571-0.03
      c-0.242-0.292-7.178-2.588-7.635-2.543c-0.629-0.651-3.005-1.879-3.927-1.788c-0.491-0.503-1.087-2.406-1.375-2.498
      c1.035-0.309,5.549-1.015,6.024-1.872c4.372-1.226,4.311-3.92,3.334-8.461c-0.372-1.728-0.602-3.375-1.846-4.749
      c-1.911-0.171-3.271,1.079-4.983,1.271c-0.328,0.656-4.435,1.496-5.209,1.722c-0.383-1.663,0.227-5.774,2.081-5.995
      c2.389-3.943,3.198-3.636,7.858-4.955c1.775,0.12,7.494-0.486,7.754-2.234c0.942,0.231-0.572-8.102-0.626-8.398
      c-0.872-4.831-9.998-1.408-13.885-0.972c-0.661,1.412-4.188,1.628-4.509,3.819c-0.719,0.156-2.567,2.589-2.682,3.394
      c-2.34,0.506-0.651,6.145-1.866,7.464c0.562,2.436-1.269,7.235,0.816,9.043c-0.276,1-1.229,1.545-1.405,2.313
      C177.457,220.089,174.214,221.655,176.539,223.402C176.41,223.527,176.18,223.132,176.539,223.402z"/>
    <path fill-rule="evenodd" clip-rule="evenodd" d="M212.69,209.384c-0.394,0.612-0.196,0.831,0.591,0.656
      c-0.1-0.436,0.654-1.096,0.93-1.172c-0.182,1.152-0.969,1.504-1.186,2.425c-0.213,0.676,1.106,2.106,0.75,3.24
      c0.604,0.565,0.432,3.562,0.298,4.305c2.566,1.158,6.863-4.588,7.61-6.375c0.496,0.761-0.981,2.788,0.706,3.483
      c-0.153,0.735,1.661,2.29,0.418,3.638c0.523,2.339-0.852,10.755,1.595,11.689c-0.139,0.271,0.036,2.518,0.209,2.75
      c-1.268,0.859,0.247,1.88,1.424,1.603c1.64-0.388,1.624-2.525,2.191-2.665c-0.813-2.472,1.688-5.928,0.627-8.327
      c1.771,0.827,2.358,4.374,4.107,5.073c-0.546,3.002,8.558,5.16,8.443,5.82c2.412,1.089,4.988,1.547,7.925,1.194
      c1.771-2.947,0.735-9.913-1.576-12.474c-4.103-0.364-9.044-2.503-11.909-5.292c-0.246-3.545-6.652-5.68-6.652-9.456
      c0-1.442-0.531-4.427-0.148-5.812c1.966-0.573,3.028-4.487,5.04-4.728c2.038-3.383,8.522-6.038,9.585-9.723
      c5.422-1.582,4.631-12.632,1.62-15.96c-5.173-0.463-6.241,7.854-10.405,8.321c-0.744,1.546-6.676,8.229-8.31,8.46
      c-0.775-2.853-1.55-3.58-3.608-5.86c-1.475-0.13-2.661-2.333-4.152-2.238c-0.804-0.734-1.773-1.054-2.947-0.705
      c-3.877,1.152,0.252,1.99-1.211,3.419c0.536,0.292,0.86,0.189,0.972-0.31c0.345,0.252-0.761,1.934-0.384,2.638
      c1.439,2.687,0.639,3.343,0.377,5.786c2.01,0.617,3.51,2.926,5.287,3.667C220.479,198.587,209.645,207.096,212.69,209.384
      C212.561,209.51,212.327,209.111,212.69,209.384z M221.828,212.011C221.856,212.002,221.783,212.211,221.828,212.011
      C221.833,212.009,221.822,212.037,221.828,212.011z M228.787,224.526C228.873,224.437,228.906,224.672,228.787,224.526
      C228.803,224.51,228.809,224.553,228.787,224.526z"/>
    <path fill-rule="evenodd" clip-rule="evenodd" d="M279.748,213.078c-0.26,1.457,2.188,10.043,2.104,10.022
      c-0.746,0.609-0.656,1.627,0.467,1.742c-1.375,0.781,3.625,7.789,3.766,9.014c-0.746,0.844,1.819,3.244,1.653,4.175
      c4.562,2.061,3.321-5.501,3.039-7.352c-0.297-1.942-6.292-17.015-5.277-17.128c0.659-1.104,6.938-4.98,8.233-5.138
      c1.575-2.588,7.879-2.653,9.01-4.974c1.621-0.479,8.264-2.36,8.967-3.755c3.34-0.985,6.104-3.971,9.344-4.518
      c0.457,3.931,8.816,10.775,11.773,10.582c0.271,0.817,4.72,3.148,5.86,3.008c-0.075,0.896,3.31-0.729,3.51-2.02
      c0.187-1.201-1.495-7.896-0.97-8.045c-1.172-0.726-0.901-2.923-3.02-2.751c-0.969-0.935-2.354-1.073-3.264-2.082
      c-2.045-0.181-3.8-3.036-5.727-3.181c2.316-0.673,3.145-5.332,5.07-5.653c-0.042-0.104,1.745-2.504,1.963-2.576
      c-0.04-0.121,0.831-1.206,1.083-1.235c0.807-1.339,2.518,0.467,2.856-1.821c0.753,0.185,0.4-2.67,0.382-2.79
      c-0.312-2.045-0.194-7.58-1.771-9.266c0.932,0.2-1.866-2.403-1.217-1.685c-1.811-0.163-2.833,1.374-3.72,1.472
      c-0.251,0.524-1.373,2.528-1.949,2.592c-1.071,2.222-4.424,4.411-4.767,6.828c-0.32,0.066-6.043,3.909-6.088,4.079
      c-2.416-0.968-4.6-6.641-6.415-8.583c-2.532-0.534-4.248-8.54-6.843-8.54c-1.356,0-8.178-4.36-9.104-5.39
      c-1.2-0.107-3.934-1.648-4.754-2.56c-0.653-0.058-9.964,0.458-6.189,3.215c-5.018,1.437-0.777,10.593-3.634,13.688
      c0.453,2.005-0.963,12.156-2.406,13.721c0.436,1.876-1.883,4.822-1.144,6.578c-0.239,1.566,0.215,6.652-0.743,7.689
      C280.449,203.119,277.643,211.339,279.748,213.078C279.682,213.45,279.523,212.892,279.748,213.078z M292.773,168.474
      c1.966,0.888,15.018,6.074,14.519,8.869c0.923,0.413,5.86,6.382,5.929,7.485c-4.377,1.044-8.514,5.269-13.254,5.803
      c-0.449,0.933-6.002,2.978-7.149,3.105c-0.465,0.972-4.755,4.101-5.8,4.352c0.177-0.968,1.1-8.85,1.856-9.037
      c-0.726-2.186,2.431-6.221,1.146-8.246c0.862-0.748,0.062-6.334,1.059-6.583c-0.332-1.008,0.229-2.759,0.396-3.739
      C291.631,169.573,292.932,167.587,292.773,168.474C293.088,168.616,292.801,168.32,292.773,168.474z M289.527,158.378
      C289.388,159.262,288.977,158.53,289.527,158.378C289.5,158.551,289.379,158.419,289.527,158.378z"/>
    <path fill-rule="evenodd" clip-rule="evenodd" d="M349.676,200.988c-0.869,0.838,0.791,0.764,1.15,0.77
      c-0.223,1.851-1.292,0.635-0.113,3.371c0.912,2.117,0.002,2.968-0.213,4.96c2.734,0.838,6.001,1.434,9.62,0.638
      c2.446,0.532,13.673-2.613,14.932-4.873c2.727-0.822,4.322-6.895,6.671-7.183c0.326-0.543,0.938-2.046,1.521-2.192
      c-0.184-0.568,0.652-2.406,0.486-3.494c-0.271-1.775-0.167-6.663-1.439-8.021c-2.683-0.569-6.36,0.779-6.811,3.943
      c-1.952,0.412-2.373,4.241-4.581,4.487c-1.22,2.555-9.286,3.614-12.087,4.211c0.305,0.335-4.913-0.367-3.547-0.688
      c-0.379-1.146,0.572-3.197-0.056-4.166c-0.062-2.528-0.019-5.127-0.019-7.664c0-3.088,0.286-6.745,0.668-9.706
      c0.897,0.22-0.742-8.709-0.561-8.761c-0.252-0.51-0.424-1.046-0.517-1.607c-1.606-0.339-1.889-0.41-3.82-0.193
      c-0.284,0.591-1.226,2.167-0.765,2.84c-0.332,2.273,0.643,9.775-0.802,11.337c0.348,1.523,0.873,9.464-0.148,10.575
      C349.76,191.826,348.907,200.413,349.676,200.988C349.539,201.12,349.295,200.703,349.676,200.988z M350.307,201.482
      c-0.004,0.037-0.008,0.073-0.017,0.106C350.29,201.548,350.295,201.512,350.307,201.482z"/>
    <path fill-rule="evenodd" clip-rule="evenodd" d="M357.746,152.982c-0.391,0.607-0.194,0.824,0.587,0.651
      c-0.084-0.361,0.237-0.583,0.411-0.752c-0.346-0.256,0.447,7.937,0.19,8.087c-1.912,1.116,3.884,1.688,4.793,1.494
      c1.063,0.28,6.038-1.051,5.681,0.959c1.459,0.659,12.106,7.771,11.66,10.254c1.496,0.677,10.783,9.721,10.619,10.639
      c1.165,0.525,2.289,2.792,3.421,2.908c0.088,0.634,4.856,2.451,5.51,3.235c-1.796,1.17,2.395,2.604,3.508,0.106
      c1.651-1.798,1.935-2.78,1.076-5.817c0.173-0.951,0.537-8.855-0.011-9.021c0-3.09-0.383-8.143,0.228-11.469
      c-0.012,0.626,3.841,4.991,4.508,5.167c-0.311,1.115,2.259,2.156,1.722,3.856c0.999,0.922,0.088,1.314-0.061,2.702
      c0.616,0.189-1.004,2.603,1.896,1.917c1.883-0.445,3.196-1.298,4.405-2.443c1.146-1.086-1.917-9.19,0.304-9.741
      c-1.244-3.767,3.798-8.991,3.095-12.46c0.48-0.018,2.356-5.419,2.218-6.089c0.423-0.016,1.204-2.589,1.109-3.045
      c0.206-0.008,3.135-2.224,3.84-2.308c0.313-0.516,0.939-2.035,1.493-2.182c-0.149-0.479,0.389-10.134-0.391-9.913
      c-0.268-0.166-1.162-2.14-1.471-2.481c-1.59-0.142-1.637,0.744-2.564-0.245c-2.271-0.482-4.061-1.153-4.625,1.817
      c-1.022,0.135-1.201,5.991-2.278,6.111c-0.997,2.08-4.728,9.639-4.157,11.776c-0.65,2.979-0.974,7.902-2.557,10.475
      c-0.455-1.257-2.722-3.342-3.657-4.338c-0.026-0.005-3.644-2.052-3.232-1.614c-0.899-0.19-7.151-0.192-3.779,2.27
      c-4.726,1.444,0.661,8.988-1.753,11.599c0.759,3.279-1.603,7.49-0.7,10.648c-2.044,0.1-5.941-4.073-7.189-5.565
      c-0.665-2.636-7.282-7.41-9.184-9.443c-1.908-0.406-2.825-4.584-4.938-4.739c-1.745-1.309-3.754-2.439-5.194-4.036
      c-0.68-0.062-2.083-1.422-2.567-1.957c-0.838-0.075-4.548,0.364-5.111-0.27C362.8,149.564,354.102,150.243,357.746,152.982
      C357.617,153.107,357.387,152.712,357.746,152.982z M368.706,160.943C368.871,160.984,368.648,161.337,368.706,160.943
      C368.752,160.955,368.696,161.011,368.706,160.943z M403.037,153.089C402.986,153.434,402.564,153.219,403.037,153.089
      C403.025,153.168,402.926,153.12,403.037,153.089z"/>
    <path fill-rule="evenodd" clip-rule="evenodd" d="M431.98,168.71c-0.823,0.798,0.438,0.635,0.806,0.254
      c-0.912,2.208,1.188,4.07,0.675,6.227c-0.288,0.758-0.615,1.393-0.697,2.156c1.301,0.4-0.422,1.391,2.02,0.814
      c-7.307,1.728,8.46-2.173,1.59-1.314c0.693-1.127,2.628-11.497,3.344-11.676c-2.379-7.216,12.066-13.059,17.572-14.629
      c0.581,2.324,2.606,4.66,2.994,6.973c-0.787,0.876,3.87,4.163,4.391,0.628c0.982,0.24-0.596-8.435-0.651-8.742
      c-0.361-2.009-1.319-3.931-1.942-6.135c0.43-2.362-0.474-7.901-3.746-6.895c-0.021-0.953-2.498-7.451-3.262-7.785
      c-0.079-2.275-0.73-1.208,0.143-2.839c0.744,0.056,4.184,1.075,3.972,2.266c1.013,0.456,7.32,4.171,7.13,5.238
      c4.157,1.881,4.414,7.559,10.211,6.025c0.529,0.609,1.451,5.135,1.354,6.039c1.699,0.522,0.8,4.975,2.499,5.825
      c-0.216,1.175,3.35,1.558,3.645-0.467c0.759,0.187,0.051-6.009-0.048-6.465c-0.422-1.963-1.232-6.526-2.717-8.112
      c-1.295-0.271,2.713-6.314,3.708-6.559c-0.121-0.364,2.417-4.426,2.91-4.547c-0.194-0.597,6.346-13.417,6.386-13.427
      c-0.871-2.627-0.565-7.274-1.043-9.923c-0.57-3.167-1.456-2.609-4.482-2.27c-0.181,0.376-0.472,2.989-0.94,3.042
      c-0.403,0.842-1.707,5.901-2.475,5.986c-0.956,1.986-3.111,4.17-3.412,6.221c-0.591,0.112-6.784,8.472-6.894,9.221
      c-2.72,0.609-0.928,2.216-3.659-0.709c-1.598-0.337-2.458-3.197-4.134-3.197c-2.408-1.76-8.032-7.635-11.076-6.711
      c-1.164-1.205-4.111,0.524-5.59,0.69c-0.742,1.528-1.411-1.33-1.479-1.403c0.166,0.035-2.765-2.362-2.725-2.319
      c-0.713-0.151-6.948-0.349-3.968,2.089c-5.035,1.224-0.861,7.725-3.487,10.571c0.341,1.521-0.401,9.568-1.47,10.722
      c0.354,1.57-0.407,9.373-1.572,10.631c0.146,0.646-0.37,4.263-1.05,4.339c-0.393,0.819-1.8,0.665-1.986,1.556
      c-2.61,0.716,0.422,2.312-0.519,3.231c1.105,0.462,0.533-0.53,1.497-0.519C433.625,153.166,430.639,167.706,431.98,168.71
      C431.852,168.835,431.619,168.44,431.98,168.71z M446.061,123.063c1.222,0.379,4.832,11.049,5.141,12.557
      c-0.659,0.615,1.038,2.451,1.154,3.029c-0.463,0.43-2.145,0.791-2.289,1.295c-2.367,0.674-4.648,2.762-6.809,3.164
      c-0.869-2.392,2.72-7.264,1.341-9.627C446.025,132.223,445.76,125.067,446.061,123.063
      C446.303,123.139,446.037,123.22,446.061,123.063z M446.014,122.784C445.834,122.46,446.237,122.117,446.014,122.784
      C445.983,122.729,446.068,122.621,446.014,122.784z M432.648,168.79C432.74,168.774,433.024,168.991,432.648,168.79
      C432.704,168.78,432.798,168.87,432.648,168.79z M444.389,112.046C444.165,113.466,443.445,112.308,444.389,112.046
      C444.344,112.332,444.126,112.119,444.389,112.046z"/>
    <path fill-rule="evenodd" clip-rule="evenodd" d="M491.305,127.309c0.666,2.917,2.611,5.523,2.701,8.875
      c-0.75,2.063,0.229,1.195,0.059,2.793c0.178,0.055,2.225,3.153,3.494,0.931c2.324-0.668,4.791-1.809,7.223-2.104
      c0.45-0.765,6.144-3.169,7.17-3.293c0.325-0.541,2.197-1.39,2.889-1.474c0.09-0.149,2.215-2.715,2.287-2.724
      c0.866-1.434,2.826-5.722,2.285-7.377c2.135-0.419-0.97-12.286-1.003-13.596c-0.052-2.084-6.337-3.485-8.36-3.422
      c1.134-2.203,6.814-4.972,9.565-5.304c1.303-2.101,5.907-0.57,7.842-0.887c6.03,2.28,5.892-3.516,5.028-7.53
      c-0.599-2.788-1.287-5.656-4.919-4.958c-0.845-1.076-4.061,0.454-4.985-0.594c-4.694-0.42-8.025,3.421-12.262,3.891
      c-0.616,1.286-6.969,6.04-8.475,6.206c-0.436,0.909-1.116,1.77-1.276,2.771c-0.134,0.024-2.654,2.275-2.656,2.288
      c-0.152,1.031,0.927,4.475,1.374,5.231c0.086,2.473,0.897,4.295,0.66,6.423c0.032,0.01,1.748,2.254,1.727,2.533
      c-0.807,2.435,7.668,3.218,10.377,3.391c-0.194,0.214-0.156,0.435,0.114,0.664c-3.666,1.097-6.521,3.859-10.054,4.89
      c-1.294,0.267-2.513,0.647-3.756,1.023C495.074,126.622,494.159,124.215,491.305,127.309
      C491.43,127.856,491.643,126.942,491.305,127.309z M516.232,110.357C516.215,110.318,516.252,110.264,516.232,110.357
      C516.228,110.346,516.236,110.339,516.232,110.357z"/>
    <path fill-rule="evenodd" clip-rule="evenodd" d="M208.686,309.704c-1.576-4.779-0.076-8.458-3.353-11.955
      c-1.67-0.352-4.078-4.208-5.206-5.414c-2.681-0.568-7.83-8.126-9.871-10.284c-0.171-0.036-0.019,0.448-0.147,0.448
      c-0.274-1.261-2.464-1.847-2.866-3.054c2.223-0.674,4.066-3.159,6.36-3.438c0.248-0.41,2.443-2.46,2.713-2.527
      c-0.874-2.643,0.487-6.234-1.446-8.619c0.768-0.007,0.057-1.498,0.058-1.459c-0.068-2.695-2.872-1.28-4.346-1.114
      c-0.479,1.003-2.632,1.085-2.878,2.133c-1.137,0.303-6.25,2.866-6.48,3.937c-2.209,0.585-12.436,6.229-12.842,8.277
      c-1.85,0.486-13.191,8.288-11.383,9.743c-2.381,0.676-2.507,2.951-0.567,3.616c-0.106-0.459,0.516-1.08,0.952-1.201
      c-0.186,1.178-1.006,1.542-1.215,2.484c-0.244,0.708,1.139,2.14,0.769,3.319c1.341,1.252-1.773,5.572,2.296,4.336
      c-1.604,3.121,5.309,7.183,8.467,6.825c0.176,2.042,3.484-1.283,3.439-1.272c-0.606-1.842-0.096-4.144-0.511-6.069
      c-0.493-2.294-1.341-5.839-4.44-5.524c0.696-1.614,9.543-7.074,11.353-7.491c-1.91,6.088,8.279,1.493,7.489,5.901
      c2.467,1.12,4.285,5.783,6.831,6.283c0.856,0.369,6.986,7.236,6.867,7.9c0.601,0.271,3.854,3.199,3.728,3.9
      c1.009,0.454,1.282,1.777,2.584,1.653C205.268,313.23,208.693,309.702,208.686,309.704
      C208.501,309.145,208.497,309.751,208.686,309.704z M183.748,287.69C183.869,287.72,183.622,288.56,183.748,287.69
      C183.773,287.696,183.729,287.818,183.748,287.69z"/>
    <path fill-rule="evenodd" clip-rule="evenodd" d="M245.289,303.254c3.496-1.064,4.922-3.56,3.846-7.363
      c0.383-2.109-0.536-5.536-1.93-7.077c-1.041-0.093-4.752,0.941-5.005,2.015c-2.099,0.569-5.629-13.362-0.098-14.023
      c0.539-0.895,4.421-7.096,5.545-7.377c-1.088-3.305,1.063-9.093-1.967-12.436c-4.82-0.433-3.687,5.118-6.689,5.646
      c-0.266-1.743-0.231-6.534-1.396-7.775c-1.928-0.408-6.432,0.59-4.263,3.789c-0.304,2.049,0.788,8.887-0.325,10.171
      c-2.807,0.468-5.161,4.442-8.219,4.784c-0.595,1.23-3.632,1.298-3.887,2.691c-1.4,0.403-3.307,4.201-4.23,4.201
      c-1.617,0-3.62-12.164-4.919-13.547c-0.426-0.09-0.4-2.206-0.763-2.433c-0.272-5.37-7.416-2.185-4.41,0.361
      c-0.27,0.823,0.869,4.246,1.476,5.378c-0.894,1.006,0.541,4.644,0.673,5.354c-1.029,0.767,2.18,6.211,2.383,7.255
      c-0.375,0.322,0.622,2.536,0.498,3.369c-2.164,0.481-1.746,3.666-0.172,4.206c-0.099-0.423,0.693-1.167,0.982-1.24
      c-0.102,0.644-1.459,2.46-1.459,2.467c-0.264,2.08,2.546,3.545,1.245,5.339c0.611,1.252-0.943,1.387-0.072,2.153
      c1.712,1.504,2.22-0.27,3.682-0.47c-0.266,0.303-0.256,0.469,0.028,0.496c-1.943,1.811,1.272,1.625,2.635,1.432
      c0.341,1.807,1.4,4.253,3.914,3.99c0.074-0.387,5.072,0.298,5.408-2.011c0.966,0.237-0.583-8.283-0.639-8.587
      c-0.591-3.245-2.326-1.748-2.786-5.013c0.573-0.151,3.253-1.611,3.503-2.203c2.445-0.747,4.303-3.091,6.621-3.805
      c0.603,0.739,0.841,4.521,0.744,5.386c0.995,0.314,1.473,6.092,1.724,6.798c-0.683,0.406,0.373,3.339,0.294,4.086
      c0.477,0.146,1.832,2.129,1.781,2.551C238.022,305.609,243.589,307.613,245.289,303.254
      C245.559,303.172,245.235,303.392,245.289,303.254z M215.921,298.514C215.968,298.572,215.781,298.782,215.921,298.514
      C215.931,298.526,215.9,298.554,215.921,298.514z"/>
    <path fill-rule="evenodd" clip-rule="evenodd" d="M251.387,258.868c-0.332,1.991-0.571,9.762,0.748,11.238
      c-0.27,1.396-0.114,4.997,1.039,5.955c0.104,1.428-1.912,3.588,0.494,4.413c0.019,0.081,0.116-1.238,0.51-0.488
      c-3.081,1.754,2.543,6.42,0.094,7.85c-1.613,0.941,2.891,1.646,3.228,1.934c0.459,0.394,0.844,2.365,1.347,2.521
      c0.686,1.011-1.275,3.342,2.141,2.937c-0.03,0.614,0.724,1.387,1.168,1.77c0.453,0.389,1.729,3.033,1.678,3.487
      c2.995,0.918,4.922,0.046,3.96-3.95c2.245,0.438,11.979,2.278,12.399-0.57c-0.142-0.035,1.04-12.215-2.937-11.418
      c-0.972-1.201-11.449-1.524-13.226-1.546c0.623-1.928,5.842-2.227,6.618-4.256c1.43-0.434,2.345-2.346,3.411-2.609
      c-0.384-1.162-1.004-8.692-0.988-8.697c-0.259-0.161-1.116-2.058-1.415-2.387c-1.671-0.15-2.629,0.992-3.904,1.135
      c-0.36,0.747-2.755,2.208-3.653,2.31c-1.025,2.129-5.62,2.598-6.498,4.792c-0.152-1.216-1.516-7.496,0.332-7.958
      c-0.268-0.806,1.395-2.419,1.594-3.295c0.799-0.184,3.688-5.567,3.739-6.428c0.285-1.14,1.503-1.823,1.7-3.177
      c0.785,0.192,0.042-6.69-0.257-7.515c-0.432-1.192-0.583-1.463-0.612-2.664c-0.063-2.45-4.228-2.098-4.516-0.215
      C258.155,242.292,249.816,257.274,251.387,258.868C251.325,259.237,251.226,258.705,251.387,258.868z"/>
    <path fill-rule="evenodd" clip-rule="evenodd" d="M341.025,233.469c-1.875-2.109-8.976,2.01-4.288,3.615
      c-0.051-0.219,0.179-0.614,0.302-0.691c0.265,0.193-0.432,2.864,0.115,4.134c0.374,0.868,1.259,3.66,0.216,4.27
      c-1.448,0.846,1.288,1.729,1.294,1.696c2.507,1.133,9.336,0.51,9.859,3.603c-0.91,1.688,5.233,7.375,5.547,9.265
      c-0.729,1.351,2.729,8.6,3.389,10.044c-1.016,0.772-21.806-10.558-23.414-12.334c-3.918-0.35-7.348-7.068-11.012-7.086
      c-3.488-2.719-8.082-4.971-11.05-8.244c-3.974-0.35-7.736-8.711-12.095-7.417c-6.404,1.902-0.88,8.917-1.316,13.155
      c0.603,0.185,2.477,11.323,2.36,12.405c1.651,0.506,2.726,11.201,3.514,12.986c-2.153,1.377,8.634,21.819,8.292,25.063
      c0.818,0.251,0.899,2.454,0.834,3.064c1.343,0.412-0.439,1.435,2.082,0.839c1.71-0.404,0.876-1.322,2.115-1.628
      c-0.941-2.855-0.667-6.73-1.322-9.612c-0.037-1.453-1.012-6.138-2.035-7.229c-2.015-0.429-2.741-10.723-4.289-12.371
      c-0.916-0.189-2.828-7.783-3.038-8.989c-0.369-2.248-0.894-3.672-0.894-6.002c0-1.382-2-3.932-2-5.272
      c0.212,0.042,0.291-0.004,0.239-0.138c3.524,0.168,6.772,7.629,10.61,7.664c1.004,1.846,10.856,6.334,10.531,8.123
      c2.248,1.015,23.598,12.365,23.446,13.207c3.402,1.534,8.581,6.083,12.198,6.263c0.607,2.494,3.597-1.27,3.954-1.358
      c-0.493-1.501-0.154-3.333-0.492-4.911c0.289-2.524-0.812-5.081-1.129-7.512c0.865-0.354-2.88-11.558-2.913-12.603
      c-0.121,0.053-2.489-9.466-3.094-10.111c-1.563-0.322-3.543-8.434-5.403-9.594C352.034,235.206,344.669,232.688,341.025,233.469
      C341.006,233.447,341.355,233.398,341.025,233.469z"/>
    <path fill-rule="evenodd" clip-rule="evenodd" d="M430.432,200.9c-0.365,0.054-4.075,6.341-4.138,6.76
      c-2.28,0.419-3.169,6.999-5.3,7.238c-0.508,1.056-3.539,7.569-4.478,7.673c-0.332,0.694-1.306,3.833-2.006,3.91
      c-1.029,2.146-1.515,0.033-3.509,0.266c-0.854-1.025-6.802-2.92-8.176-2.757c-1.774-2.131-6.982-0.532-8.779-2.523
      c-3.425-0.309-6.642-2.507-10.338-1.587c-0.915-0.046-4.628,1.008-5.331,0.236c-2.761-0.247-6.645,2.376-3.032,3.615
      c-0.063-0.274,0.187-0.576,0.329-0.677c0.208,0.151-0.429,2.81,0.07,3.968c0.624,1.449-0.794,5.922,1.491,5.605
      c0.099-0.827,12.258,1.485,13.521,1.364c0.001-0.054,16.988,5.612,17.673,5.527c-0.914,1.905-2.466,8.572-4.553,8.805
      c-0.438,0.911-3.317,9.168-4.104,9.255c-0.72,1.493-1.887,7.921-4.027,5.574c-1.038-0.093-5.349,1.727-6.315,0.657
      c-2.889-0.257-6.646,2.53-3.055,3.761c-0.076-0.332,0.217-0.59,0.382-0.73c1.555,1.111-1.914,1.564-2.419,1.647
      c-0.508-0.639-2.641-1.554-3.479-2.434c-0.148-0.964-2.511-2.811-3.193-3.536c-2.972-0.624,0.113-2.75,0.305-3.225
      c1.735-0.523,3.116-2.842,4.403-3.162c-0.91-2.76,0.426-8.32-1.522-10.395c-4.968-1.053-6.364,2.761-10.527,3.802
      c-0.024-0.642-2.234-6.433-2.708-6.568c-0.044-1.198-0.368-2.784-1.027-3.882c2.191-0.556-4.268-3.838-2.633-4.243
      c-0.257-0.774,2.43-7.072,2.6-7.114c-0.889-2.692-1.255-7.011-1.319-9.578c-0.071-2.784-5.144-1.671-4.564,0.471
      c-0.517,2.88-2.371,5.141-2.811,8.103c-0.231,1.562,0.334,9.281,1.397,10.563c-0.271,1.834,0.876,2.381,0.722,3.961
      c1.08,0.342,0.636,3.732,0.584,4.213c-0.904-0.274,2.049,5.787,3.334,2.574c0.188,0.067-0.08,3.31,0.272,3.419
      c-2.312,0.469-2.079,2.96-0.397,3.536c-0.068-0.297,0.197-0.578,0.348-0.693c-0.076,0.749-0.234,0.899-0.604,1.948
      c-0.428,1.354,2.089,3.449,0.987,4.972c0.209,0.427,0.133,2.202,0.063,2.592c1.179,0.532,2.963-0.36,4.098-0.708
      c-0.963,1.925,4.843,6.567,4.594,8.828c0.376,0.116,5.995,7.069,5.962,7.253c2.592,1.172,3.719,3.828,7.97,3.443
      c-0.392,1.857,5.856-1.464,5.739-1.45c0.975-1.62,2.771-3.336,4.539-3.765c-1.305,0.769,1.023,1.613,1.631,1.47
      c1.557-0.368,0.994-1.326,2.071-1.595c-0.271-0.823,0.76-1.734,0.886-2.517c0.799-0.152,1.753-3.27,2.112-3.981
      c2.081-0.353,2.954-10.291,4.979-10.291c1.508,0,3.878-6.068,4.632-7.674c1.74-0.174,3.127-8.429,4.863-9.731
      c0.012,0.724,12.613,5.257,14.26,5.152c-0.012,0.322,6.542,1.823,7.363,1.758c-0.051,0.464,1.134-0.158,1.056,0.302
      c2.179,0.983,0.536,0.421,0.362,2.048c2.476,0.761,3.846-0.11,6.752-0.462c1.082-1.799,1.049-3.425,0.383-5.781
      c0.197-1.083-0.241-5.866-1.111-6.794c-0.705-0.149-1.409-1.919-1.917-2.482c-0.605-0.054-1.715,0.123-2.141-0.349
      c-1.317-0.117-2.703-0.854-4.011-0.665c-2.418-3.058-11.84-0.922-14.404-4.208c0.791-0.33,8.173-10.918,7.991-11.724
      c1.619-0.361,3.966-6.212,4.155-7.337c0.67-1.383,1.34-2.596,1.953-4.051c2.426-0.627,4.177-3.23,4.353-5.765
      c1.349,0.024,2.583,0.36,4.591,0.117c0.237-0.387,2.615-1.171,3.107-1.231c0.783-1.293,4.523-0.774,5.182-2.074
      c0.502,0.208,4.014,6.689,3.986,7.311c-0.583,1.535,3.922,4.823,3.884,6.533c-0.477,1.192,3.969,6.414,4.171,7.677
      c-1.049,1.342,4.754,9.193,5.048,10.87c-0.422,0.602,1.864,4.07,2.353,4.499c4.678,4.104,3.781-5.836,3.406-7.698
      c-0.494-2.45-2.438-10.124-4.721-11.295c-0.039-2.124-3.439-9.013-4.877-10.546c-1.224-0.26-5.359-8.713-5.916-10.12
      c2.938-0.89,6.482-2.032,6.933-5.211c0.909,0.223-0.813-8.846-0.836-9.785c-0.088-3.51-5.817-0.326-6.249,0.931
      c-3.605,1.029-7.304,3.71-11.025,4.126c-1.432,2.953-10.999,2.125-11.812,5.049c-0.755-0.053-0.754-0.583-1.48-0.558
      c-1.12-1.196-2.716-0.01-4.131,0.148c-0.51,1.06-1.603,2.144-2.937,2.294c-0.623,1.3-0.376,2.821-0.572,4.181
      C431.395,198.014,430.504,200.397,430.432,200.9C430.359,200.911,430.475,200.602,430.432,200.9z M442.271,193.335
      c0.832-0.135,0.348,0.257,0.401,0.936C442.137,193.974,442.546,193.482,442.271,193.335
      C442.377,193.318,442.574,193.498,442.271,193.335z"/>
    <path fill-rule="evenodd" clip-rule="evenodd" d="M315.407,371.675c1.11-2.414-0.911-14.303-5.563-14.479
      c-2.182-1.673-5.21-3.492-6.972-5.583c-1.608-3.508-8.609-6.669-11.417-9.431c3.587-0.958,6.275-4.831,9.907-5.913
      c4.685,1.581,4.317-4.233,3.628-6.664c0.463-2.548-0.977-10.426-4.802-9.289c-4.607,1.369-8.409,6.857-12.755,7.346
      c-0.481,0.997-4.267,3.446-5.438,3.578c-0.672,1.406-3.163-3.011-3.774-3.664c-2.826-0.593-5.507-7.81-6.934-10.076
      c-0.323-0.843-0.12-2.563-0.73-3.212c-0.624-0.132-5.678-1.108-4.078,1.571c-0.116,0.79,0.863,3.67,0.736,3.809
      c0.161,0.706,1.705,3.86,1.41,4.653c-1.886,1.363,0.787,4.337,0.951,6.019c-1.216,1.439,4.132,4.876,3.842,6.489
      c0.355,0.178-0.945-0.335,0.3,0.206c-0.325,1.322-8.597,5.405-10.17,5.583c-0.634,1.307-8.976,5.72-10.454,5.887
      c-1.885,3.904-7.396,2.377-9.853-0.342c-2.299-0.203-8.751-4.056-10.325-5.792c-4.475-0.4-13.183-9.889-16.406-13.322
      c-0.212-0.044-0.049,0.451-0.157,0.451c-0.764-4.054-8.59-3.913-5.452-0.15c-0.041,0.28,0.7,0.767,0.441,1.542
      c-0.211,0.603-1.373,0.978-2.632,1.119c-0.585,1.215,0.775,2.561,0.267,3.058c0.537,0.305,0.829,0.226,0.876-0.237
      c0.591,0.448-0.786,1.636-0.287,2.565c1.44,2.686,0.638,3.343,0.376,5.786c3.079,0.943,3.904,3.008,5.773-0.863
      c0.454,0.045,5.146,4.777,5.093,5.073c2.046,0.922,4.188,5.121,6.382,5.252c0.717,0.739,6.408,4.289,6.351,4.617
      c1.08,0.487,2.561,1.858,3.743,1.815c0.108,0.394,1.169,1.088,1.727,1.103c-0.528,1.488,0.063,2.614,1.082,2.964
      c-0.105-0.451,0.637-1.086,0.925-1.167c-0.247,1.581-1.82,2.073-1.104,3.41c1.449,2.701,0.625,3.404,0.375,5.763
      c2.257,0.692,6.857-0.917,7.426-4.297c0.697-0.208,7.021,0.313,6.73,1.905c0.941,0.424,7.988,2.958,7.867,3.66
      c1.066,0.481,2.754,1.599,3.923,1.557c0.074,0.65-0.566,3.297,1.651,2.913c-0.009,0.562,4.059,2.1,4.923,1.896
      c2.09-0.494,1.652-2.595,2.967-2.922c-1.972-5.952-0.111-9.797-4.285-14.422c-1.679-0.149-6.726-2.195-7.814-3.467
      c6.793-0.97,12.382-8.36,18.494-10.118c0.094,3.229,8.748,6.423,8.318,8.86c3.107,1.402,6.439,7.857,9.785,8.069
      c1.146,1.671,6.139,6.651,8.115,6.959c-0.067,1.072-0.863,3.106-0.445,3.473c0.32,0.282,3.172,0.975,3.041,1.705
      C313.674,378.133,316.912,372.978,315.407,371.675C315.861,370.688,315.938,372.134,315.407,371.675z"/>
    <path fill-rule="evenodd" clip-rule="evenodd" d="M319.55,354.178c4.229,1.907,6.231,8.752,11.481,8.376
      c0.338,1.678,6.612,2.424,8.496,2.013c3.979,0.922,10.383,0.979,9.621-4.015c-0.63-4.125,8.732-6.341,6.906-10.435
      c0.533-0.455,1.431-5.646,1.096-6.391c1.941-1.658-0.781-9.744-1.016-11.797c0.833-2.498-5.193-12.893-8.062-12.624
      c-3.689-4.104-9.481-2.584-14.455-2.031c-1.492,3.197-11.93,1.104-12.583,5.469c-1.121,0.29-4.384,3.698-4.557,4.881
      c-3.75,0.834-0.697,6.174-2.072,7.665c0.785,3.456,2.103,7.646,1.802,10.458c0.35,0.108,1.21,4.479,1.101,5.087
      C317.144,350.76,319.599,353.906,319.55,354.178C319.679,354.236,319.625,353.761,319.55,354.178z M338.52,329.813
      c1.721-0.502,10.759,2.656,10.617,3.958c3.035,0.936,1.268,9.422-1.93,9.782c-2.275,4.717-6.239,3.448-10.887,4.356
      c-0.189-0.235-2.341-0.139-2.758-0.111c-0.014-0.635-0.557-4.65-1.137-5.268c-2.396-0.508-6.505,0.521-7.076,3.412
      c-0.841-1.98-3.582-3.897-4.986-5.56c0.874-0.244,3.354-3.062,3.609-3.995c0.15-0.042,4.187-3.028,4.28-3.208
      C330.018,332.665,337.699,331.277,338.52,329.813C338.883,329.707,338.506,329.837,338.52,329.813z"/>
    <path fill-rule="evenodd" clip-rule="evenodd" d="M367.938,333.317c3.896,1.683,11.719,1.663,16.612,2.208
      c3.326,0.371,7.725,2.15,11.184,1.831c-0.166,0.954,7.214,0.015,7.208,0.016c1.72-2.845,0.253-7.218-0.294-10.25
      c-0.819-4.542-3.748-1.209-5.681-3.356c-1.95-0.176-4.284-1.188-6.212-0.874c0.676,0.845,2.969-3.269,3.498-3.398
      c-1.354-4.086,0.271-9.6-2.788-12.856c-1.388-0.292-2.968-4.137-4.166-4.137c-1.041,0-1.301-0.751-2.193-1.696
      c-0.218-0.047-4.65-2.679-4.434-2.44c-4.884-0.436-10.351-2.302-15.501-1.019c-1.908-0.069-4.593,0.231-6.445,0.695
      c-1.021-0.039-2.676,0.181-3.629,0.465c-1.728,0.515-1.295,1.724-2.502,1.859c-0.925,1.931,1.428,7.094,0.597,7.995
      c0.971,4.235,2.398,8.174,2.046,11.452c0.992,0.304,1.628,5.386,1.531,6.28c0.647,0.198,2.391,5.909,2.625,6.725
      c-1.794,1.392,3.797,7.973,3.797,9.931c2.773,0.301,4.563,7.036,7.083,8.182c-0.234,1.407,3.87,3.133,4.278,0.371
      c0.901,0.22-0.805-8.765-0.828-9.695C373.692,340.325,368.25,333.282,367.938,333.317
      C368.061,333.37,367.861,333.326,367.938,333.317z M366.383,331.843c-4.553-4.202-6.212-14.707-7.431-20.262
      c3.599-0.587,7.291-0.584,10.886-0.971c2.574,1.116,9.59,1.966,12.176,1.662c-3.506,0.777-6.69,4.801-9.852,5.154
      c-0.561,1.166-2.6,2.099-3.951,2.331c-2.156-2.75-5.926,5.109-1.979,3.136c1.028,0.736-0.751,1.607-0.751,1.962
      C365.117,327.744,368.581,329.335,366.383,331.843C366.37,331.832,366.625,331.567,366.383,331.843z"/>
    <path fill-rule="evenodd" clip-rule="evenodd" d="M417.596,327.065c-1.588-0.984-1.525-5.318-2.804-6.688
      c-1.243-0.261-2.138-4.783-3.043-5.749c-2.354-0.497-4.876-9.373-6.642-11.252c-2.341-0.492-5.915-8.464-7.673-10.335
      c-1.986-0.42-3.086-4.224-5.997-3.552c-1.613-1.882-9.139,2.092-4.31,3.749c-0.065-0.282,0.191-0.595,0.338-0.699
      c0.87,0.617-1.149,1.848-0.522,3.016c1.235,2.305,1.336,4.833,0.998,6.728c1.438,0.65,6.844,0.567,6.669,2.671
      c2.648,0.815,3.434,6.669,5.928,7.639c-0.235,1.585,4.278,4.25,4.07,6.204c0.962,0.295,5.036,7.353,4.937,8.259
      c1.006,0.308,4.508,7.084,4.615,8.037c-0.392,0.509,0.495,1.379,0.757,1.609c2.056,1.804,2.157-0.606,3.662-0.98
      C418.268,334.775,417.487,327.096,417.596,327.065C417.03,326.715,417.249,327.164,417.596,327.065z"/>
    <path fill-rule="evenodd" clip-rule="evenodd" d="M544.378,250.114c0.863-0.685,0.102-10.531-0.277-11.966
      c0-2.369-1.74-15.171-1.926-15.119c-2.491-1.533-0.756-9.473-2.644-11.485c0.482,0.106-2.155-2.404-1.345-1.508
      c-1.812-0.162-3.104,1.34-4.075,1.451c-0.211,0.44-0.846,2.488-0.676,3.005c-0.48,2.339-3.241,6.272-0.409,7.246
      c-0.09-0.39,0.257-0.611,0.444-0.798c-0.082,1.001-0.455,0.904-0.658,1.781c-0.34,1.478,2.035,3.947,0.965,5.426
      c0.167,0.345,0.131,2.301,0.064,2.667c1.758,0.794,3.429-0.73,3.37-1.817c2.384,5.655-0.05,14.113-0.937,20.472
      c-1.929-2.411-6.452-2.24-8.734-4.75c-0.959-0.086-3.356-2.835-4.042-3.575c-3.385-0.305-8.089-8.635-9.297-10.258
      c-0.216-5.412-11.715-6.017-7.329,0.103c-0.669,1.973,2.631,7.097,0.695,8.227c-1.563,0.914,4.043,4.479,3.846,5.59
      c1.584,0.718,4.145,14.774,3.846,17.579c1.371,0.422,0.375,4.69,1.313,5.472c0.144,0.12,2.186,4.428,2.207,4.664
      c-0.578,0.982,2.457,3.898,2.325,5.12c0.11,0.034,4.144,7.775,4.931,2.333c-0.14-0.034,0.085-12.247-2.514-13.711
      c-0.038-1.265-1.779-4.975-2.622-5.873c-1.716-0.367-2.011-7.028-2.242-8.458c2.657,0.449,4.567,6.296,7.487,6.491
      c1.381,1.709,7.127,5.35,9.594,5.249c0.071,0.536,3.484,1.997,4.094,1.853c2.735-0.646,1.808-4.75,2.859-5.007
      C541.681,257.439,545.525,253.148,544.378,250.114C544.406,250.092,544.477,250.375,544.378,250.114z M533.721,220.685
      C533.631,221.124,533.417,220.968,533.721,220.685C533.688,220.846,533.646,220.754,533.721,220.685z"/>
    <path fill-rule="evenodd" clip-rule="evenodd" d="M509.592,273.78c1.459-3.14-0.703-14.001-2.072-16.82
      c1.235-1.584-4.318-8.685-5.488-9.935c-1.102-0.233-4.686-2.411-5.293-3.084c-2.938-0.259-4.243-2.236-7.859-1.141
      c-1.07,0.208-7.05,1.184-7.436,2.013c-2.208,0.648-8.154,5.963-8.494,8.305c-2.948,0.651-3.697,9.983-5.436,10.176
      c-0.326,0.676-1.246,5.024-1.844,5.091c-0.66,1.372-0.027,5.872-0.119,5.962c2.191,0.932,0.756,7.358,1.74,7.785
      c-1.271,0.985,0.003,0.598-0.08,1.566c-1.502,0.071-7.598,0.914-8.034,2.767c-1.333,0.338-5.888,3.412-6.133,4.73
      c-4.554,1.069-7.202,8.092-11.7,9.217c-0.081-1.875,5.475-18.849,6.789-19.173c-0.465-1.413,1.416-3.391,1.351-4.93
      c1.773-0.495,0.618-7.438,0.524-8.545c-0.295-3.509-0.98-6.941-5.277-5.673c-0.781,0.141-3.912,1.346-4.109,2.018
      c-3.313,0.9-6.262,4.077-9.626,4.456c-1.09,2.292-8.118,2.34-8.778,4.74c-3.309,0.9-6.135,4.208-9.528,4.588
      c-0.558,1.164-10.769,3.745-7.669,6.054c-2.234,0.685-1.938,2.908-0.279,3.477c-0.109-0.469,0.431-0.821,0.704-1.055
      c0.064,0.596-2.471,5.884,0.375,5.667c0.126,1.161-0.864,3.312-0.415,3.705c1.902,1.67,2.278-0.611,3.57-0.71
      c0.212,1.97-0.713,1.99-0.868,3.453c0.261,0.081,1.563,1.353,1.609,1.104c3.008,1.355,4.833-0.663,4.381-3.623
      c-0.931-6.094,1.126-2.145,2.577-5.3c1.638-0.491,3.042-1.91,4.736-2.113c0.773-1.289,7.141-4.073,8.732-4.264
      c0.822-1.361,6.45-3.573,8.03-4.049c-0.804,5.966-5.312,11.388-6.246,17.367c-1.439,0.208-1.675,7.963-3.11,8.119
      c-0.947,1.975-4.704,6.616-0.492,6.709c-0.028,1.647-1.414,0.602-0.115,3.618c0.422,0.981,1.52,4.082,0.243,4.826
      c-1.978,1.154,2.398,2.198,3.253,1.976c0.513-0.133,2.854-2.001,3.096-2.546c2.742-0.835,13.012-5.571,13.938-8.229
      c1.251-0.365,5.432-3.541,5.862-4.775c2.383-0.702,4.005-4.621,6.45-4.913c1.223-2.023,5.769-2.566,6.625-4.428
      c3.821-1.121,3.519-7.34,1.443-10.586c0.189,0.058,4.24,5.846,4.477,4.532c0.579,0.261,6.371,1.138,6.328,1.388
      c2.397,1.083,7.495,1.529,10.231,1.042c1.425,0.468,4.959,0.615,6.443,0.361c2.333,0.834,2.903-0.899,4.432-1.277
      c-2.204-6.692,5.455-6.044,5.428-11.279C507.023,281.169,510.498,274.564,509.592,273.78
      C509.672,273.607,510.065,274.19,509.592,273.78z M486.824,281.097c-2.977-0.265-6.979-1.996-9.699-1.583
      c-0.591-0.744-3.652-1.477-4.545-2.079c-0.021-0.879-0.12-3.75,1.005-4.029c-0.413-1.247,2.144-7.469,3.672-7.654
      c0.905-1.503,5.109-7.251,6.788-7.454c0.816-1.359,9.653-2.646,9.475-1.672c3.01,1.363,9.232,3.63,10.148,8.018
      c-0.355,0.03-2.264,5.318-2.37,5.948c0.509-0.077-4.063,5.319-4.022,5.103C495.038,276.256,489.96,284.517,486.824,281.097
      C486.456,281.064,486.867,281.144,486.824,281.097z M468.873,287.021C469.31,287.018,469.163,287.379,468.873,287.021
      C469.031,287.02,468.944,287.109,468.873,287.021z"/>
    <path fill-rule="evenodd" clip-rule="evenodd" d="M352.748,395.165c2.164-0.513,11.658-1.861,12.797-3.569
      c4.43-1.29,8.69-4.778,12.969-5.291c1.821-3.036,10.428-2.354,11.928-5.508c4.227-1.273,8.367-4.974,12.73-5.499
      c1.803-3.042,10.346-2.435,11.861-5.612c4.204-1.273,8.237-5.214,12.57-5.74c1.857-3.089,10.17-2.584,11.729-5.832
      c5.762-1.75,46.689-23.47,41.965-29.161c-0.056-1.153-1.596-8.295-0.96-8.476c-0.494-0.307-4.347-5.784-5.039-1.117
      c-0.199,1.344-1.189,1.184-1.426,2.172c-3.958,1.046-7.651,5.858-11.472,6.288c-1.518,3.145-10.131,3.783-10.938,6.796
      c-4.271,1.067-7.568,5.703-12.096,6.209c-1.421,2.981-10.826,2.903-11.745,6.014c-4.312,1.113-8.041,5.374-12.433,5.865
      c-1.421,2.964-10.85,2.907-11.732,5.998c-4.305,1.123-8.132,5.234-12.566,5.734c-1.4,2.933-10.931,2.777-11.831,5.835
      c-4.331,1.156-8.156,5.35-12.564,5.845c-1.407,2.896-11.188,1.73-12.243,4.434c-4.326,1.241-8.904,3.725-13.318,4.218
      c-1.156,2.445-10.377,1.377-11.316,3.873c-0.953,0.278-5.865,1.159-6.172,1.957c-2.089,0.613-6.34,4.577-2.87,5.766
      c-0.107-0.459,0.515-1.079,0.95-1.2c-0.184,1.178-1.004,1.54-1.213,2.481c-0.244,0.707,1.137,2.137,0.768,3.315
      c1.851,1.729-2.257,4.808,2.263,4.466c0.308,2.822-2.271,4.763,2.315,3.989c1.234,0.771,6.539-0.279,4.543-2.011
      c1.318-2.864-2.235-5.441,2.128-5.967c0.32-0.48,3.516-1.161,4.148-1.236c0.629-1.001,6.973-2.395,8.268-2.549
      C345.446,396.538,351.346,395.515,352.748,395.165C352.841,395.143,352.727,395.17,352.748,395.165z"/>
    <path fill-rule="evenodd" clip-rule="evenodd" d="M505.723,350.563c-0.605-1.832-0.301-4.175-0.46-6.063
      c-0.057-0.674-0.629-4.648-1.197-5.253c-0.854-0.181-5.733-1.576-4.692,1.513c-0.629,0.118-3.027,0.799-3.153,1.367
      c-0.229,0.057-4.837,3.037-4.925,3.312c-2.365,0.608-4.356,2.567-6.779,2.839c-0.861,1.789-7.037,0.698-7.789,2.39
      c-4.293,1.233-8.398,4.386-12.484,4.844c-1.396,2.935-10.962,2.5-11.953,5.54c-4.487,1.154-8.469,5.762-12.687,6.234
      c-1.482,3.093-10.548,3.568-11.396,6.82c-4.224,1.04-7.352,5.605-11.908,6.119c-0.533,1.11-6.477,3.515-7.833,3.668
      c-0.993,2.06-7.205,2.093-7.822,4.282c-2.979,0.77-5.448,3.671-8.509,4.014c-0.961,2.019-7.326,2.197-7.869,4.301
      c-2.732,0.716-4.684,3.26-7.615,3.59c-0.881,1.888-7.492,1.731-8.068,3.985c-2.996,0.811-5.436,3.91-8.515,4.254
      c-0.514,1.073-10.31,4.226-4.786,6.125c-0.041-0.179,0.167-0.603,0.273-0.664c-0.163,0.223-0.03,0.283,0.399,0.183
      c-0.931,1.951-1.28,1.474-0.268,3.824c0.882,2.048,0.001,2.874-0.205,4.801c1.134,0.349,6.418,0.813,7.441-1.372
      c4.268-1.275,8.198-5.177,12.64-5.712c1.082-1.808,6.579-1.08,7.355-2.744c2.234-0.68,4.436-2.656,6.752-2.937
      c1.814-3.033,10.48-2.365,11.988-5.523c4.208-1.277,8.18-5.152,12.49-5.671c1.826-3.021,10.234-2.341,11.77-5.489
      c4.081-1.22,7.723-6.063,11.961-6.57c1.944-3.25,9.896-3.306,11.434-6.729c11.378-3.445,21.018-10.786,32.975-14.12
      c5.762-1.325,10.426-4.455,16.078-5.138c0.661-1.096,1.995-2.466,2.32-3.668c1.222-0.306,1.915-2.44,3.493-2.63
      C504.586,353.615,505.57,350.601,505.723,350.563C505.537,350.001,505.623,350.588,505.723,350.563z"/>
  </g>
</svg>