<svg id="satnh" x="0px" y="200px" viewBox="0 0 1200 1000" xmlns="http://www.w3.org/2000/svg" version="1.1">
  <style>
    g { fill: white; }
  </style>
<g>
	<path fill-rule="evenodd" clip-rule="evenodd" d="M28.648,224.866c4.176-1.244,8.874-5.293,12.887-5.788
		c1.963-3.217,9.826-3.734,11.207-7.172c4.105-1.246,7.347-7.322,11.43-7.827c2.088-3.479,9.121-5.008,10.336-9.134
		c2.107-0.612,2.671-5.315,3.209-5.45c-0.847-2.567,0.476-6.054-1.405-8.372c2.128-0.022-3.497-4.574-2.877-3.914
		c-2.388-0.506-12.237-1.291-13.707-2.898c-4.293-0.386-9.61-2.09-14.106-1.199c-1.893-2.367-10.578,1.42-12.738-0.953
		c-4.061-0.36-8.862-4.281-12.871-3.733c0.264,0.319-4.194-2.258-1.754-2.536c0.613-1.022,2.734-3.601,4.002-3.755
		c0.629-1.038,3.614-4.182,4.832-4.329c1.025-1.71,4.584-2.137,5.242-3.914c4.032-1.229,7.355-6.672,11.578-7.181
		c0.381-0.622,4.932-4.026,5.417-4.146c-0.815-2.464,0.456-5.81-1.35-8.037c0.718-0.007,0.054-1.394,0.054-1.361
		c-0.063-2.513-2.677-1.193-4.052-1.039c-1.457,3.055-10.443,3.908-11.126,7.183c-1.004,0.27-5.256,2.528-5.456,3.491
		c-2.086,0.558-3.901,3.515-5.742,3.721c-1.782,3.714-7.918,4.636-8.733,9.24c-0.52,0.086-1.726,3.257-1.84,3.904
		c-2.857,0.458-0.351,3.242-1.041,3.908c0.785,0.329,2.315,5.442,1.547,6.5c0.576,1.177-0.92,1.415-0.104,2.092
		c0.05,0.042,0.731,1.4,0.73,1.412c-0.234,0.723,1.754,1.958,1.685,2.772c-0.648,2,4.625,4.85,4.658,4.676
		c5.218,2.365,14.825,5.957,21.652,4.781c3.629,1.187,11.184,1.36,14.998,0.944c0.015-0.103,8.589,1.579,9.346,1.618
		c-0.289,1.519-4.938,2.165-5.27,3.927c-1.113,0.286-5.915,3.357-6.118,4.438c-1.691,0.443-12.515,6.552-12.854,8.139
		c-0.969,0.258-6.418,3.009-6.664,3.818c-1.131,0.323-6.638,2-6.944,2.992c-2.578,0.736-4.396,1.09-7.044,1.683
		c0-1.081-11.8,1.485-5.236,3.741c-0.084-0.363,0.237-0.601,0.416-0.766c0.744,0.559-1.192,1.964-0.6,3.07
		c0.896,1.671,0.531,5.842,0.857,6.128C16.722,226.973,27.283,227.641,28.648,224.866C28.979,224.768,28.617,224.93,28.648,224.866z
		"/>
	<path fill-rule="evenodd" clip-rule="evenodd" d="M290.768,145.703c-0.398,0.618-0.199,0.839,0.597,0.662
		c-0.104-0.453,0.509-1.064,0.938-1.183c-0.363,2.32-1.82,1.532-0.534,4.515c1.871,4.344-2.007,6.459,5.2,4.337
		c0.432,0.552-0.962,2.252,1.652,1.634c1.419-0.335,1.944-2.673,1.943-2.673c-0.533-1.599-0.958-6.122-0.25-7.487
		c0.944-0.541,1.484-4.432,2.52-4.562c1.313-2.201,2.974-8.309,5.977-8.667c0.943-1.561,10.42-3.626,12.441-3.87
		c0.71-1.301,10.694-3.513,12.365-3.715c0.931-1.529,10.191-4.178,12.132-4.411c0.29-0.487,4.79-2.678,5.274-2.736
		c0.856-1.421,3.799-3.505,5.063-4.573c0.067,0.715,5.32,4.061,6.229,4.026c0.856,1.988,4.76,2.309,6.529,3.046
		c0.24,1.385,6.653,2.941,6.402,4.341c2.806,1.267,6.92,1.416,10.705,0.435c4.433,0.501,7.233-2.481,10.938-2.926
		c1.076-1.823,6.014-1.313,7.008-3.148c2.388-0.73,4.174-4.433,6.487-4.711c2.548-4.213,4.954-3.996,3.474-10.729
		c2.106,0.641,1.061,7.037,3.218,7.587c0.677,1.197,2.147,3.458,3.142,3.806c-2.527,1.446,3.773,1.289,3.941,1.269
		c0.643-1.066,1.029-1.008,2.01-1.663c1.488-0.335,2.146-2.256,2.91-2.35c0.968-1.62,1.837-3.474,3.066-4.826
		c0.391-0.076,4.744-3.468,4.936-4.007c0.313-0.094,3.11-1.6,2.829-0.043c0.718,0.324,4.108,0.661,3.874,1.973
		c2.354,1.065,2.359,5.167,5.514,5.069c2.069,4.081,9.517-0.799,13.064-1.226c0.887-1.461,5.92-7.634,7.471-8.021
		c-0.141-0.529,5.763-8.515,6.444-8.67c-0.101-0.335,5.051-8.675,5.37-8.86c0.03,0.904,0.627,1.093,1.79,0.568
		c-0.221,1.496-0.42,5.975-1.425,7.064c0.22,0.982-0.908,2.487-0.506,3.4c-0.283,1.814,0.943,3.149,0.943,3.8
		c-0.164,0.511,0.706,5.739,0.892,5.81c-2.125,4.401,4.407,2.08,3.399,0.398c1.662-0.807,0.337-9.294,2.063-9.719
		c-0.796-2.416,1.352-7.561,1.771-10.036c0.665-3.924,5.292-2.914,9.017-4.043c2.034-0.104,13.576-1.708,14.502-3.303
		c1.364,0.791,4.905,6.786,4.905,7.642c0,0.715,7.884,3.73,8.905,3.638c0.107,1.028,5.813,2.441,6.18-0.043
		c0.917,0.224-0.818-8.917-0.843-9.863c-0.074-2.949-8.562-3.35-10.193-5.156c-3.23-0.289-4.803-6.043-7.055-7.983
		c-0.054-1.341-2.855-8.799-3.789-9.227c-0.086-2.431-3.443-9.068-5.068-10.803c-0.267-0.056-1.607-2.374-1.89-2.687
		c-2.08-0.186-1.768-2.685-4.298-1.933c-2.522,0.75-0.962,2.006-2.89,2.593c-1.038,0.315-1.688,2.228-2.093,2.271
		c-1.568,3.259-3.845,7.354-4.51,10.903c1.322-0.197-3.461-20.52-6.109-7.89c-0.355,0.044-1.284,4.636-1.399,5.182
		c-0.067,0.007-4.703,13.057-4.641,12.679c-2.712,0.462-3.284,11.07-6.133,11.388c-1.702,3.531-7.271,7.244-7.825,11.063
		c-0.604,0.126-3.938,3.865-4.034,4.5c-2.27,0.534-3.149,3.368-6.063,4.26c-1.547,0.162-3.015,0.267-4.212,0.299
		c-0.483-0.395-1.812-1.694-2.392-1.738c-1.099-2.158-3.387-3.436-5.021-5.243c-3.306-0.297-4.832-1.752-8.684-1.321
		c-0.306,0.634-4.504,3.395-5.399,3.495c-0.451,0.941-5.586,8.411-6.717,8.539c-1.398,2.875-8.221-11.774-6.864-12.155
		c-2.525-1.563-0.344-10.86-3.755-12.454c-0.162-4.581-4.053-6.762-6.703-9.693c-1.068-0.098-3.563-2.353-4.316-3.188
		c-1.001-0.088-3.693-1.542-4.028,0.718c-0.099,0.666,0.829,3.062,1.255,2.148c0.276,0.206-1.003,4.941,1.057,4.779
		c0.186,1.736-1.777,5.047,1.333,5.06c1.212,1.315,5.566,5.719,7.423,5.786c-0.703,0.401,4.953,14.979,4.553,16.317
		c-6.094-1.97-7.799,6.565-12.896,7.133c-1.43,2.951-10.277,2.2-11.699,5.044c-3.449,0.255-7.123,1.321-10.539,1.321
		c-1.434,0-3.444-3.703-5.287-3.641c-0.334-0.284-3.139-4.842-2.306-5.083c-2.299-1.452-2.711-18.122-2.02-18.291
		c-0.669-2.027-0.234-6.357,0.211-8.176c0.425-1.736-0.257-8.463-1.417-9.701c-7.097-1.5-1.989,2.762-4.552,5.534
		c0.48,2.135-1.347,7.253-0.017,8.935c-0.416,1.888,1.791,7.663,0.54,9.026c0.488,2.14-0.238,7.318,1.563,8.866
		c-0.549,1.675,0.855,4.039,0.588,5.411c-2.681-2.231-11.298-9.899-14.688-9.71c-3.701-3.526-10.209-4.141-13.635-7.919
		c-1.537-0.144-5.535-3.891-6.631-5.104c-1.271-0.114-5.505-3.725-6.236-4.796c-0.053-1.057-2.483-7.287-3.315-7.684
		c-0.022-0.68-1.135-3.733-1.662-3.985c-0.113-3.466-5.896-3.127-5.065-0.495c-3.766-3.176-5.445,5.485-4.137,7.351
		c-0.251,1.652-1.381,7.29-0.433,8.641c-0.249,1.641-1.381,7.305-0.433,8.641c-0.205,1.35-1.669,6.673-1.182,7.958
		c-0.305,1.981-2.49,6.66-1.768,8.466c-0.315,2.014-0.714,7.9-2.058,9.357c0.14,0.608-0.427,3.737-0.886,4.234
		c0.172,0.76-1.529,0.419-1.743,0.965c-1.101,0.324-4.366,1.569-4.589,2.669c-0.549,0.147-1.702,0.557-1.828,1.152
		c-2.604,0.704,0.419,2.312-0.517,3.223c1.109,0.465,0.53-0.535,1.496-0.524c-0.395,0.801-2.089,5.377,0.348,5.186
		c0.056,0.453-1.519,3.37-1.905,3.414C293.254,138.313,288.729,144.176,290.768,145.703
		C290.637,145.831,290.4,145.428,290.768,145.703z M413.021,101.46C413.798,101.453,413.979,102.645,413.021,101.46
		C413.163,101.459,413.185,101.663,413.021,101.46z M413.375,100.873c-0.049,0.056-0.093,0.121-0.125,0.209
		C413.241,100.994,413.262,100.916,413.375,100.873z M504.055,53.235c-1.814,3.024,3.854,6.626,3.96,9.92
		c-1.198,2.029,3.257,1.543-1.417,2.987c-3.359,0.364-7.313,1.34-10.471,2.522c0.716,0,1.873-6.884,2.742-6.993
		C500.229,59.405,501.146,53.586,504.055,53.235C504.078,53.196,503.57,53.293,504.055,53.235z M413.521,100.745
		C413.066,101.054,412.959,99.884,413.521,100.745C413.475,100.776,413.433,100.61,413.521,100.745z M314.561,67.468
		C314.774,67.652,314.06,67.359,314.561,67.468C314.582,67.486,314.516,67.458,314.561,67.468z M316.461,77.419
		c-1.098,1.162,4.141,8.675,3.944,10.487c0.123,0.038,1.589,2.538,1.552,2.746c1.525,0.69,3.4,3.446,5.049,3.465
		c0.97,1.299,8.669,5.611,8.431,6.942c3.221,1.458,6.466,4.575,9.695,5.423c-1.956,0.466-15.59,4.601-16.221,6.2
		c-5.905,1.71-11.809,3.844-17.681,5.431c-0.359-1.148,2.219-13.544,2.896-13.711c-0.23-0.701,0.417-9.286,0.621-9.336
		c-1.782-5.42,1.29-13.358,0.94-19.057C315.697,76.012,316.479,77.527,316.461,77.419C316.361,77.524,316.407,77.093,316.461,77.419
		z M315.178,70.121c0.4,2.499,1.775,3.189,0.38,5.398C315.477,74.553,315.139,70.054,315.178,70.121
		C315.233,70.468,315.129,70.037,315.178,70.121z M314.546,67.844c0.357,1.089,0.088,0.542,0.219,1.297
		C314.508,68.604,314.219,68.405,314.546,67.844C314.615,68.056,314.443,68.02,314.546,67.844z M413.53,102.302
		c0.558,0.199,0.653,0.482,0.288,0.85C413.723,102.869,413.626,102.585,413.53,102.302
		C413.768,102.376,413.65,102.567,413.53,102.302z M482.508,97.845c-0.001,0.005-0.002,0.01-0.003,0.015
		C482.506,97.854,482.507,97.85,482.508,97.845z M501.447,43.259c-0.238,0.503-0.39,1.032-0.453,1.586
		c-0.441-0.249,0.027-0.775-0.416-0.975C500.883,43.688,501.173,43.485,501.447,43.259
		C501.355,43.844,501.057,43.367,501.447,43.259z M413.345,99.801C412.506,100.333,413.11,98.963,413.345,99.801
		C413.239,99.868,413.296,99.627,413.345,99.801z"/>
	<path fill-rule="evenodd" clip-rule="evenodd" d="M517.15,30.583c-0.909,0.875,0.498,0.478,0.745,0.303
		c-0.057-0.042,0.879,7.449,0.445,7.702c-1.6,0.935,5.124,3.405,5.034,3.898c0.845,0.381,6.685,2.3,6.518,3.229
		c1.79,0.809,3.688,4.34,5.646,4.401c1.095,1.136,10.528,7.33,10.462,7.704c1.069,0.484,2.439,1.837,3.351,2.072
		c0.095-2.085,3.122,1.705,2.971,1.545c-0.137,0.707,0.522,2.903,0.089,3.374c0.463,2.034,0.982,7.276,2.01,8.391
		c-0.534,0.312,0.969,10.07,2.633,10.729c-0.074,0.665,0.687,3.49,1.68,3.403c1.715-0.149,7.774-1.348,8.152-3.928
		c0.654,0.16-0.482-9.645-1.913-11.226c-2.274-0.204-5.321,2.963-6.256-0.542c-0.049-1.924-0.761-4.488-1.204-6.643
		c0.049-1.013-0.119-3.128-0.256-4.377c0.09-2.574,7.665-1.03,9.764-1.526c4.448-1.051,7.613-7.224,11.921-7.747
		c1.426-2.36,5.448-2.939,6.154-6.047c1.537-0.4,5.921-7.363,6.257-8.91c2.374-0.569,2.759-6.552,2.262-8.312
		c0.14-0.767-0.234-5.473-1.034-6.326c-1.878-0.397-4.253-1.116-4.661,1.574c-1.735,0.326-2.169,5.162-4.012,5.37
		c-0.607,1.267-3.768,6.841-5.075,6.989c-1.03,2.129-6.091,3.067-6.503,5.204c-1.226,0.318-6.854,3.763-7.087,4.937
		c-4.846,0.088-10.882,1.843-15.049,1.843c-1.146,0-3.444-3.972-5.313-3.893c-1.409-1.232-3.424-1.629-4.618-3.119
		c-0.563-0.723-3.322-3.351-4.211-3.499c-0.516-0.639-3.494-3.503-4.258-3.547c-2.17-0.936-5.492-3.98-7.859-3.762
		c-0.926-0.953-2.416-0.837-3.311-1.822C519.469,27.918,513.854,28.111,517.15,30.583C517.021,30.708,516.789,30.312,517.15,30.583z
		"/>
	<path fill-rule="evenodd" clip-rule="evenodd" d="M641.143,57.274c0.934-2.025-0.814-10.131-2.441-11.863
		c-1.451-0.309-3.137-4.422-4.281-5.454c-0.184-4.426-12.342-3.657-14.271-5.808c-1.239-0.112-5.685,0.371-6.464-0.485
		c-1.599-0.144-4.324-1.283-5.578-1.211c-2.123-1.923,1.797-4.651,4.449-4.968c1.399-2.311,6.853-1.381,9.262-2.053
		c1.81-0.504,1.961-2.275,1.697-4c-0.261-1.712-0.161-6.44-1.391-7.749c-1.128-0.24-11-1.119-11.434,0.766
		c-2.305,0.635-4.068,3.118-6.434,3.382c-1.164,2.4-8.207,7.437-4.5,11.036c-0.558,2.406,1.018,6.79,1.748,8.605
		c-0.297,1.433-0.178,2.392-0.328,3.802c1.744,0.529,3.258,3.171,5.287,3.046c0.9,2.356,8.721,3.037,11.571,2.576
		c1.205,0.442,4.671,1.123,5.692,1.016c0.004,0.261,3.585,1.349,4.123,1.292c-0.043-1.303,4.992,3.131,5.116,3.171
		c1.024-0.204-6.224,3.567-6.118,3.297c-2.199,0.441-4.075,1.339-5.783,1.757c-4.264-0.23-9.863-0.107-14.026,0.8
		c-1.601-1.601-11.838,3.045-6.255,4.965c-0.037-0.162,0.166-0.605,0.264-0.66c-0.103,0.169,0.047,0.201,0.449,0.096
		c-0.105,0.212-1.169,1.917-1.169,1.739c-0.252,1.992,2.438,3.396,1.192,5.113c0.825,1.678-1.506,3.512,2.893,2.243
		c6.816,0.233,13.945-1.442,20.686-2.251c0.713-1.07,8.844-2.817,10.144-2.973C635.996,65.248,642.891,58.788,641.143,57.274
		C641.527,56.439,641.592,57.663,641.143,57.274z"/>
	<path fill-rule="evenodd" clip-rule="evenodd" d="M115.025,303.908c-0.041,0.143,0.983,7.241,0.686,6.979
		c1.34,1.183,1.491,0.85,1.921,2.398c-0.529,0.422,1.619,9.983,2.101,10.254c-1.539,1.435,6.62,9.076,7.3,4.447
		c0.89,0.22-0.797-8.678-0.819-9.6c-0.048-1.883-3.228-2.941-3.668-4.633c-0.269-2.149-1.575-3.255,1.064-3.969
		c1.767-0.345,3.542-1.276,5.339-1.436c0.877-1.753,7.313-0.724,8.314-2.504c3.551-1.036,6.662-3.161,10.146-4.186
		c0.901,1.503,0.811,4.428,1.54,5.807c-1.146,0.573,1.394,7.803,1.183,8.979c0.615,0.224,6.917,10.346,7.776,4.469
		c0.83,0.204-0.705-9.957-2.32-11.584c-0.038-0.637-1.7-2.725-2.142-3.199c-1.196-0.242-1.052-4.416-1.282-5.342
		c-0.067-1.216,4.217-4.608,5.406-4.902c-0.787-2.38-0.697-6.024-1.103-8.248c-0.682-3.733-2.379-2.024-5.057-1.645
		c-0.12-2.268-0.619-4.968-0.253-7.144c0.189-1.13-0.175-6.27-1.035-7.099c-1.517-2.479,0.203-3.297-4.264-2.797
		c-0.738,1.533-1.032,8.283-0.033,9.454c-0.32,1.878,1.315,7.907,0.115,9.215c0.66,2.9-21.755,9.426-26.362,10.344
		c-0.155-2.321-1.329-14.464-3.264-16.266c-0.03-0.34-0.452-2.542-0.718-2.604c-0.063-0.729,1.369-2.198,2.041-2.276
		c1.214-2.006,0.854-5.066,0.314-7.573c-0.38-1.764-0.614-3.444-1.884-4.846c-2.377-0.212-3.086,1.52-4.946,1.729
		c-0.699,1.463-5.949,0.659-6.414,2.374c-4.306,1.252-8.271,5.405-12.667,5.897c-1.407,2.946-10.883,3.064-11.702,6.136
		c-4.744,1.308-8.757,3.549-13.834,4.97c-3.889,0.059-9.022,0.97-12.777,1.996c-4.187,0-9.861,0.945-13.899,2.059
		c-2.224,0-5.056,0.369-7.228,0.85c-1.266-1.519-5.552,2.423-1.998,3.656c-0.076-0.325,0.211-0.585,0.372-0.721
		c-0.514-0.369,0.437,6.891,0.362,6.992c0.426,0.873-1.379,3.101,1.186,2.744c1.352,0.583,5.561-0.034,6.993-0.418
		c3.522,0.361,9.518-0.78,12.935-1.742c3.819,0.222,8.649-1.087,12.416-1.789c-0.938,2.714,3.021,10.891,1.203,12.863
		c0.561,2.444,0.895,5.772,1.807,7.596c-1.32,0.93,2.296,10.867,2.744,12.406c-0.863,0.547,0.694,3.203,1.707,3.416
		c3.453,1.457,2.074,4.561,7.047,3.961c3.76-6.266-1.92-12.575-5.861-16.629c-0.052-0.525-1.594-5.024-1.239-5.131
		c-1.522-0.891-1.51-9.089-1.646-10.262c-0.215-2.974-0.526-6.034-0.938-8.99c1.293-0.019,6.23-1.09,6.771-2.172
		c5.211-1.532,10.461-6.339,15.531-6.934c1.121-1.875,6.012-1.694,6.903-3.656c1.466-0.441,7.169-2.495,7.767-3.794
		c1.419-0.427,2.533-1.494,4.069-1.681c0.739-1.183,1.345,2.038,1.074,2.33c0.681,2.953,1.341,5.895,1.8,8.145
		c0.102-0.065,0.34,4.791,0.642,4.877c0.928,2.399-0.915,6.595,0.802,7.178c-0.058-0.248,0.18-0.581,0.313-0.67
		c0.021,0.037,0.637,1.321,0.637,1.041C115.166,302.733,115.152,303.4,115.025,303.908
		C115.018,303.936,115.027,303.9,115.025,303.908z"/>
	<path fill-rule="evenodd" clip-rule="evenodd" d="M178.556,305.451c1.51,2,7.837,6.234,11.155,5.629
		c7.854,2.467,16.377-1.992,24.012-2.904c0.533-0.884,4.732-2.685,5.842-2.822c0.258-0.42,2.262-1.67,2.785-1.732
		c1.224-2.018,0.859-5.1,0.316-7.622c-0.383-1.779-0.62-3.461-1.896-4.878c-2.289-0.203-3.152,1.466-4.9,1.656
		c-0.738,1.54-5.463,1.416-5.945,2.998c-3.546,0.982-7.288,1.823-10.911,2.453c-2.18-0.165-5.034-0.587-7.166-0.152
		c-0.788-0.993-4.013,0.295-5.286-1.109c-2.02-0.174-3.75-3.171-5.663-3.295c-0.576-2.42-0.764-2.916,2.5-3.313
		c0.842-1.403,5.429-0.601,6.209-2.031c1.156-0.325,5.675-1.357,6.161-2.357c4.726-1.411,0.626-10.356,1.698-10.66
		c-1.443-0.897,0.131-3.069-2.881-2.175c-0.276,0.082-2.403,0.612-2.535,1.036c-1.662,0.486-3.277,1.479-5,1.668
		c-0.526,1.094-7.652,2.821-9.029,3.041c0.195-1.121-0.174-8.943,0.498-9.105c-1.355-4.115,4.362-3.177,7.086-3.971
		c4.487,0.095,10.789-1.341,15.082-2.637c6.646-0.385,4.47-5.849,3.617-10.527c-0.771-4.235-8.621-1.75-12.232-0.708
		c-4.53,0.091-10.564,1.258-14.918,2.523c-1.719,0.026-3.606,0.408-5.324,0.9c-2.965,0.055-4.002,2.888-1.586,3.722
		c-0.09-0.388,0.258-0.599,0.443-0.788c-0.73,1.304-0.824,2.29-0.041,4.111c0.646,1.5-0.867,6.087,1.633,5.637
		c-1.708,2.928,2.403,10.477,0.176,12.885c0.755,3.245,1.789,8.061,1.482,10.904c0.383,0.121,1.965,5.533,2.109,6.305
		C175.658,298.479,178.039,305.223,178.556,305.451C178.637,305.559,178.463,305.41,178.556,305.451z"/>
	<path fill-rule="evenodd" clip-rule="evenodd" d="M267.228,237.472c0.286,1.246,1.162,1.304,1.575,1.95
		c-0.457,1.507-0.445,1.311,0.329,3.108c0.441,1.025-0.144,5.375,0.563,5.623c-0.179,0.869,2.559,3.515,2.696,4.463
		c-0.743,0.875,2.584,5.117,2.448,6.372c0.668,0.208,2.133,11.437,1.229,12.412c0.71,3.147-1.792,11.018,0.128,13.478
		c-0.291,1.919,1.239,8.369,1.982,9.643c-1.144,0.691,0.191,1.709,0.04,2.553c1.371,0.619,4.563-1.196,3.37-2.492
		c0.321-0.352-0.157-3.246,0.195-3.334c-1.544-4.692,1.063-10.435,0.013-15.455c0.183-3.994-0.638-8.929-1.298-12.887
		c0.105-2.872-0.098-10.988-1.646-12.642c0.102,0.036,0.15,0.025,0.146-0.032c0,1.161,21.868,10.599,25.125,10.154
		c2.783,1.109,9.922,1.775,12.895,1.361c3.08,1.215,10.741,1.878,14.018,1.387c0.658,0.241,2.25,1.173,2.137,2.08
		c1.304,0.398-0.426,1.392,2.02,0.813c1.659-0.393,0.849-1.278,2.052-1.579c-0.377-1.138,4.234-2.208,2.503-3.707
		c1.273-2.756-0.48-11.043-4.291-10.33c-0.258-0.318-2.493-0.396-2.994-0.332c-0.413-0.76-1.691-1.954-2.347-2.479
		c-0.28-2.044-1.291-3.973-1.369-6.018c-0.066,0.04-2.412-13.557-2.972-13.951c-0.321-3.148-1.223-8.197-3.272-10.382
		c-0.831-0.172-1.616-2.961-2.24-3.626c-1.595-0.335-0.835-1.987-3.177-1.291c-1.314,0.391-2.922,1.454-1.078,2.811
		c0.452,0.949-0.107,1.894,0.455,2.941c0.875,1.633,0.521,5.715,0.838,5.993c1.635,1.435,5.805,9.788,5.003,10.656
		c0.509,2.203,0.857,4.19,1.505,6.217c-0.752,0.457,1.099,7.706,1.752,8.401c-4.84-0.305-11.143-2.4-15.896-1.501
		c-0.565-0.704-6.129-0.908-7.153-0.825c-1.427-1.789-5.349-1.243-6.934-2.981c-4.717-0.411-9.895-6.313-14.546-5.857
		c-0.834-0.913-5.571-3.226-6.813-3.107c-0.925-0.957-2.423-0.839-3.311-1.83C266.264,232.837,268.9,235.66,267.228,237.472
		C267.34,237.961,267.559,237.113,267.228,237.472z"/>
	<path fill-rule="evenodd" clip-rule="evenodd" d="M338.239,218.801c1.169,0.359,1.06,1.091,2.849,0.588
		c0.021,0.119,0.703,1.98,0.922,1.981c0.57,1.804-1.19,3.668,0.137,4.734c0.92,0.739,4.231,8.583,4.253,8.336
		c0.855,0.354-0.447,2.063-0.447,1.461c-0.243,1.935,1.532,3.823,1.586,5.575c-0.929,2.547,1.003,0.947,0.853,2.326
		c0.008,0.002,2.285,5.386,2.394,6.232c-0.896,1.042,2.421,7.674,4.78,7.518c0.62,2.075,9.811,6.042,13.125,5.49
		c4.033,1.392,16.375,1.633,18.27-2.867c1.537-0.464,5.566-2.42,5.813-4.105c-0.482-0.119,1.453-12.484-3.4-11.042
		c-4.862,1.445-7.965,4.473-13.088,5.478c-1.907-2.343-9.559,1.128-11.938-1.465c-1.386-0.128-4.748-2.039-5.695-3.09
		c-2.795-0.243-2.607-3.311-4.188-3.916c1.518-0.434,13.93-1.766,15.35-3.896c1.715-0.473,3.43-0.911,5.146-1.375
		c6.401-1.113,4.774-5.958,3.831-11.161c-0.809-4.45-5.848-1.491-9.029-0.521c-2.084,0.382-4.225,1.065-6.265,1.682
		c-4.21,0.856-8.464,2.697-12.811,3.297c-0.791-3.164-1.812-10.437-5.116-12.482c1.235-2.316,9.628-3.008,11.938-3.676
		c2.696,0.129,8.833-0.803,9.24-3.436c0.349-2.256-0.329-11.335-3.925-10.24c-3.294,0.193-7.641,0.846-10.789,1.818
		c-2.766-0.011-4.573,2.042-7.024,2.313c-0.436,0.908-13.137,4.278-6.966,6.407c-0.054-0.236,0.177-0.585,0.305-0.67
		c-0.166,0.245-0.052,0.324,0.342,0.238c-0.889,1.913-1.25,1.401-0.247,3.73C339.313,216.086,338.443,216.899,338.239,218.801
		C338.576,218.904,338.325,217.998,338.239,218.801z"/>
	<path fill-rule="evenodd" clip-rule="evenodd" d="M442.069,232.055c0.658,0.162-0.485-9.771-1.938-11.375
		c-1.759-0.162-5.058-0.61-6.239-1.926c-4.214-0.364-8.229-4.394-12.333-4.519c0.568-1.124,3.429-6.186,4.527-6.456
		c-0.145-0.451,1.074-1.944,1.15-2.435c0.287-1.862-0.174-8.351-1.507-9.776c-1.064-0.223-3.749-1.702-4.103,0.635
		c-0.971,0.199-0.593,1.732-1.586,1.844c-0.434,0.904-2.191,4.27-3.158,4.376c-0.68,1.419-4.296,7.674-5.764,7.839
		c0.056-0.118-7.882-2.837-8.463-3.48c-3.237-0.295-7.496-2.62-10.775-2.067c-0.852-1.059-3.525-0.113-4.438-1.124
		c-1.362-0.124-1.979-1.056-3.503-0.604c-3.847,1.144,0.25,1.975-1.201,3.393c0.535,0.304,0.821,0.229,0.859-0.227
		c0.548,0.41-0.744,1.664-0.275,2.537c1.43,2.666,0.635,3.318,0.373,5.742c2.076,0.636,3.86,3.05,6.819,2.707
		c0.009-0.113,13.557,3.521,13.984,3.482c-1.288,2.978-11.983,18.913-8.471,20.113c-0.103-0.447,0.503-1.053,0.929-1.171
		c-0.018,0.112-0.775,2.101-0.65,2.101c-0.16,0-0.191-0.281-0.189-0.407c-1.868,1.338,2.464,5.387,0.395,6.943
		c-1.07,0.806,2.787,2.775,3.296,0.177c0.624-0.142,0.272-0.906,0.765-0.973c0.438-0.721,2.008-4.577,2.697-4.652
		c0.789-1.323,4.13-9.229,5.303-9.373c0.43-0.717,1.939-4.634,2.611-4.717c0.421-0.706,3.488-4.469,3.37-3.81
		C417.055,225.979,441.478,236.093,442.069,232.055C442.383,232.132,442.008,232.475,442.069,232.055z"/>
	<path fill-rule="evenodd" clip-rule="evenodd" d="M443.668,194.853c5.502,0.975,17.994-4.825,17.072,3.702
		c1.464,0.453,4.928,10.368,5.156,11.754c-0.656,0.567,4.436,14.889,7.804,16.113c-0.295,1.672,4.871,4.467,4.613,5.894
		c6.27,2.832,1.949-10.128,2.575-10.306c-1.614-1.003-2.776-4.795-4.32-6.156c-0.051-1.279-2.829-4.463-3.758-5.273
		c-0.026-0.666-2.184-5.476-2.615-5.935c-2.454-0.521-2.437-11.052-4.9-12.319c-0.003-0.084-0.005-0.168-0.008-0.252
		c5.607-0.488,10.988-2.873,16.499-3.791c0.336-0.671,7.248-1.493,4.739-3.668c1.104-2.4-1.025-6.136-1.083-8.381
		c-0.075-2.954-3.52-0.875-5.108-0.699c-0.63,1.26-8.888,2.032-10.183,2.429c-4.95,0.445-10.231,2.088-15.098,3.122
		c-2.571-0.132-8.42,2.232-10.054,0.805c-0.21,0.331-0.49,0.588-0.84,0.773c-1.189-0.891-1.785,0-3.117,0
		c1.268,0.1-3.246-0.162-2.006,0c-1.047,0-6.023,0.667-6.514,0.122c-1.238-0.113-3.094-0.049-4.308,0.224
		c-1.337-1.486-5.363,2.475-1.938,3.639c-0.084-0.358,0.234-0.584,0.408-0.75c0.716,0.512-1.148,1.946-0.587,2.993
		c0.872,1.625,0.519,5.688,0.834,5.965C429.146,196.798,440.383,195.66,443.668,194.853
		C444.037,194.918,443.322,194.938,443.668,194.853z"/>
	<path fill-rule="evenodd" clip-rule="evenodd" d="M163.286,421.201c3.613-0.992,7.404-1.437,10.984-2.527
		c2.104-0.19,9.741-3.603,9.376-0.207c1.274,0.39,6.115,9.999,6.022,10.896c0.94,0.278,8.226,7.723,8.063,8.623
		c3.06,1.389,3.342,4.939,8.118,4.453c-0.032,0.345,11.386,3.551,12.091-0.62c0.384-2.269-0.76-5.924-1.107-7.864
		c-0.402-2.246-1.24-1.658-2.391-2.891c-1.457-0.134-5.39-0.323-6.354-1.381c-5.045-0.458-7.035-2.694-10.479-6.371
		c-1.66-0.358-7.611-7.51-7.611-8.99c0-1.106,1.641-1.754,1.325-3.867c-0.363-2.437-1.136-4.819-1.189-6.974
		c-0.074-3.033-3.687-0.804-5.108-0.64c-0.768,1.534-1.704-1.429-1.847-1.58c-3.029-0.643-3.761-9.854-6.406-11.385
		c-0.019-0.832-4.808-9.344-4.269-9.498c-0.752-0.459-0.941-3.708-1.136-4.463c-0.159-1.208-0.338-3.316-0.872-4.076
		c-0.342-2.25-4.008-3.334-4.377-0.844c-0.112,0.761,0.645,3.361,0.24,3.797c1.142,4.947,1.92,8.641,2.801,12.447
		c-1.07,0.688,1.396,5.021,1.443,5.996c-0.713,1.126,2.918,4.817,2.771,6.221c0.712,0.219,3.01,5.104,2.902,5.615
		c-4.297,1.146-8.792,1.719-13.043,3.016c-4.86,0.544-9.99,2.581-14.628,3.982c-2.912,0.543-5.734,1.958-8.696,2.293
		c-2.121,3.394-7.356-7.773-8.511-8.795c-0.086-2.055-5.854-9.09-7.367-10.703c-1.248-0.26-1.839-4.91-2.715-5.842
		c-0.761-0.159-0.871-2.397-1.357-2.922c-0.578-0.119-0.205-0.799-0.699-1.072c-0.071-2.544-2.644-1.227-4.058-1.068
		c-1.158,2.41,4.081,9.155,1.647,10.574c-1.229,0.717,4.992,10.881,4.842,12.32c0.748,0.229,8.247,10.065,8.047,11.184
		c2.152,0.906,2.625,5.539,4.459,6.994c1.854,1.472,3.795,6.576,4.388,8.34c-0.727,0.471,2.138,10.061,2.357,10.637
		c-2.101,1.34,3.921,9.69,3.683,11.965c1.203,0.371,1.365,1.538,3.15,1.367c-0.088,0.707,5.552,0.039,6.081-0.023
		c1.228-2.027,0.864-5.122,0.318-7.656c-0.384-1.782-0.621-3.481-1.905-4.898c-0.891-0.082-2.691,0.084-3.295-0.582
		c-3.096-0.273-1.626-3.422-3.689-4.496c-0.09-3.706-2.156-8.598-3.054-12.189c-0.054-1.54,12.338-4.251,14.797-4.549
		C158.067,421.564,162.258,422.573,163.286,421.201C163.485,421.146,163.283,421.205,163.286,421.201z"/>
	<path fill-rule="evenodd" clip-rule="evenodd" d="M247.22,363.234c-0.677-0.814-5.054-2.201-6.148-2.059
		c-1.886-2.233-9.627-0.037-12.428,0.803c-2.897,0.178-10.553,1.349-10.958,4.184c-1.967,0.45-2.729,4.805-4.716,5.02
		c-0.335,0.697-1.297,2.371-2.102,2.467c-0.715,1.485,0.052,2.437-1.104,3.689c0.416,1.792-1.525,5.226-0.625,6.779
		c-0.577,4.082-0.42,8.532,1.672,12.26c0.046,0.552-0.909,3.854,0.352,4.219c-0.839,0.514,1.816,5.731,1.705,6.766
		c2.247,0.682,2.131,9.202,6.648,9.836c1.156,0.626,4.82,4.684,4.242,6.52c1.166,1.088-0.5,3.192,0.168,3.778
		c0.973,0.854,5.143,0.833,6.872,0.486c3.646,1.028,9.644,0.499,13.327,0.057c1.018-1.78,6.113-1.659,6.983-3.834
		c5.267-1.606,11.02-7.312,11.952-12.477c3.32-0.643,3.152-12.305,3.947-12.504c-0.611-1.858,0.021-4.5-0.091-6.449
		c1.726-1.089-1.258-10.152-1.305-11.962c-0.069-2.7-4.7-9.008-6.596-11.021c-2.126-0.458-2.365-4.9-5.651-4.502
		C252.685,364.475,248.317,363.092,247.22,363.234C247.119,363.113,247.445,363.205,247.22,363.234z M245.74,375.896
		c0.681,0.308,6.229,1.607,6.146,2.055c0.956,0.432,3.336,0.243,3.205,1.506c0.385,0.118,1.021,1.682,1.232,1.682
		c-0.313,1.483,3.793,3.791,3.601,5.482c2.19,0.669,1.424,9.011,0.664,9.1c-1.063,2.223-6.743,9.668-6.049,12.049
		c-4.203,1.179-7.703,6.41-11.987,6.873c-0.593,1.23-10.183-3.443-12.551-3.063c-0.948-1.198-4.164-1.313-5.724-3.09
		c-0.219-1.385-3.712-4.038-4.698-5.094c-2.204-0.462-5.915-10.975-4.417-11.338c-0.496-1.501,1.581-5.217,0.481-6.381
		c0.664-1.298,4.858-7.072,6.23-7.238C224.395,374.286,246.358,372.517,245.74,375.896
		C246.082,376.051,245.755,375.816,245.74,375.896z"/>
	<path fill-rule="evenodd" clip-rule="evenodd" d="M264.951,353.094c-0.396,0.615-0.199,0.835,0.594,0.66
		c-0.018-0.078,0.165-0.613,0.218-0.637c0.866,0.647-0.306,1.214-0.476,1.895c-0.361,1.123,1.351,4.201,1.391,5.648
		c-1.379,3.788,5.163,2.029,4.973,2.98c0.22,0.1,3.218,0.424,3.205,0.488c2.736,1.237,1.072,3.413,0.859,5.393
		c0.715,0.219,5.643,4.26,5.485,5.135c2.792,1.267,1.173,7.286,3.019,7.957c-0.535,1.548,1.058,3.411,0.746,4.867
		c-1.964,0.449-6.826,4.355-3.128,5.631c-0.126-0.543,0.285-0.707,0.749-0.656c-0.985,2.039-1.364,1.598-0.35,3.953
		c0.87,2.02-0.001,2.835-0.202,4.734c3.313,1.018,3.36-0.616,6.2-1.563c1.08,0.374,4.536,11.087,4.76,12.545
		c-0.691,0.622,1.363,5.828,3.245,5.385c4.226-0.996,0.851-7.986,0.775-10.966c-0.021-0.795-1.54-5.806-2.136-6.044
		c-0.238-4.192-2.241-3.492,1.933-3.914c0.25,1.668,12.28,3.722,12.008,5.201c0.591,0.266,25.061,8.277,25.567,6.25
		c12.635,5.728,10.236-13.442,3.458-12.205c-2.07-2.635-10.658,0.282-12.964-2.271c-3.113-0.28-7.836-2.699-10.566-2.387
		c-2.22-2.435-8.156-1.682-10.118-4.148c0.11-0.427,4.099-6.157,4.384-6.189c0.31-0.521,1.217-2.692,1.737-2.752
		c1.443-2.425,0.408-3.25,0.86-6.352c6.803,2.26,5.74-14.716-2.984-13.219c-2.472-3.089-11.054-0.944-13.77-3.955
		c-4.545-0.405-10.325-3.291-15.045-2.457c-0.606-0.758-6.409-1.292-7.48-1.094C270.643,349.393,261.191,350.286,264.951,353.094
		C264.82,353.221,264.585,352.82,264.951,353.094z M285.537,365.758c1.164,0.521,8.926,0.992,8.769,1.881
		c2.237,1.002,6.71,2.459,9.118,2.459c-0.864,2.247-3.944,7.636-6.525,7.936c-0.789,1.625-5.695,6.432-7.527,6.756
		C289.073,379.077,284.669,370.1,285.537,365.758C285.895,365.918,285.539,365.748,285.537,365.758z"/>
	<path fill-rule="evenodd" clip-rule="evenodd" d="M357.752,390.135c-0.074,0.545,3.498,3.915,4.092,3.961
		c2.61,1.966,2.881,4.306,6.925,3.826c1.002-1.659,0.955-3.21,0.354-5.338c0.139-0.761-0.233-5.426-1.025-6.271
		c-1.546-0.325-4.407-3.755-5.38-4.895c-0.152-0.763-3.012-3.83-3.65-4.293c-0.027-1.286-2.65-5.389-3.535-6.332
		c-2.764-0.573-4.459-9.606-6.911-11.322c-0.058-2.788-5.934-9.436-7.87-11.516c-2.62-0.555-6.437-9.085-8.355-11.203
		c-4.171-0.375-3.197,2.443-1.973,4.16c-0.309,2.678,1.292,5.753,0.854,8.188c1.551,0.73,2.043,5.049,3.67,5.514
		c-0.431,1.982,5.285,5.025,5.058,7.186c1.022,0.312,5.839,7.053,5.783,7.969c-0.888,2.387,6.107,7.602,6.031,10.266
		C351.541,380.68,357.15,389.942,357.752,390.135C357.749,390.156,357.703,390.119,357.752,390.135z"/>
	<path fill-rule="evenodd" clip-rule="evenodd" d="M440.083,338.086c0.863,0.212-0.287-7.736-0.9-8.492
		c0.433-0.004-0.349-3.404-3.399-2.611c-0.307-5.529-25.813,3.78-28.764,0.383c-1.569-0.142-7.65,0.663-8.633-0.408
		c-1.591-0.144-7.633,0.661-8.632-0.424c-1.591-0.145-7.627,0.619-8.627-0.467c-1.569-0.143-7.66,0.602-8.631-0.477
		c-1.614-0.139-7.62,0.463-8.623-0.656c-0.952-0.083-3.694,0.236-4.308-0.445c-1.39-0.126-2.544,0.252-4.001,0.416
		c-0.578,1.204,0.769,2.534,0.264,3.027c1.215,0.508,0.593-0.306,1.039-0.578c-0.394-0.285,0.28,4.87,0.209,5.096
		c1.386,1.303-0.144,2.111-0.292,3.514c-0.02-0.006,2.633,1.65,2.729,1.117c1.667,0.754,5.954,1.138,7.594,0.9
		c2.582,1.044,9.181,1.361,11.933,0.885c2.397,0.833,8.282,1.074,10.789,0.643c2.648,0.897,9.134,1.097,11.891,0.59
		c6.358,2.08,16.763,0.051,23.252-0.934c-0.508,3.685-4.79,6.869-5.434,10.758c-2.879,0.458-2.927,10.285-6.573,10.686
		c-1.534,3.198-7.589,5.838-8.106,9.352c-0.869,0.171-3.676,4.252-3.82,5.236c-0.38,0.075-1.588,2.512-2.319,1.635
		c-5.36-0.482-1.646,2.644-2.812,3.775c0.564,0.323,0.859,0.252,0.883-0.213c-0.255-0.273,0.479,4.851,0.436,4.988
		c0.338,0.311,0.992,2.525,0.119,3.037c-1.441,0.844,1.15,1.513,1.411,1.836c0.562,0.697-0.306,0.62,0.437,1.271
		c1.793,1.574,2.213-0.416,3.571-0.568c0.993-1.644,1.825-0.948,3.835-1.422c2.107,0.371,10.931-1.157,12.016-3.326
		c1.71-0.51,8.076-2.341,8.645-3.988c1.625-0.493,7.297-4.367,7.799-5.969c4.896-1.462,3.476-10.971,0.699-14.035
		c-4.745-0.428-6.132,5.318-9.921,5.742c-0.874,1.811-5.72,4.281-8.03,4.547c2.365-5.418,7.961-10.167,8.982-16.137
		c1.948-0.362,1.916-6.647,3.923-7.139c-0.494-1.498,3.437-2.758,3.815-3.93C437.444,344.415,439.686,340.828,440.083,338.086
		C440.401,338.164,440.021,338.51,440.083,338.086z M437.092,329.15c0.028,0.557-0.176,0.772-0.613,0.646
		C436.353,329.472,436.557,329.257,437.092,329.15C437.052,329.406,436.784,329.236,437.092,329.15z M417.729,372.734
		C417.677,372.755,417.902,372.191,417.729,372.734C417.719,372.738,417.751,372.664,417.729,372.734z"/>
	<path fill-rule="evenodd" clip-rule="evenodd" d="M520.667,320.514c-2.741-8.331,0.07-19.483-5.867-25.953
		c-0.233-1.767-4.842-5.414-6.099-6.764c-2.089-0.44-3.09-3.224-5.748-2.764c-0.811-1.02-3.557,0.008-4.441-0.957
		c-2.887-0.261-6.557-1.92-9.398-1.428c-0.323-0.407-11.033,1.555-11.517,2.779c-0.682,0.202-3.88,0.723-4.122,1.299
		c-2.155,0.638-3.629,3.275-5.205,3.441c-1.268,2.661-4.357,6.089-6.396,8.41c-0.997,3.641-2.007,7.169-2.913,10.795
		c-2.072,3.315,1.636,10.948-0.797,13.559c0.703,3.148-1.006,11.401,1.184,13.773c-0.341,1.788,1.351,4.213,1.131,6.252
		c1.229,0.38,0.067,4.929,1.235,5.954c0.478,0.419,2.587,4.833,2.665,5.569c-1.632,2.204,4.426,4.22,4.895,4.801
		c0.729,0.903,4.896,2.083,6.376,1.914c-0.11,1.552,9.306,0.896,6.418-1.6c1.049-2.272-0.507-10.758-3.923-10.287
		c-1.373-1.596-5.197-0.454-6.586-2c-8.291-0.719-7.559-14.892-7.559-21.438c0-1.146-0.071-7.781,1.187-8.096
		c-1.131-3.4,3.06-8.485,3.794-11.258c0.995-0.284,3.99-3.813,4.271-4.879c-0.015,0.004,2.886-2.18,2.929-2.252
		c1.332-0.381,2.717-1.072,4.09-1.238c1.999-3.331,10.063-1.539,12.805-1.83c-0.119,0.837,14.052,0.81,13.533,3.705
		c1.248,0.567,8.101,8.129,7.665,8.604c0.661,2.833,0.03,5.563-0.737,8.885c-0.601,1.241-0.681,2.873-1.003,4.211
		c-0.894,1.916-2.553,4.772-2.79,6.34c-1.938,0.388-3.816,6.136-5.01,7.789c-1.35,0.406-7.572,2.795-7.895,4.016
		c-2.037,0.563-5.845,0.971-7.729-1.094c-0.916-0.08-3.562-0.57-4.141-1.217c-2.802-0.253-6.688,2.41-3.043,3.656
		c-0.058-0.251,0.182-0.588,0.315-0.68c0.229,0.166-0.427,2.821,0.089,4.02c0.628,1.457-0.785,5.991,1.484,5.691
		c-0.054,0.428,9.393,2.361,9.271,3.031c4.689,2.116,8.14-3.105,12.358-3.637c0.66-1.086,3.959-1.199,3.709-2.953
		c1.185-0.358,1.175-2.115,2.121-2.373c-0.16-0.502,4.032-6.678,4.564-6.744C516.965,335.701,519.877,320.706,520.667,320.514
		C520.49,319.977,520.563,320.539,520.667,320.514z"/>
	<path fill-rule="evenodd" clip-rule="evenodd" d="M586.992,293.43c-0.099-0.296-3.059-19.664-3.653-19.494
		c-1.075-0.676-0.385-3.683-1.75-4.453c-0.031-1.273-2.706-7.239-3.721-7.798c-0.048-2.231-3.115-5.753-4.63-7.147
		c-0.078-1.369-2.503-2.677-3.367-3.632c-5.479-0.493-1.91,3.091-1.959,3.642c0.012,0.009,1.136,6.56,1.15,7.094
		c-0.694,1.914,0.109,2.482,1.747,3.921c0.87,0.764,3.83,4.948,3.724,5.916c2.446,0.758,4.211,9.873,5.84,11.683
		c0.453-0.332-0.124,4.09,0.102,4.564c-0.116,0.795-0.881,2.469-0.536,3.195c-0.248,1.697-1.747,1.083-2.02,2.332
		c-2.325,0.624-3.182,1.63-5.539,1.982c-1.254-1.56-5.183-0.416-6.519-1.92c-1.436-0.125-3.67-0.352-4.701-1.504
		c-1.754-0.135-3.26-3.676-5.056-3.719c-2.232-1.454-6.818-7.116-9.385-7.195c-0.993-0.667-2.731-3.337-3.919-3.414
		c-2.867-1.336-6.758-5.416-8.926-7.729c-3.313-0.414-6.264-6.316-9.845-6.135c-1.748-1.616-4.508-1.929-6.111-3.684
		c-1.003-0.092-4.601-2.543-5.098-0.01c-2.821,0.308-3.742,2.979-1.337,3.811c-0.107-0.465,0.521-1.092,0.963-1.215
		c-0.168,1.075-3.291,4.846-0.492,4.918c1.162,0.904-1.454,5.721,1.268,5.563c-0.529,3.353,0.266,4.787,3.015,7.204
		c0.592,0.521,4.34,4.947,4.224,5.595c1.12,0.538,7.1,6.49,6.982,7.146c0.717,0.323,4.801,3.688,4.658,4.488
		c1.737,0.796,2.965,4.222,4.758,4.617c0.9,0.359,7.682,7.921,7.54,8.709c1.373,0.618,4.087,6.158,4.195,7.488
		c-0.771,0.982,2.438,4.787,2.532,5.914c-0.772,0.916,1.306,2.49,2.277,2.261c2.587-0.609,2.215-3.348,1.582-5.591
		c0.633-3.477-2.585-12.852-4.798-15.223c-0.421-0.09-3.429-6.195-4.274-7.107c-0.186-1.722-4.704-5.66-5.933-6.965
		c-1.413-0.298-5.333-5.269-6.424-6.564c-0.544-2.439-5.204-3.952-6.255-6.215c2.74,0.884,5.914,6.133,8.553,6.244
		c1.534,1.493,5.955,6.954,8.193,7.049c1.796,1.764,15.729,10.618,15.42,12.363c3.226,1.455,17.858,7.585,19.824,2.561
		c2.149-0.643,8.054-3.585,6.375-6.729C586.705,299.45,585.832,293.787,586.992,293.43
		C586.821,292.914,586.967,293.438,586.992,293.43z M526.701,278.309C527.374,278.388,527.116,278.716,526.701,278.309
		C526.834,278.324,526.813,278.418,526.701,278.309z"/>
	<path fill-rule="evenodd" clip-rule="evenodd" d="M298.385,465.588c1.958-0.379,11.996-2.143,12.684-3.518
		c8.657-2.464,16.041-3.414,25.498-6.268c8.412-0.801,18.25-3.497,26.345-5.947c8.435-0.851,18.218-3.489,26.338-5.947
		c8.414-0.799,18.291-3.339,26.389-5.783c8.411-0.848,18.268-3.431,26.351-5.926c11.055-1.05,23.979-5.176,34.097-8.031
		c-0.053,0.013,1.206,0.496,1.349,0.496c-0.309,0,2.97-2.405,4.212-1c-0.24,0,4.392-2.443,4.158-2.039
		c2.28-0.676,4.591-2.2,6.962-2.48c1.726-2.876,10.582-1.674,12.033-4.793c3.934-1.177,7.166-7.362,11.139-7.854
		c0.611-1.02,3.939-3.896,5.148-4.033c1.747-2.889,0.73-9.785-1.553-12.291c-2.373-0.214-12.394,5.998-12.771,7.92
		c-4.089,1.079-6.645,5.439-11.687,6.021c-1.315,2.729-11.233,1.759-12.251,4.568c-2.903,0.827-5.966,1.426-8.896,2.318
		c-2.041,0.375-4.512,1.662-6.577,1.662c-55.322,13.671-114.77,23.065-167.942,38.775c-11.468,2.564-23.139,8.419-34.831,9.643
		c-0.974,2.125-14.683,4.05-17.286,4.83c-8.618,1.672-16.455,7.435-25.066,8.412c-0.67,1.395-10.473,4.021-12.254,4.223
		c-1.285,2.683-11.282,1.566-12.314,4.318c-4.295,1.264-8.808,3.891-13.245,4.391c-0.391,0.814-15.86,4.331-9.185,6.627
		c-0.066-0.287,0.191-0.576,0.336-0.684c-0.029,0.288-0.788,1.753-0.788,1.848c-0.246,1.953,1.532,3.947,1.581,5.727
		c-0.771,2.121-0.575,2.021,2.347,1.672c0.419-0.728,2.741-0.344,3.115-1.092c4.343-1.208,8.845-3.76,13.31-4.307
		c1.736-2.777,10.816-1.266,12.356-4.127c4.295-1.243,8.892-3.826,13.297-4.338c1.614-2.825,10.798-1.363,12.33-4.223
		c4.324-1.235,8.822-3.846,13.272-4.391c1.125-1.97,11.827-3.39,14.286-4.049C273.336,473.145,285.9,469.104,298.385,465.588
		C298.445,465.576,298.315,465.607,298.385,465.588z"/>
	<path fill-rule="evenodd" clip-rule="evenodd" d="M342.023,499.691c18.809-4.84,37.943-8.724,56.443-14.01
		c1.811-0.387,11.994-2.1,12.712-3.535c3.354-0.955,15.104-2.667,16.376-5.209c4.276-1.256,8.625-4.389,13.033-4.92
		c1.809-2.948,10.517-1.796,12.158-4.816c4.342-1.275,8.584-4.303,13.131-4.863c1.673-2.787,10.859-1.429,12.301-4.311
		c4.318-1.237,8.79-3.92,13.239-4.471c1.719-2.864,10.661-1.412,12.304-4.311c7.599-2.23,15.955-2.896,23.649-5.225
		c4.148-0.328,8.811-1.767,12.797-2.947c0.759-0.1,7.382-1.183,7.927-2.117c4.67-1.307,2.456-6.483,1.781-10.218
		c-0.738-4.082-3.443-1.958-6.383-1.632c-0.449,0.897-6.25,1.405-7.095,1.666c-4.347,0.48-9.431,1.651-13.62,2.91
		c-8.037,0.665-16.26,4.543-23.841,5.365c-1.3,2.707-11.254,1.589-12.308,4.361c-4.296,1.268-8.795,3.922-13.232,4.424
		c-1.283,2.674-11.316,1.615-12.306,4.361c-4.342,1.281-8.715,4.368-13.147,4.863c-1.336,2.756-11.205,2.017-12.155,4.869
		c-4.316,1.221-8.589,4.375-13.034,4.873c-1.018,2.1-8.166,1.239-9.046,3.158c-4.272,1.424-8.672,2.348-12.978,3.643
		c-1.738,0.375-12.435,2.298-13.017,3.674c-8.616,1.814-18.131,4.131-26.864,6.818c-4.403,0.561-9.403,1.938-13.644,3.264
		c-1.187,0.144-9.428,1.357-9.866,2.541c-1.966,0.6-12.783,3.066-13.364,4.717c-1.947,0.565-12.643,3.045-13.239,4.678
		c-2.339,0.68-4.662,2.093-7.078,2.367c-0.361,0.78-8.391,2.723-3.033,4.594c-0.063-0.274,0.188-0.582,0.329-0.684
		c-0.072,0.604-0.346,0.978-0.587,1.941c-0.436,1.355,2.097,3.456,0.989,4.984c0.448,0.911-1.474,3.371,1.511,2.666
		c0.536-0.127,3.048-0.664,3.328-1.131c3.971-1.144,8.113-3.664,12.208-4.143c1.525-2.568,9.948-1.335,11.274-3.986
		C331.621,503.344,341.217,501.305,342.023,499.691C342.19,499.648,342.02,499.699,342.023,499.691z"/>
	<path fill-rule="evenodd" clip-rule="evenodd" d="M609.526,472.82c1.121-2.431-1.04-6.223-1.098-8.499
		c-0.066-2.643-3.285-1.296-4.812-0.835c-1.779,0.355-3.599,0.877-5.357,1.424c-2.06,0.352-4.415,1.078-6.26,1.605
		c-7.82,0.443-17.669,3.549-25.199,5.846c-8.461,0.985-18.135,3.496-26.293,5.967c-6.553,0.685-12.971,3.748-19.405,4.463
		c-0.866,1.733-7.511,0.517-8.37,2.234c-11.732,2.596-23.648,5.721-35.205,9.211c-2.903,0.548-5.735,1.855-8.678,2.217
		c-0.885,1.769-7.321,0.507-8.375,2.193c-2.336,0.505-15.977,2.58-16.764,4.416c-4.297,1.289-8.605,2.414-12.916,3.674
		c-1.765,0.395-12.483,2.306-13.074,3.703c-4.411,1.471-9.189,1.566-13.837,2.867c-4.816,0-11.401,1.109-16.041,2.412
		c-2.568,0-6.081,0.593-8.556,1.287c-2.831,0-6.131,2.717-2.728,3.898c-0.093-0.402,0.272-0.608,0.464-0.811
		c-1.738,1.938,0.606,5.258,0.676,7.76c-0.646,1.772-0.668,2.675,2.438,1.801c2.125,0.124,5.44-0.447,7.492-1.025
		c3.664,0.214,9.294-0.78,12.838-1.758c4.297,0.228,10.219-1.065,14.374-2.168c4.281-0.808,8.512-3.077,12.843-3.51
		c0.797-1.593,11.221-3.125,13.186-3.652c13.015-2.692,26.683-6.469,39.519-10.34c4.468-0.67,11.326-4.376,15.278-3.537
		c1.173,0,3.241-1,4.181-1c2.169-1.583,5.133-1.417,7.28-2c2.233,0,4.873-1.693,7.064-2.296c0.232-0.059,2.638-0.704,3.447-0.704
		c1.131-0.231,2.766,0,3.115,0c0.9-1.148,1.149-1,2.079-1c1.573-1.189,2.848-1,4.157-1c3.326-2.553,9.001-2.354,12.965-3.551
		c4.733-0.451,10.264-1.936,14.809-3.338c9.555-1.062,20.288-4.212,29.5-6.979c0.136-0.018,14.256-2.903,14.256-3.617
		C600.5,477.624,611.711,474.709,609.526,472.82C609.91,471.988,609.974,473.207,609.526,472.82z"/>
	<path fill-rule="evenodd" clip-rule="evenodd" d="M81.657,154.764c-0.387,0.601-0.193,0.815,0.58,0.644
		c-0.099-0.427,0.477-1.029,0.911-1.15c-0.229,1.47-1.845,1.947-1.087,3.359c1.447,2.699,0.609,3.453,0.369,5.678
		c4.848,1.487,2.572-1.841,5.446-2.652c0.178,0.257,0.196,4.577,0.014,4.774c0.401,1.757,0.795,1.535-1.122,2.104
		c-3.788,1.125,0.248,1.948-1.181,3.349c1.232,0.518,0.568-0.312,1.014-0.566c-0.299-0.224,0.58,6.545,0.451,6.723
		c0.414,0.85-1.35,3.048,1.195,2.65c0.031,0.191,2.167,1.035,2.427,1.609c-1.573,0.894,0.78,4.551,0.962,5.829
		c-0.748,0.889,2.578,5.149,2.439,6.413c0.772,0.227,8.985,5.44,8.969,5.523c2.549,1.156,6.588,1.015,9.08,1.431
		c1.646,0.275,4.438,0.95,6.119,0.487c1.558,0.12,11.789-0.653,12.393-1.97c0.905-0.197,4.123-3.741,4.349-4.719
		c2.622-0.71,1.683-6.811,1.286-8.651c-0.38-1.767-0.615-3.444-1.885-4.851c-2.771-0.249-2.844,2.052-4.367,2.221
		c-1.422,2.987-3.821,3.236-7.213,4.153c-3.489-0.027-12.841,1.987-15.256-0.715c-3.836-0.337-11.231-2.595-11.876-6.937
		c5.51-0.633,10.949-3.111,16.303-3.765c0.622-1.053,3.675-0.434,4.217-1.678c2.793-0.824,1.839-7.702,0.341-9.548
		c1.583-0.014-2.809-6.167-4.072-2.204c-1.644,0.48-3.354,1.29-5.092,1.484c-0.921,1.934-11.614,2.65-13.698,3.109
		c0.176-1.117,1.202-4.739,0.199-5.952c-0.11-2.633,3.114-0.656,4.127-2.175c3.263-0.898,5.987-1.61,9.168-2.479
		c1.177-0.118,3.867-0.931,5.525-1.381c1.438-0.262,9.688-1.866,10.352-3.119c3.44-0.984,4.36-2.713,3.313-6.423
		c0.382-2.094-0.767-3.591-0.812-5.367c-0.075-2.996-3.646-0.801-5.061-0.643c-0.803,1.697-10.035,3.021-12.047,3.631
		c-3.945,0.777-7.811,2.746-11.845,3.195c-0.301,0.647-4.5,1.277-5.269,1.497c-2,0.395-3.972-0.005-5.494,0.447
		C84.352,148.572,79.184,152.91,81.657,154.764C81.53,154.888,81.301,154.497,81.657,154.764z M88.705,150.952
		C88.248,151.399,88.483,150.789,88.705,150.952C88.64,151.016,88.668,150.925,88.705,150.952z M89.379,151.032
		C90.184,150.902,89.378,151.032,89.379,151.032C89.503,151.012,89.402,151.045,89.379,151.032z M86.263,150.703
		C86.107,150.5,86.365,150.382,86.263,150.703C86.25,150.686,86.284,150.636,86.263,150.703z"/>
	<path fill-rule="evenodd" clip-rule="evenodd" d="M140.306,154.738c-0.237,1.243,1.081,4.983,0.259,5.873
		c0.193,0.853,1.33,5.137,1.332,5.132c-0.166-0.097,0.366,3.202,0.3,3.818c0.768,0.237,0.483,2.561,0.341,3.006
		c-1.016,1.096,1.283,1.327,1.117,2.249c2.809,1.27,4.535,6.403,8.275,5.801c3.33,1.185,9.684,0.975,13.003-0.037
		c1.484-0.075,9.561-1.077,10.251-2.228c3.113-0.898,11.561-2.294,12.057-5.51c0.346-2.244-0.752-5.786-1.098-7.708
		c-0.54-2.995-1.378-2.469-4.241-2.147c-0.308,0.66-4.513,1.516-5.289,1.746c-4.15,0.927-8.779,1.733-12.987,2.997
		c-3.143,0.21-10.935,1.622-13.105-0.687c-0.102,0.195-0.137,0.402-0.108,0.621c-0.446,0-0.499-0.966-0.695-1.176
		c-0.353-0.077-1.111-1.063-1.604-1.584c-0.104,0.244-0.14,0.497-0.11,0.76c-0.321,0-2.825-3.867-2.001-4.063
		c-0.203-0.612,10.424-0.998,11.902-1.445c3.475-0.267,6.842-2.097,10.139-2.495c0.986-1.636,0.942-3.164,0.348-5.262
		c0.137-0.75-0.229-5.351-1.011-6.183c-2.643-0.56-13.823,3.537-15.271,1.928c-1.703-0.153-5.193,1.232-5.63-0.645
		c0.336-5.059-1.89-3.554,3.357-4.877c2.788,0.462,10.159-0.119,10.581-2.855c0.475-3.083-0.241-11.079-4.49-10.097
		c-1.553-1.553-13.402,1.331-15.183,1.53c-1.671,3.482,2.257,10.087-0.083,12.608C141.196,146.141,138.641,152.934,140.306,154.738
		C140.27,154.928,140.166,154.587,140.306,154.738z"/>
	<path fill-rule="evenodd" clip-rule="evenodd" d="M187.772,159.729c-0.588,0.571,0.646,0.991,0.868,1.015
		c-1.715,0.167,0.521,3.542,0.264,4.362c1.338,1.247-0.156,2.282-0.309,3.71c1.8,0.553,4.869,4.387,5.708-0.25
		c0.144-0.791,0.08-10.087,0.683-10.234c-1.385-4.187,1.574-8.361,5.801-8.871c0.622-1.03,5.543-3.087,6.828-3.243
		c0.451-0.747,5.273-3.615,6.072-3.712c0.915,0.956-1.232,0.939-0.198,1.848c0.229,0.201,1.797,1.679,1.735,2.027
		c1.328,0.6,2.488,3.045,3.949,3.075c1.699,1.661,4.578,5.01,6.793,5.755c0.323,1.791,14.825,6.681,17.31,6.396
		c-0.027,1.381,6.535-0.333,4.349-2.221c1.051-2.276-0.558-8.127-2.154-9.89c-2.143-0.191-7.857-1.416-9.285-2.987
		c-5.021-0.455-12.031-4.508-15.656-8.978c2.748-0.606,5.049-5.341,7.828-5.673c1.57-2.604,6.691-4.084,7.564-7.013
		c4.373-1.31,7.547-8.83,3.963-13.247c0.768-0.007-0.031-2.093-0.151-2.22c-2.175-0.459-2.913,0.375-4.627,0.57
		c-0.447,0.934-2.954,3.467-4.026,3.587c-1.214,2.524-7.061,4.293-7.491,6.963c-3.041,0.76-5.161,5.348-8.339,5.706
		c-1.175,2.436-7.563,3.55-8.058,6.146c-2.944,0.774-5.522,3.723-8.615,4.341c1.611-1.285,2.82-8.958,4.872-9.202
		c1.712-2.802,2.192-5.292,1.32-9.348c-0.035-0.166-0.665-3.679-0.968-4.001c-2.179-0.46-2.941,0.59-4.332,0.746
		c-0.881,1.828-2.673,3.398-3.01,5.451c-0.819,0.149-4.669,7.385-3.995,8.919c-0.373,2.438-0.703,9.687-2.323,11.444
		c-0.417-1.862-2.621,6.094-0.798,4.113c0.126,0.556,0.053,2.693-0.316,3.092C189.688,150.796,186.826,159.021,187.772,159.729
		C187.637,159.861,187.393,159.445,187.772,159.729z M189.604,144.062C189.604,144.067,189.603,144.063,189.604,144.062
		C189.604,144.063,189.604,144.062,189.604,144.062z M188.904,160.737C188.908,160.822,188.457,160.784,188.904,160.737
		C188.905,160.761,188.843,160.744,188.904,160.737z M189.526,144.472c-0.004,0.013-0.007,0.027-0.012,0.041
		C189.517,144.497,189.522,144.485,189.526,144.472z"/>
</g>
</svg>
