<svg id="satnh" x="0px" y="0px" viewBox="0 0 1200 1000" xmlns="http://www.w3.org/2000/svg" version="1.1">
<g>
	<path d="M307.376,444.364c10.237-0.419,22.454-7.326,25.618-17.526c1.377-4.439,1.585-9.427-1.718-13.01
		c-2.559-2.775-7.807-2.376-11.177-2.31c-3.045,0.06-7.284,0.238-9.877-1.367c-0.985-0.61-0.047,0.395-0.451-0.442
		c0.501,1.039,0.09,2.354-0.429,3.281c-1.263,2.257,0.866-0.754-0.588,0.7c0.778-0.778,1.65-1.463,2.512-2.143
		c4.706-3.709,11.812-7.261,18.053-8.922c5.986-1.594,11.391-15.609,2.089-13.132c-7.011,1.867-13.847,5.559-19.907,9.477
		c-5.909,3.82-15.069,10.679-14.22,18.783c0.815,7.788,11.838,7.685,17.609,7.57c2.059-0.041,6.038-0.709,6.334,2.063
		c0.119,1.11,0.111,0.469,0.92-0.341c-0.761,0.761-1.55,1.142-2.477,1.669c-2.129,1.212-4.663,1.747-7.083,1.846
		C306.56,430.806,299.108,444.703,307.376,444.364L307.376,444.364z"/>
	<path d="M339.475,402.209c3.197,3.886,3.289,10.138,3.747,14.881c0.583,6.035,0.991,12.089,3.097,17.832
		c0.47,1.283,2.113,1.95,3.378,1.773c8.925-1.245,19.666-2.043,24.754-10.642c1.331-2.248,2.715-7.134-0.939-8.139
		c-3.596-0.989-7.334,2.673-8.963,5.426c1.676-2.832,4.649-3.589,1.961-2.614c-1.367,0.496-2.81,0.786-4.234,1.057
		c-2.44,0.464-4.911,0.764-7.37,1.107c1.126,0.591,2.252,1.182,3.378,1.773c-4.141-11.295-0.309-24.919-8.443-34.807
		C345.888,385.053,335.132,396.93,339.475,402.209L339.475,402.209z"/>
	<path d="M342.69,420.133c4.683-0.829,9.453-2.124,13.38-4.922c2.997-2.135,6.162-5.541,5.761-9.566
		c-0.359-3.607-4.486-3.779-6.929-2.039c-0.508,0.362-1.021,0.692-1.559,1.008c-0.713,0.368-0.763,0.405-0.149,0.109
		c-0.422,0.182-0.849,0.351-1.281,0.508c-1.389,0.527-2.925,0.904-4.013,1.097c-3.868,0.685-7.044,3.682-8.42,7.334
		C338.56,416.104,338.836,420.816,342.69,420.133L342.69,420.133z"/>
	<path d="M354.269,387.22c-5.069,0.774-10.013,2.115-14.937,3.521c-3.605,1.029-6.755,5.126-7.329,8.734
		c-0.569,3.578,1.96,5.334,5.24,4.397c3.905-1.115,7.796-2.234,11.816-2.849c3.858-0.589,7.07-3.749,8.42-7.334
		C358.425,391.179,358.113,386.632,354.269,387.22L354.269,387.22z"/>
	<path d="M367.708,397.952c4.551,7.051,4.183,16.106,6.646,23.934c3.257,10.347,13.204,10.239,21.86,6.803
		c3.586-1.423,6.711-4.844,7.33-8.734c0.525-3.305-1.963-5.699-5.241-4.397c-6.895,2.737-10.73,1.681-12.497-5.776
		c-1.747-7.375-1.909-15.542-6.134-22.087C375.651,381.463,364.364,392.771,367.708,397.952L367.708,397.952z"/>
	<path d="M369.812,413.738c5.657-0.106,10.883-1.846,15.928-4.285c3.171-1.533,6.119-5.979,5.761-9.566
		c-0.396-3.976-4.366-3.278-6.929-2.039c-2.753,1.331-6.272,2.022-9.551,2.084c-3.765,0.071-7.211,4.124-8.42,7.334
		C365.509,410.168,366.057,413.809,369.812,413.738L369.812,413.738z"/>
	<path d="M366.627,392.718c8.354-0.74,16.747-2.089,24.491-5.432c3.572-1.542,6.697-4.761,7.329-8.734
		c0.513-3.224-1.971-5.809-5.24-4.397c-6.843,2.954-13.991,4.105-21.371,4.759c-3.823,0.339-7.137,3.928-8.42,7.334
		C362.4,388.944,362.817,393.056,366.627,392.718L366.627,392.718z"/>
	<path d="M422.662,420.436c-2.689-13.965-8.371-26.888-13.102-40.22c-2.306-6.5-14.076,4.309-11.965,10.258
		c4.408,12.421,9.871,24.482,12.376,37.49C411.554,436.182,423.804,426.366,422.662,420.436L422.662,420.436z"/>
	<path d="M415.535,407.084c6.304-9.107,20.663-18.315,22.99-30.915c0.637-3.444-2.022-5.508-5.24-4.397
		c-3.667,1.265-6.633,4.963-7.329,8.734c0.075-0.406,0.966-1.959,0.015-0.287c-0.479,0.843-0.919,1.358-1.715,2.363
		c-2.085,2.633-4.39,5.099-6.659,7.573c-4.208,4.588-8.414,9.087-11.964,14.216c-1.507,2.177-2.588,7.169,0.939,8.139
		C410.323,413.541,413.692,409.747,415.535,407.084L415.535,407.084z"/>
	<path d="M446.445,404.678c-11.049-2.498-21.739-6.904-33.256-6.49c-6.028,0.217-13.488,14.103-5.209,13.805
		c10.448-0.376,20.401,3.98,30.441,6.25C444.574,419.634,453.328,406.234,446.445,404.678L446.445,404.678z"/>
	<path d="M535.869,404.308c0.802,1.318,1.571,2.022,3.045,2.549c5.089,1.818,14.503-9.824,9.195-12.958
		c-2.578-1.522-4.887-4.189-7.274-6.051c-3.176-2.478-6.408-4.88-9.557-7.392c-5.08-4.052-12.294-9.453-13.656-16.252
		c-1.626-8.123-12.271,1.133-12.63,5.932c-0.827,11.064-4.352,21.624-6.37,32.485c-0.64,3.445,2.025,5.507,5.241,4.397
		c3.67-1.266,6.628-4.962,7.33-8.734c2.018-10.861,5.543-21.421,6.369-32.485c-4.21,1.977-8.42,3.955-12.63,5.932
		c1.641,8.195,7.7,14.101,13.852,19.33c3.443,2.926,7.091,5.612,10.676,8.36c2.732,2.093,5.355,5.1,8.284,6.83
		c3.065-4.32,6.13-8.639,9.195-12.958c0.298,0.252,0.597,0.505,0.896,0.757C544,387.749,532.646,399.011,535.869,404.308
		L535.869,404.308z"/>
	<path d="M507.103,405.73c-1.435,1.097,0.82-0.468,1.121-0.643c0.978-0.57,1.989-1.085,2.983-1.624
		c2.405-1.303,4.738-2.853,6.724-4.74c2.339-2.222,5.434-6.295,3.787-9.769c-1.583-3.339-6.266-1.328-8.178,0.489
		c-0.242,0.229-2.434,1.899-1.121,1.014c-0.952,0.642-1.975,1.183-2.983,1.729c-2.37,1.284-4.574,2.62-6.724,4.264
		c-2.517,1.924-5.331,6.514-3.787,9.769C500.593,409.737,505.049,407.301,507.103,405.73L507.103,405.73z"/>
	<path d="M563.424,390.004c1.168-6.766-1.33-14.358-3.093-20.799c-1.44-5.266-3.332-14.249-8.201-17.605
		c-5.574-3.841-15.677,8.691-10.365,12.353c3.504,2.415,5.075,10.296,6.287,14.404c1.381,4.681,3.451,12.227,2.802,15.985
		c-0.593,3.438,1.992,5.519,5.241,4.397C559.73,397.484,562.773,393.771,563.424,390.004L563.424,390.004z"/>
	<path d="M554.707,389.7c-0.481,0.606-1.651,2.221-1.911,2.548c-2.545,3.205-4.479,12.123,2.662,9.675
		c8.019-2.748,16.842-3.337,23.922-8.407c2.994-2.144,6.163-5.535,5.761-9.566c-0.359-3.602-4.489-3.786-6.929-2.039
		c-5.936,4.25-13.897,4.56-20.666,6.88c0.888,3.225,1.774,6.45,2.662,9.675c0.485-0.61,1.643-2.21,1.911-2.548
		c1.718-2.164,4.342-6.882,1.477-9.286C560.81,384.296,556.425,387.536,554.707,389.7L554.707,389.7z"/>
	<path d="M591.62,387.334c0.3-0.67,0.6-1.34,0.899-2.01c3.645-1.257,7.289-2.515,10.934-3.772c-0.525-0.748-0.67-1.866-1.003-2.719
		c-0.6-1.532-2.312-2.754-3.484-3.805c-3.279-2.938-7.258-5.437-9.92-8.997c-4.594-6.143-7.476-12.058-15.926-12.61
		c-6.018-0.394-13.621,13.255-5.209,13.805c5.089,0.333,7.864,7.626,10.647,11.017c2.229,2.715,4.989,4.921,7.686,7.151
		c1.299,1.074,3.297,2.286,4.242,3.697c0.544,0.813,0.443,1.922,1.003,2.719c3.124,4.449,9.089-0.455,10.934-3.772
		c0.916-1.65,1.392-3.21,1.769-5.041c0.71-3.454-2.077-5.489-5.241-4.397C595.227,379.884,592.398,383.556,591.62,387.334
		L591.62,387.334z"/>
	<path d="M605.631,387.282c3.014-6.672,5.871-13.409,9.328-19.868c-3.645,1.257-7.289,2.515-10.934,3.772
		c1.492,5.6,2.803,11.724,7.047,15.961c5.497,5.49,14.082-1.17,17.928-5.242c4.357-4.611,7.459-10.54,10.211-16.201
		c2.705-5.564,5.557-11.541,6.382-17.741c0.455-3.415-1.891-5.553-5.24-4.397c-3.531,1.218-6.831,4.987-7.329,8.734
		c-0.959,7.198-5.363,14.607-9.204,20.625c-1.396,2.188-1.577,3.403-3.372,0.694c-2.432-3.668-3.342-8.507-4.457-12.691
		c-1.49-5.59-9.832,1.714-10.934,3.772c-4.082,7.627-7.498,15.568-11.056,23.445c-1.227,2.717-0.449,6.746,3.211,6.47
		C601.191,394.316,604.124,390.618,605.631,387.282L605.631,387.282z"/>
	<path d="M634.395,392.826c8.486-6.305,14.73-17.366,20.247-26.124c3.33-5.286,6.393-10.775,8.858-16.521
		c1.427-3.324,3.561-8.868,1.436-12.35c-3.843-6.298-15.194,4.966-11.965,10.258c0.546,0.895-0.106-1.329,0.035-0.092
		c-0.18-1.57-0.112,0.276-0.24,0.843c0.346-1.528-0.286,0.66-0.332,0.785c-0.359,0.998-0.795,1.968-1.229,2.935
		c-1.672,3.731-4.583,8.441-7.054,12.362c-2.675,4.247-5.4,8.188-8.396,12.109c-1.191,1.558-2.43,3.079-3.713,4.562
		c-0.305,0.353-2.426,2.516-0.672,0.789c-0.428,0.421-0.886,0.806-1.367,1.164c-2.537,1.885-5.318,6.541-3.787,9.769
		C627.896,396.855,632.324,394.364,634.395,392.826L634.395,392.826z"/>
	<path d="M646.763,358.054c5.826,6.336,11.487,12.82,17.39,19.086c4.602,4.886,9.818,11.482,16.268,14.005
		c5.772,2.259,14.894-10.876,8.023-13.564c-4.688-1.835-10.809-9.483-14.786-13.706c-5.615-5.962-10.986-12.146-16.529-18.174
		C652.817,341.014,642.159,353.048,646.763,358.054L646.763,358.054z"/>
	<path d="M704.427,360.762c-1.648-6.094-7.617-10.613-12.44-14.19c-5.442-4.037-11.369-7.344-17.022-11.062
		c-5.674-3.73-15.713,8.836-10.365,12.353c5.285,3.475,10.754,6.645,15.937,10.28c4.582,3.213,10.385,7.18,11.927,12.877
		c1.013,3.743,6.614,0.854,8.178-0.489C703.481,368.094,705.437,364.494,704.427,360.762L704.427,360.762z"/>
	<path d="M717.67,341.125c-7.123,8.555-15.294,16.169-19.944,26.472c-1.227,2.717-0.449,6.747,3.211,6.47
		c3.979-0.3,6.914-3.998,8.42-7.334c3.338-7.396,10.604-13.238,15.726-19.389c1.768-2.123,4.307-6.911,1.477-9.286
		C723.739,335.692,719.438,339.001,717.67,341.125L717.67,341.125z"/>
	<path d="M705,374.23c0-2.548,0-5.096,0-7.644c0-3.913-4.838-3.369-7.084-2.039c-3.356,1.988-5.916,5.639-5.916,9.566
		c0,2.548,0,5.096,0,7.644c0,3.913,4.838,3.369,7.084,2.039C702.44,381.809,705,378.158,705,374.23L705,374.23z"/>
	<path d="M764.109,330.325c-19.379-1.062-32.658,12.095-42.589,27.203c-1.34,2.039-2.724,7.382,0.938,8.139
		c3.463,0.715,6.947,0.609,10.459,0.466c3.291-0.134,6.608-0.317,8.194,3.036c1.447,3.062-0.71,0.782,2.579-1.372
		c-0.926,0.606-2.315,0.953-3.417,1.184c-3.245,0.68-6.618,0.815-9.925,0.836c-6.038,0.037-13.545,13.856-5.209,13.805
		c10.791-0.066,25.115-2.773,28.477-14.956c1.539-5.578-0.048-12.682-5.813-15.182c-5.523-2.395-11.617-0.204-17.319-1.382
		c0.313,2.713,0.625,5.426,0.938,8.139c6.844-10.412,14.446-16.825,27.478-16.111C764.925,344.46,772.516,330.786,764.109,330.325
		L764.109,330.325z"/>
	<path d="M659.11,369.346c-1.908,0.408-3.783,0.854-5.654,1.406c-0.683,0.202-1.364,0.408-2.048,0.61
		c-0.453,0.133-0.908,0.261-1.364,0.383c-0.752,0.167-0.914,0.217-0.487,0.148c-3.876,0.828-7.008,3.583-8.42,7.334
		c-0.881,2.338-0.651,7.295,3.211,6.47c1.909-0.408,3.783-0.854,5.655-1.406c0.683-0.202,1.364-0.408,2.047-0.61
		c0.454-0.133,0.908-0.261,1.365-0.383c0.751-0.168,0.913-0.217,0.486-0.148c3.876-0.828,7.007-3.583,8.42-7.334
		C663.201,373.479,662.973,368.521,659.11,369.346L659.11,369.346z"/>
	<path d="M312.865,499.964c-13.741,2.254-26.396,7.694-39.142,13.075c-3.576,1.51-6.701,4.784-7.329,8.735
		c-0.517,3.245,1.968,5.778,5.24,4.397c11.671-4.928,23.432-10.338,36.021-12.403c3.863-0.634,7.058-3.718,8.42-7.335
		C317.009,503.956,316.714,499.332,312.865,499.964L312.865,499.964z"/>
	<path d="M306.688,533.586c-4.542-6.505-4.802-16.578-11.628-21.431c-5.504-3.913-15.65,8.595-10.365,12.352
		c5.792,4.117,6.088,13.692,10.029,19.337C298.995,549.961,310.188,538.599,306.688,533.586L306.688,533.586z"/>
	<path d="M316.543,516.228c4.985,5.952,5.885,14.58,12.74,19.108c5.664,3.742,15.709-8.821,10.365-12.352
		c-6.419-4.241-7.902-13.333-12.74-19.108c-2.351-2.808-7.448,1.35-8.888,3.066C315.903,509.466,314.15,513.37,316.543,516.228
		L316.543,516.228z"/>
	<path d="M345.844,509.856c3.647,3.576,5.073,9.085,7.3,13.566c2.672,5.376,6.84,9.706,12.98,10.608
		c3.782,0.556,7.144-2.352,8.963-5.426c1.138-1.922,2.87-7.579-0.939-8.139c-10.71-1.573-11.187-16.342-17.939-22.962
		C351.575,492.96,341.024,505.131,345.844,509.856L345.844,509.856z"/>
	<path d="M330.874,530.631c8.094-3.392,16.064-7.049,23.922-10.956c3.164-1.572,6.121-5.95,5.761-9.565
		c-0.394-3.951-4.371-3.311-6.929-2.038c-6.787,3.374-13.675,6.498-20.666,9.427c-3.577,1.499-6.702,4.792-7.33,8.735
		C325.116,529.486,327.601,532.002,330.874,530.631L330.874,530.631z"/>
	<path d="M403.982,526.169c-5.748-3.383-8.472-10.26-11.41-15.928c-3.255-6.278-6.848-13.065-12.794-17.195
		c-5.557-3.859-15.671,8.667-10.365,12.352c11.568,8.034,12.005,25.943,24.205,33.122
		C399.501,541.983,409.387,529.349,403.982,526.169L403.982,526.169z"/>
	<path d="M391.386,535.727c7.766-2.119,14.725-6.261,22.294-8.918c3.599-1.264,6.729-4.959,7.329-8.735
		c0.543-3.415-1.957-5.55-5.24-4.397c-7.569,2.658-14.529,6.8-22.294,8.918c-3.604,0.983-6.761,5.16-7.329,8.735
		C385.571,534.938,388.107,536.621,391.386,535.727L391.386,535.727z"/>
	<path d="M385.016,517.254c4.588-1.357,8.984-3.215,13.376-5.096c3.573-1.531,6.699-4.77,7.329-8.735
		c0.514-3.23-1.97-5.798-5.24-4.397c-4.393,1.882-8.789,3.739-13.376,5.096c-3.605,1.066-6.751,5.101-7.33,8.735
		C379.211,516.408,381.734,518.225,385.016,517.254L385.016,517.254z"/>
	<path d="M372.914,503.878c7.055-1.968,13.966-4.403,21.021-6.37c3.605-1.006,6.758-5.144,7.33-8.735
		c0.571-3.594-1.961-5.313-5.241-4.397c-7.055,1.968-13.966,4.403-21.021,6.37c-3.605,1.005-6.758,5.144-7.33,8.735
		C367.102,503.075,369.634,504.792,372.914,503.878L372.914,503.878z"/>
	<path d="M475.212,518.39c-0.309-9.28-5.866-18.896-14.436-22.765c-5.588-2.522-14.813,10.5-8.024,13.564
		c5.98,2.699,9.563,10.514,9.77,16.728c0.129,3.876,4.593,3.422,6.929,2.038C472.721,526.02,475.342,522.28,475.212,518.39
		L475.212,518.39z"/>
	<path d="M446.382,501.545c15.936,3.442,29.395,13.175,45.996,14.135c6.023,0.349,13.617-13.318,5.209-13.805
		c-15.347-0.888-28.37-10.695-43.181-13.895C448.238,486.648,439.51,500.061,446.382,501.545L446.382,501.545z"/>
	<path d="M502.602,506.924c-0.298-8.625-4.293-17.985-9.28-24.933c-4.359-6.072-15.518,5.309-11.965,10.258
		c4.489,6.253,8.286,14.421,8.555,22.202c0.134,3.875,4.59,3.424,6.929,2.038C500.107,514.556,502.736,510.813,502.602,506.924
		L502.602,506.924z"/>
	<path d="M528.081,510.109c-0.301-6.119-4.052-12.093-7.298-17.071c-2.839-4.353-6.487-10.137-11.596-12.064
		c-5.814-2.193-14.908,10.968-8.024,13.564c2.453,0.926,6.353,6.76,8.307,9.756c2.488,3.815,5.691,8.653,5.922,13.342
		c0.19,3.857,4.55,3.447,6.929,2.038C525.548,517.764,528.271,513.98,528.081,510.109L528.081,510.109z"/>
	<path d="M519.768,515.68c8.37-0.137,16.621-2.016,24.491-4.795c3.599-1.271,6.728-4.953,7.33-8.735
		c0.542-3.41-1.958-5.557-5.241-4.397c-6.949,2.454-13.982,4.002-21.371,4.123C518.941,501.974,511.45,515.815,519.768,515.68
		L519.768,515.68z"/>
	<path d="M525.61,487.05c-0.34,0.203-0.688,0.391-1.044,0.565c1.396-0.718-0.442,0.128-0.625,0.201
		c-0.964,0.38-1.937,0.735-2.896,1.127c-2.627,1.072-5.142,2.425-7.237,4.365c-2.362,2.187-5.421,6.322-3.787,9.769
		c1.594,3.361,6.247,1.299,8.178-0.488c0.64-0.555,0.549-0.526-0.274,0.085c0.329-0.215,0.666-0.413,1.013-0.596
		c-0.731,0.32-0.725,0.319,0.019-0.004c0.569-0.245,1.153-0.46,1.731-0.682c2.081-0.796,4.151-1.636,6.091-2.738
		c3.116-1.771,6.136-5.807,5.761-9.565C532.158,485.257,528.137,485.614,525.61,487.05L525.61,487.05z"/>
	<path d="M531.698,467.178c-10.17,4.629-21,7.754-30.292,14.14c-3.02,2.075-6.158,5.585-5.761,9.566
		c0.363,3.645,4.47,3.729,6.929,2.039c8.312-5.711,17.938-8.472,27.036-12.613c3.56-1.62,6.688-4.706,7.33-8.734
		C537.442,468.406,534.96,465.693,531.698,467.178L531.698,467.178z"/>
	<path d="M587.791,502.819c0.74,0.11,1.483,0.172,2.23,0.221c4.125,0.27,8.458-5.44,8.89-9.071c0.001-0.013,0.003-0.027,0.005-0.041
		c0.247-2.081-0.229-3.778-2.273-4.614c-2.366-0.968-5.104-1.46-7.608-1.942c-2.716-0.521-5.647-2.242-8.258-3.228
		c-3.102-1.171-6.174-2.375-9.166-3.807c-9.017-4.318-17.859-12.074-28.447-9.338c-6.004,1.551-11.414,15.541-2.089,13.132
		c3.939-1.018,9.321,2.693,12.519,4.525c4.222,2.419,8.44,4.607,12.887,6.58c4.547,2.018,10.086,4.848,14.945,5.781
		c2.364,0.454,4.96,0.948,7.193,1.862c-0.757-1.538-1.515-3.076-2.273-4.614c-0.001,0.014-0.003,0.027-0.004,0.041
		c2.963-3.023,5.926-6.047,8.889-9.071c0.195,0.006,0.391,0.013,0.585,0.02C589.574,488.321,581.025,501.808,587.791,502.819
		L587.791,502.819z"/>
	<path d="M558.564,507.428c10.882-13.295,28.223-25.199,30.606-43.497c0.445-3.413-1.883-5.556-5.24-4.397
		c-3.524,1.216-6.841,4.989-7.329,8.734c-0.868,6.665-6.188,12.095-10.493,16.881c-4.89,5.437-10.32,10.396-14.955,16.06
		c-1.75,2.138-4.32,6.9-1.477,9.285C552.483,512.85,556.814,509.565,558.564,507.428L558.564,507.428z"/>
	<path d="M627.529,447.095c-13.099,2.776-26.178,5.818-38.504,11.165c-3.571,1.549-6.697,4.756-7.329,8.734
		c-0.512,3.218,1.971,5.816,5.24,4.397c11.332-4.916,23.331-7.938,35.384-10.492c3.876-0.821,7.009-3.588,8.42-7.334
		C631.623,451.223,631.391,446.277,627.529,447.095L627.529,447.095z"/>
	<path d="M624.537,487.087c-2.476-9.082-4.709-22.029-12.264-28.437c-5.058-4.29-15.436,8.051-10.365,12.353
		c3.24,2.749,4.699,7.597,6.127,11.453c1.801,4.865,3.174,9.888,4.537,14.889c1.02,3.739,6.609,0.857,8.179-0.488
		C623.588,494.422,625.555,490.815,624.537,487.087L624.537,487.087z"/>
	<path d="M690.783,479.443c-3.968-12.855-6.28-26.171-10.828-38.855c-2.331-6.501-14.096,4.315-11.965,10.258
		c4.546,12.679,6.86,26.001,10.828,38.855c1.139,3.688,6.532,0.923,8.178-0.489C689.756,486.845,691.915,483.111,690.783,479.443
		L690.783,479.443z"/>
	<path d="M683.471,474.914c4.8,0.318,10.316-2.59,14.64-4.322c6.152-2.465,12.29-5.334,18.769-6.843
		c6.058-1.41,11.48-15.318,2.088-13.132c-5.656,1.317-11.048,3.709-16.41,5.888c-4.095,1.664-9.765,4.876-13.877,4.604
		C682.662,460.71,675.059,474.357,683.471,474.914L683.471,474.914z"/>
	<path d="M719.811,478.26c-0.098-9.09-1.109-18.439-3.028-27.331c-0.731-3.387-1.717-6.738-2.765-10.038
		c-0.547-1.721-1.227-4.817-2.896-5.898c-2.573-1.667-5.235-0.065-7.378,1.536c-0.039,0.029-0.079,0.059-0.118,0.089
		c-2.533,1.894-5.321,6.535-3.787,9.769c1.677,3.536,6.111,1.057,8.178-0.489c0.04-0.029,0.079-0.059,0.119-0.088
		c-2.459,0.512-4.919,1.024-7.378,1.536c-1.053-0.681-0.091-0.001,0.343,1.077c0.495,1.233,0.885,2.512,1.286,3.777
		c0.837,2.633,1.542,5.307,2.067,8.019c1.619,8.368,2.575,17.049,2.666,25.569c0.042,3.901,4.654,3.386,6.93,2.039
		C717.377,485.854,719.852,482.176,719.811,478.26L719.811,478.26z"/>
	<path d="M743.633,472.028c11.938-4.348,21.803-17.486,13.942-29.749c-7.131-11.125-21.193-12.209-31.357-4.71
		c-10.2,7.526-12.557,20.924-6.45,31.751c5.487,9.729,16.157,13.723,25.193,5.877c2.418-2.099,5.391-6.387,3.787-9.769
		c-1.619-3.415-6.203-1.226-8.178,0.489c-1.341,1.164,1.086-0.129-0.417-0.043c-0.487,0.027-1.671-0.337-2.204-0.615
		c-2.334-1.211-4.299-3.264-5.742-5.425c-1.6-2.396-2.686-5.113-3.107-7.956c-0.19-1.287-0.115-2.407,0.107-3.678
		c0.177-1.009,0.504-0.767-0.168-0.108c4.307-4.224,11.411-0.658,14.992,2.664c1.91,1.771,3.321,4.228,3.673,6.811
		c0.144,1.057-0.021,0.973,0.587,0.144c0.233-0.318-2.034,0.99-2.57,1.185c-3.596,1.31-6.723,4.925-7.329,8.734
		C737.854,471.015,740.351,473.224,743.633,472.028L743.633,472.028z"/>
	<path d="M791.899,445.91c-7.745-4.031-15.285-2.093-23.599-2.637c-0.674,4.235-1.347,8.47-2.021,12.705
		c9.968-4.941,21.241-10.555,25.421-21.645c4.829-12.81-8.699-16.653-18.54-15.454c-11.729,1.429-22.972,9.652-22.85,22.407
		c0.104,11.052,6.94,20.841,11.313,30.579c2.917,6.497,14.546-4.51,11.965-10.258c-2.887-6.429-6.439-12.512-8.908-19.132
		c-1.064-2.853-1.955-6.058-1.554-9.12c-0.023,0.178-1.87,1.631,0.077,0.55c1.004-0.557,2.498-0.826,3.631-1.046
		c3.159-0.613,6.395-0.681,9.522,0.082c1.154,0.281,1.946,0.736,2.843,1.47c1.031,0.843,0.193,2.302,0.968,0.749
		c-2.046,4.103-10.798,7.102-15.057,9.213c-3.927,1.947-9.643,12.206-2.021,12.705c5.942,0.389,12.908-1.696,18.442,1.185
		C787.607,461.423,797.327,448.735,791.899,445.91L791.899,445.91z"/>
	<path d="M793.11,415.721c0.031,12.522,0.341,26.023,5.459,37.673c2.856,6.501,14.5-4.487,11.965-10.258
		c-4.712-10.726-4.704-23.42-4.732-34.942c-0.01-3.91-4.677-3.373-6.93-2.039C795.522,408.139,793.102,411.796,793.11,415.721
		L793.11,415.721z"/>
	<path d="M850.467,430.997c-7.226,4.209-16.117,5.669-23.852,8.791c1.591,2.044,3.181,4.089,4.771,6.134
		c6.042-12.7,12.27-25.282,14.483-39.317c0.351-2.226-0.841-5.311-3.681-4.734c-9.796,1.99-19.505,4.379-29.3,6.37
		c-3.874,0.787-7.018,3.611-8.42,7.334c-0.892,2.367-0.649,7.255,3.211,6.47c9.796-1.991,19.505-4.379,29.3-6.37
		c-1.227-1.578-2.453-3.156-3.681-4.734c-2.015,12.779-8.044,24.284-13.544,35.845c-1.667,3.505,0.592,7.821,4.771,6.134
		c8.914-3.599,18.746-5.447,27.107-10.318c3.105-1.809,6.139-5.779,5.762-9.566C857.017,429.227,852.986,429.529,850.467,430.997
		L850.467,430.997z"/>
	<path d="M869.116,433.173c10.292-3.232,17.888-13.629,15.789-24.566c-1.543-8.036-8.112-15.831-16.931-14.953
		c-12.86,1.281-19.495,15.998-20.986,27.126c-0.77,5.737-0.113,12.14,5.335,15.286c5.443,3.144,12.364,2.573,18.417,2.54
		c6.038-0.033,13.546-13.85,5.209-13.805c-5.718,0.031-15.917,1.435-16.485-6.347c-0.232-3.185,0.854-6.617,1.972-9.554
		c0.592-1.268,0.508-1.231-0.252,0.112c0.828-1.145,0.366-0.621,1.332-1.464c-0.566,0.495,0.543-0.118,0.96-0.16
		c3.798-0.378,6.821,4.105,8.159,7.125c0.759,1.713,1.041,3.729,0.824,5.341c-0.236,1.763,1.198-1.282,0.048,0.097
		c1.122-1.345-0.366-0.204-1.303,0.09c-3.604,1.132-6.743,5.053-7.329,8.734C863.317,432.283,865.833,434.205,869.116,433.173
		L869.116,433.173z"/>
	<path d="M916.106,385.462c-1.405,8.993-4.336,17.65-5.096,26.753c3.822-2.782,7.646-5.563,11.468-8.345
		c-9.558-5.367-20.619-9.43-28.027-17.835c-4.208-4.774-13.472,6.612-11.165,11.305c4.413,8.98-0.22,24.158,8.444,30.985
		c5.254,4.14,15.538-8.277,10.365-12.353c-3.206-2.526-3.097-8.917-3.517-12.592c-0.619-5.411-0.886-11.328-3.328-16.298
		c-3.722,3.769-7.443,7.537-11.165,11.305c7.408,8.405,18.472,12.469,28.027,17.835c4.803,2.697,11.076-3.657,11.468-8.345
		c0.76-9.103,3.69-17.761,5.096-26.753c0.536-3.429-1.95-5.533-5.241-4.397C919.843,377.967,916.694,381.703,916.106,385.462
		L916.106,385.462z"/>
	<path d="M955.601,356.734c-6.574-3.711-12.563-7.529-20.413-7.096c-3.798,0.209-7.173,4.021-8.42,7.334
		c-1.052,2.794-0.574,6.679,3.211,6.47c5.768-0.318,10.439,2.924,15.257,5.644c3.248,1.833,6.754-0.523,8.889-3.067
		C955.548,364.322,958.788,358.534,955.601,356.734L955.601,356.734z"/>
	<path d="M978.532,347.179c-8.743-4.904-15.996-11.893-26.783-9.644c-3.876,0.808-7.013,3.597-8.42,7.334
		c-0.886,2.352-0.65,7.275,3.211,6.47c8.743-1.823,14.517,4.204,21.627,8.191C974.13,362.876,983.95,350.218,978.532,347.179
		L978.532,347.179z"/>
	<path d="M272.796,388.465c-6.644,7.689-11.438,16.873-10.92,27.256c0.192,3.857,4.549,3.448,6.929,2.039
		c3.227-1.911,5.954-5.695,5.761-9.566c-0.268-5.391,2.227-9.558,5.641-13.51c1.806-2.09,4.281-6.933,1.477-9.286
		C278.838,383.01,274.602,386.374,272.796,388.465L272.796,388.465z"/>
	<path d="M288.657,386.409c-8.379,4.583-11.29,13.299-10.22,22.305c0.447,3.766,4.364,3.558,6.929,2.039
		c3.049-1.806,6.21-5.788,5.761-9.566c-0.109-0.92-0.198-1.839-0.257-2.764c-0.024-0.451-0.034-0.902-0.031-1.353
		c-0.009,0.491,0.015,0.369,0.072-0.367c0.161-0.802,0.14-0.839-0.063-0.109c0.312-0.811,0.273-0.778-0.115,0.099
		c-0.323,0.601-2.427,2.153-0.907,1.322c3.131-1.712,6.131-5.849,5.761-9.566C295.201,384.58,291.193,385.021,288.657,386.409
		L288.657,386.409z"/>
</g>
</svg>
