<svg id="satnh" x="0px" y="200px" viewBox="0 0 650 490" xmlns="http://www.w3.org/2000/svg" version="1.1">
  <style>
    g { fill: black; }
  </style>
  <g>
    <path fill-rule="evenodd" clip-rule="evenodd" d="M77.409,238.569c1.234-2.677-0.724-15.411-4.841-14.407
      c-2.406-4.091-5.173-1.969-7.615-4.665c-5.316-0.479-11.861-5.04-17.01-4.325c-2.988-3.654-12.027-1.955-15.579-5.903
      c-2.431-0.219-11.753-3.825-12.253-7.333c1.381-0.389,6.637-3.706,7.124-5.046c0.443-0.095,5.419-0.873,5.833-1.492
      c1.765-0.498,11.561-2.975,8.4,1.422c0.561,1.184-2.732,6.193,1.814,5.118c3.324-0.786,3.082-4.701,3.544-7.34
      c0.261-1.494,11.937-3.097,8.836-5.782c1.107-2.399-1.405-15.956-4.657-15.033c-0.504-0.312-5.575-7.405-6.411-1.564
      c-0.649,0.154-2.916,2.203-3.077,2.794c-3.359,0.053-7.018,1.201-10.18,2.172c-1.807,0.329-3.662,0.905-5.43,1.409
      c-4.238,0.533-5.973,4.074-9.249,4.442c-0.613,1.278-3.137,2.419-4.743,2.599c-0.65,1.351-0.213,4.052-1.167,5.085
      c0.159,0.705-0.224,3.787-0.753,4.413c-3.053,0.629,0.791,3.593-0.224,4.583c0.569,0.238,2.831,6.643,2.57,7.48
      c0.932,0.866-0.857,4.034-0.366,4.895c-0.275,0.88,0.955,0.547,0.802,1.411c6.182,2.781,6.578,13.079,15.176,12.44
      c0.507,2.904,29.735,10.071,29.608,10.5c-2.797,0.758-4.873,3.574-7.744,3.896c-0.381,0.795-2.963,2.144-3.927,2.251
      c-0.625,1.3-1.272,0.237-1.54,2.037c-0.19,1.288,1.606,2.399,0.682,3.3c1.895,0.795,0.559-0.965,2.184-0.774
      c-0.568,1.167-3.063,7.838,0.501,7.563c0.485,4.466-3.35,6.612,3.499,5.79c1.856-3.099,9.318-3.195,10.688-6.418
      c2.016-0.611,9.777-4.021,10.548-5.864C74.431,247.62,80.026,240.835,77.409,238.569C77.961,237.374,78.052,239.125,77.409,238.569
      z"/>
    <path fill-rule="evenodd" clip-rule="evenodd" d="M98.77,245.971c1.758,0.879,11.204-0.069,15.36-1.128
      c1.653,0.263,9.86-1.474,6.961-3.99c0.866-1.878-0.234-11.107-1.78-12.753c-4.42-0.936-11.613-1.238-16.614,0.149
      c-3.663,1.016-5.668-6.197-7.688-8.657c5.242-1.411,10.438-5.779,15.847-6.425c0.735-1.215,6.78-3.391,8.314-3.578
      c0.217-0.357,3.676-3.257,3.783-3.283c-1.126-3.408,0.632-8.033-1.865-11.113c1.839-0.017-1.36-4.008-1.429-4.083
      c-3.016-0.27-4.388,1.885-6.785,2.153c-0.561,1.17-6.852,3.428-8.31,3.591c-1.036,2.152-13.509,6.394-16.083,6.933
      c-0.35-3.595-0.539-7.034,0.055-10.714c0.256-1.584,1.466-5.643,3.446-5.884c1.433-2.389,5.807-4.489,6.544-6.574
      c1.91-0.58,6.056-3.271,6.593-5.354c2.596-0.743,3.999-6.766,6.513-7.07c2.363-3.928,5.509-9.921,1.185-15.258
      c0.478-0.004,0.278-4.937-3.479-3.821c-2.278,0.677-3.252,3.749-4.953,3.938c-5.294,10.99-21.598,13.512-23.631,27.231
      c-1.469,9.906-0.713,23.647,2.948,29.507c-1.92,4.152,1.719,8.266,2.521,12.316c-2.546,1.84,4.632,9.294,4.264,11.349
      C91.741,234.028,99.044,244.445,98.77,245.971C98.772,245.972,98.91,245.189,98.77,245.971z"/>
    <path fill-rule="evenodd" clip-rule="evenodd" d="M128.537,202.388c-0.546,0.848-0.271,1.151,0.819,0.909
      c-0.007-0.028,0.245-0.854,0.261-0.86c-0.12,0.229,0.12,0.254,0.72,0.078c-0.731,1.485-2.075,2.322-1.229,3.902
      c0.853,1.591,2.886,6.074,1.088,7.123c-2.628,1.535,3.315,1.659,3.961,1.581c0.444-0.731,2.614-1.836,3.489-2.07
      c0.649,1.319,0.181,7.38,2.348,8.201c-1.33,1.625,4.621,9.03,4.74,11.032c-1.654,2.027,11.141-1.17,10.5,2.385
      c4.854,2.188,15.284,3.274,21.585,1.502c5.053-1.42,2.026-18.318-2.315-17.33c-0.582-0.776-10.71-0.306-11.97-0.042
      c-0.339-0.407-10.023-3.615-10.662-3.552c-0.878-0.909-4.196-2.624-5.483-2.497c-0.687-0.702-1.518-3.36-1.92-3.488
      c1.445-0.431,7.748-1.417,8.412-2.614c6.105-1.711,6.021-5.474,4.656-11.816c-0.52-2.413-0.84-4.712-2.577-6.632
      c-2.669-0.239-4.567,1.507-6.96,1.774c-0.458,0.916-6.192,2.089-7.273,2.405c-0.535-2.322,0.316-8.064,2.906-8.373
      c3.335-5.507,4.466-5.077,10.974-6.919c2.479,0.167,10.466-0.679,10.828-3.12c1.316,0.322-0.799-11.314-0.874-11.729
      c-1.218-6.747-13.962-1.966-19.39-1.357c-0.924,1.972-5.85,2.274-6.297,5.334c-1.004,0.218-3.585,3.616-3.745,4.74
      c-3.268,0.706-0.909,8.581-2.605,10.423c0.784,3.402-1.771,10.104,1.14,12.628c-0.386,1.396-1.717,2.158-1.962,3.23
      C129.818,197.761,125.29,199.949,128.537,202.388C128.357,202.563,128.035,202.011,128.537,202.388z"/>
    <path fill-rule="evenodd" clip-rule="evenodd" d="M179.021,182.812c-0.549,0.855-0.273,1.161,0.825,0.916
      c-0.139-0.608,0.914-1.53,1.299-1.637c-0.254,1.609-1.353,2.1-1.655,3.386c-0.298,0.944,1.545,2.941,1.047,4.525
      c0.843,0.79,0.603,4.974,0.416,6.012c3.584,1.617,9.584-6.407,10.628-8.903c0.692,1.063-1.371,3.894,0.985,4.864
      c-0.214,1.027,2.32,3.198,0.584,5.08c0.731,3.266-1.189,15.02,2.227,16.323c-0.193,0.379,0.051,3.516,0.293,3.841
      c-1.771,1.199,0.345,2.626,1.988,2.238c2.289-0.542,2.268-3.526,3.06-3.722c-1.136-3.452,2.358-8.278,0.876-11.628
      c2.474,1.154,3.293,6.107,5.736,7.084c-0.763,4.192,11.95,7.206,11.791,8.128c3.368,1.521,6.966,2.161,11.066,1.667
      c2.474-4.115,1.027-13.843-2.201-17.42c-5.729-0.509-12.63-3.495-16.631-7.39c-0.344-4.951-9.29-7.932-9.29-13.205
      c0-2.014-0.742-6.182-0.207-8.117c2.745-0.8,4.229-6.267,7.038-6.602c2.846-4.724,11.901-8.431,13.385-13.578
      c7.572-2.208,6.468-17.64,2.264-22.288c-7.225-0.646-8.717,10.969-14.531,11.621c-1.039,2.159-9.323,11.493-11.604,11.815
      c-1.083-3.983-2.164-5-5.039-8.183c-2.06-0.182-3.716-3.257-5.799-3.126c-1.122-1.025-2.477-1.472-4.116-0.984
      c-5.414,1.608,0.353,2.779-1.69,4.775c0.749,0.409,1.201,0.264,1.356-0.433c0.481,0.352-1.063,2.7-0.535,3.684
      c2.01,3.751,0.892,4.668,0.525,8.08c2.807,0.862,4.902,4.086,7.384,5.121C189.899,167.734,174.769,179.617,179.021,182.812
      C178.841,182.988,178.515,182.431,179.021,182.812z M191.783,186.48C191.822,186.468,191.72,186.76,191.783,186.48
      C191.789,186.478,191.774,186.517,191.783,186.48z M201.501,203.958C201.621,203.833,201.667,204.161,201.501,203.958
      C201.522,203.936,201.531,203.995,201.501,203.958z"/>
    <path fill-rule="evenodd" clip-rule="evenodd" d="M272.668,187.97c-0.363,2.035,3.056,14.026,2.938,13.996
      c-1.043,0.851-0.917,2.273,0.651,2.433c-1.92,1.091,5.063,10.877,5.259,12.588c-1.042,1.179,2.541,4.53,2.309,5.831
      c6.37,2.877,4.639-7.682,4.244-10.266c-0.414-2.712-8.787-23.762-7.37-23.919c0.921-1.541,9.69-6.955,11.498-7.175
      c2.2-3.614,11.003-3.705,12.582-6.945c2.265-0.668,11.54-3.295,12.522-5.245c4.664-1.376,8.524-5.545,13.049-6.309
      c0.638,5.489,12.312,15.047,16.441,14.778c0.379,1.141,6.591,4.396,8.184,4.2c-0.105,1.25,4.622-1.017,4.901-2.821
      c0.261-1.677-2.088-11.027-1.354-11.235c-1.637-1.014-1.259-4.083-4.217-3.842c-1.353-1.306-3.286-1.498-4.558-2.908
      c-2.855-0.253-5.306-4.24-7.997-4.441c3.234-0.94,4.392-7.446,7.081-7.894c-0.059-0.146,2.437-3.497,2.741-3.598
      c-0.057-0.168,1.16-1.684,1.512-1.725c1.127-1.871,3.516,0.652,3.989-2.543c1.052,0.258,0.56-3.729,0.533-3.896
      c-0.435-2.856-0.271-10.585-2.473-12.939c1.302,0.279-2.606-3.355-1.699-2.353c-2.528-0.227-3.956,1.918-5.194,2.056
      c-0.351,0.732-1.918,3.53-2.722,3.62c-1.496,3.103-6.179,6.16-6.657,9.535c-0.447,0.093-8.438,5.459-8.501,5.696
      c-3.374-1.353-6.424-9.274-8.959-11.987c-3.536-0.746-5.933-11.925-9.556-11.925c-1.895,0-11.42-6.089-12.715-7.527
      c-1.676-0.149-5.493-2.302-6.639-3.575c-0.912-0.081-13.914,0.64-8.644,4.49c-7.007,2.007-1.085,14.793-5.074,19.116
      c0.633,2.801-1.345,16.977-3.36,19.162c0.608,2.62-2.629,6.734-1.597,9.186c-0.335,2.187,0.3,9.29-1.038,10.738
      C273.646,174.063,269.727,185.542,272.668,187.97C272.574,188.49,272.354,187.711,272.668,187.97z M290.857,125.682
      c2.745,1.24,20.972,8.482,20.275,12.385c1.288,0.577,8.184,8.912,8.279,10.453c-6.113,1.458-11.89,7.358-18.51,8.104
      c-0.627,1.303-8.381,4.158-9.983,4.337c-0.649,1.357-6.641,5.727-8.1,6.077c0.247-1.352,1.535-12.359,2.593-12.621
      c-1.014-3.052,3.395-8.688,1.601-11.515c1.204-1.045,0.086-8.846,1.479-9.193c-0.464-1.407,0.319-3.853,0.554-5.222
      C289.262,127.216,291.078,124.442,290.857,125.682C291.297,125.88,290.896,125.467,290.857,125.682z M286.324,111.582
      C286.129,112.816,285.555,111.795,286.324,111.582C286.286,111.824,286.117,111.64,286.324,111.582z"/>
    <path fill-rule="evenodd" clip-rule="evenodd" d="M370.321,171.087c-1.214,1.17,1.104,1.066,1.606,1.075
      c-0.312,2.585-1.805,0.887-0.158,4.707c1.273,2.956,0.002,4.145-0.298,6.926c3.819,1.171,8.381,2.002,13.435,0.891
      c3.416,0.743,19.094-3.649,20.852-6.804c3.809-1.148,6.037-9.628,9.316-10.031c0.455-0.758,1.309-2.858,2.125-3.062
      c-0.257-0.794,0.91-3.36,0.679-4.879c-0.379-2.479-0.233-9.304-2.01-11.201c-3.747-0.795-8.883,1.087-9.511,5.507
      c-2.727,0.575-3.314,5.923-6.398,6.266c-1.703,3.568-12.968,5.047-16.879,5.881c0.426,0.468-6.861-0.513-4.953-0.96
      c-0.529-1.601,0.799-4.464-0.078-5.818c-0.086-3.531-0.025-7.16-0.025-10.703c0-4.313,0.399-9.419,0.933-13.554
      c1.253,0.307-1.036-12.162-0.782-12.234c-0.353-0.712-0.592-1.461-0.722-2.245c-2.243-0.473-2.638-0.572-5.335-0.27
      c-0.396,0.826-1.712,3.027-1.068,3.966c-0.463,3.174,0.897,13.651-1.119,15.833c0.485,2.127,1.219,13.216-0.207,14.767
      C370.438,158.292,369.248,170.283,370.321,171.087C370.13,171.271,369.789,170.689,370.321,171.087z M371.202,171.776
      c-0.006,0.051-0.011,0.103-0.023,0.148C371.179,171.869,371.186,171.819,371.202,171.776z"/>
    <path fill-rule="evenodd" clip-rule="evenodd" d="M381.591,104.047c-0.545,0.848-0.271,1.151,0.819,0.909
      c-0.117-0.504,0.332-0.814,0.574-1.051c-0.482-0.358,0.625,11.084,0.267,11.294c-2.671,1.559,5.424,2.357,6.693,2.086
      c1.485,0.391,8.432-1.468,7.933,1.339c2.037,0.92,16.906,10.852,16.283,14.32c2.09,0.945,15.059,13.575,14.83,14.857
      c1.627,0.733,3.196,3.899,4.777,4.061c0.122,0.885,6.781,3.423,7.694,4.518c-2.509,1.634,3.344,3.637,4.898,0.148
      c2.306-2.511,2.701-3.883,1.503-8.124c0.241-1.328,0.75-12.367-0.016-12.597c0-4.315-0.534-11.371,0.318-16.016
      c-0.017,0.875,5.363,6.97,6.295,7.215c-0.434,1.557,3.154,3.011,2.404,5.385c1.396,1.288,0.123,1.836-0.084,3.774
      c0.86,0.264-1.402,3.635,2.646,2.678c2.629-0.622,4.464-1.813,6.152-3.412c1.6-1.517-2.678-12.833,0.424-13.604
      c-1.737-5.261,5.304-12.556,4.322-17.4c0.67-0.025,3.29-7.567,3.097-8.503c0.591-0.022,1.682-3.616,1.549-4.252
      c0.288-0.012,4.378-3.105,5.362-3.223c0.438-0.721,1.313-2.842,2.086-3.046c-0.209-0.669,0.542-14.152-0.546-13.843
      c-0.374-0.232-1.623-2.988-2.054-3.465c-2.221-0.198-2.286,1.039-3.582-0.342c-3.172-0.673-5.67-1.61-6.458,2.538
      c-1.428,0.189-1.678,8.367-3.182,8.534c-1.393,2.905-6.603,13.46-5.806,16.445c-0.908,4.161-1.359,11.035-3.57,14.628
      c-0.636-1.756-3.801-4.667-5.107-6.058c-0.037-0.007-5.088-2.865-4.514-2.253c-1.256-0.266-9.987-0.269-5.278,3.17
      c-6.599,2.017,0.924,12.552-2.448,16.197c1.061,4.58-2.237,10.46-0.978,14.87c-2.854,0.14-8.297-5.688-10.04-7.772
      c-0.929-3.681-10.169-10.348-12.824-13.188c-2.665-0.566-3.945-6.401-6.896-6.618c-2.438-1.828-5.242-3.406-7.254-5.637
      c-0.949-0.085-2.909-1.986-3.586-2.733c-1.17-0.104-6.351,0.508-7.138-0.377C388.648,99.274,376.502,100.222,381.591,104.047
      C381.411,104.221,381.089,103.669,381.591,104.047z M396.896,115.165C397.127,115.221,396.816,115.715,396.896,115.165
      C396.961,115.181,396.883,115.259,396.896,115.165z M444.84,104.196C444.769,104.678,444.18,104.378,444.84,104.196
      C444.823,104.307,444.684,104.239,444.84,104.196z"/>
    <path fill-rule="evenodd" clip-rule="evenodd" d="M485.259,126.012c-1.149,1.115,0.612,0.887,1.125,0.355
      c-1.273,3.083,1.658,5.684,0.942,8.695c-0.402,1.059-0.859,1.945-0.974,3.011c1.816,0.559-0.589,1.943,2.82,1.137
      c-10.204,2.413,11.814-3.035,2.22-1.835c0.969-1.574,3.67-16.055,4.67-16.305c-3.322-10.077,16.851-18.237,24.539-20.43
      c0.813,3.245,3.641,6.508,4.182,9.738c-1.1,1.223,5.404,5.813,6.132,0.877c1.372,0.335-0.832-11.779-0.91-12.208
      c-0.504-2.806-1.842-5.489-2.712-8.567c0.6-3.298-0.662-11.034-5.231-9.629c-0.03-1.331-3.489-10.405-4.556-10.872
      c-0.11-3.178-1.02-1.688,0.199-3.965c1.039,0.079,5.843,1.501,5.547,3.164c1.414,0.637,10.223,5.825,9.957,7.314
      c5.805,2.627,6.164,10.556,14.26,8.414c0.738,0.851,2.025,7.171,1.89,8.433c2.373,0.729,1.117,6.947,3.489,8.134
      c-0.301,1.641,4.678,2.175,5.09-0.652c1.06,0.26,0.071-8.391-0.066-9.029c-0.59-2.741-1.721-9.113-3.794-11.328
      c-1.809-0.378,3.788-8.818,5.178-9.16c-0.169-0.508,3.376-6.181,4.064-6.351c-0.271-0.833,8.861-18.736,8.917-18.75
      c-1.216-3.669-0.789-10.159-1.456-13.858c-0.796-4.423-2.033-3.644-6.26-3.17c-0.252,0.525-0.658,4.175-1.313,4.248
      c-0.563,1.176-2.384,8.241-3.455,8.36c-1.336,2.774-4.346,5.823-4.766,8.688c-0.824,0.156-9.474,11.831-9.627,12.877
      c-3.798,0.85-1.295,3.094-5.109-0.99c-2.231-0.471-3.433-4.464-5.773-4.464c-3.362-2.458-11.217-10.663-15.467-9.373
      c-1.626-1.682-5.742,0.732-7.807,0.964c-1.037,2.133-1.971-1.857-2.066-1.96c0.232,0.049-3.86-3.299-3.805-3.239
      c-0.996-0.211-9.703-0.487-5.541,2.917c-7.031,1.709-1.203,10.788-4.87,14.763c0.476,2.124-0.561,13.362-2.052,14.973
      c0.494,2.193-0.569,13.089-2.196,14.846c0.203,0.901-0.517,5.953-1.466,6.059c-0.549,1.145-2.514,0.928-2.773,2.173
      c-3.646,1,0.589,3.228-0.725,4.512c1.544,0.646,0.744-0.74,2.091-0.725C487.556,104.303,483.385,124.609,485.259,126.012
      C485.079,126.186,484.754,125.634,485.259,126.012z M504.922,62.266c1.706,0.53,6.748,15.43,7.179,17.536
      c-0.921,0.858,1.449,3.423,1.612,4.23c-0.646,0.6-2.995,1.104-3.197,1.809c-3.306,0.942-6.491,3.857-9.508,4.419
      c-1.214-3.34,3.798-10.144,1.872-13.445C504.873,75.057,504.502,65.064,504.922,62.266
      C505.26,62.371,504.889,62.484,504.922,62.266z M504.855,61.875C504.605,61.423,505.168,60.944,504.855,61.875
      C504.813,61.799,504.933,61.647,504.855,61.875z M486.191,126.122C486.32,126.101,486.717,126.403,486.191,126.122
      C486.27,126.109,486.4,126.234,486.191,126.122z M502.587,46.88C502.274,48.863,501.27,47.245,502.587,46.88
      C502.523,47.279,502.22,46.982,502.587,46.88z"/>
    <path fill-rule="evenodd" clip-rule="evenodd" d="M568.104,68.194c0.931,4.073,3.646,7.713,3.772,12.395
      c-1.048,2.881,0.318,1.668,0.082,3.901c0.248,0.076,3.106,4.403,4.879,1.3c3.246-0.934,6.691-2.526,10.087-2.938
      c0.628-1.069,8.579-4.426,10.013-4.599c0.454-0.755,3.068-1.941,4.033-2.058c0.126-0.208,3.094-3.791,3.194-3.804
      c1.21-2.002,3.947-7.99,3.191-10.302c2.981-0.585-1.354-17.157-1.4-18.987c-0.072-2.91-8.85-4.867-11.675-4.779
      c1.583-3.077,9.516-6.943,13.357-7.407c1.819-2.934,8.25-0.796,10.951-1.239c8.421,3.184,8.228-4.909,7.021-10.516
      c-0.836-3.893-1.797-7.898-6.869-6.925c-1.18-1.502-5.67,0.634-6.962-0.829c-6.556-0.587-11.207,4.777-17.123,5.433
      c-0.86,1.796-9.731,8.435-11.835,8.667c-0.608,1.27-1.559,2.472-1.782,3.87c-0.187,0.033-3.707,3.177-3.71,3.195
      c-0.213,1.44,1.295,6.249,1.919,7.306c0.12,3.453,1.254,5.999,0.922,8.97c0.046,0.014,2.441,3.148,2.411,3.538
      c-1.126,3.4,10.709,4.494,14.492,4.735c-0.271,0.299-0.219,0.608,0.159,0.927c-5.12,1.532-9.106,5.39-14.04,6.829
      c-1.807,0.372-3.509,0.903-5.245,1.429C573.369,67.235,572.091,63.875,568.104,68.194
      C568.279,68.958,568.576,67.683,568.104,68.194z M602.916,44.522C602.892,44.467,602.943,44.391,602.916,44.522
      C602.909,44.506,602.922,44.496,602.916,44.522z"/>
    <path fill-rule="evenodd" clip-rule="evenodd" d="M173.43,322.908c-2.201-6.674-0.107-11.811-4.683-16.695
      c-2.332-0.491-5.694-5.877-7.271-7.56c-3.743-0.793-10.934-11.348-13.784-14.361c-0.239-0.051-0.026,0.626-0.206,0.626
      c-0.383-1.761-3.44-2.579-4.003-4.266c3.104-0.941,5.679-4.412,8.883-4.8c0.346-0.572,3.412-3.436,3.788-3.529
      c-1.221-3.691,0.681-8.706-2.02-12.036c1.072-0.01,0.079-2.091,0.08-2.038c-0.096-3.764-4.011-1.788-6.068-1.556
      c-0.67,1.401-3.676,1.516-4.02,2.979c-1.587,0.423-8.728,4.002-9.05,5.497c-3.085,0.818-17.366,8.7-17.933,11.56
      c-2.584,0.678-18.422,11.573-15.896,13.606c-3.325,0.944-3.501,4.122-0.793,5.049c-0.148-0.642,0.721-1.508,1.33-1.677
      c-0.259,1.646-1.404,2.153-1.696,3.469c-0.341,0.99,1.59,2.989,1.073,4.636c1.872,1.749-2.477,7.781,3.206,6.055
      c-2.239,4.359,7.413,10.031,11.824,9.531c0.245,2.853,4.865-1.792,4.803-1.776c-0.847-2.573-0.134-5.786-0.713-8.476
      c-0.688-3.204-1.873-8.155-6.201-7.715c0.972-2.253,13.327-9.879,15.854-10.461c-2.667,8.502,11.562,2.085,10.459,8.242
      c3.444,1.564,5.984,8.075,9.539,8.773c1.196,0.515,9.757,10.105,9.591,11.033c0.838,0.379,5.383,4.467,5.205,5.447
      c1.408,0.634,1.791,2.482,3.608,2.308C168.656,327.832,173.44,322.905,173.43,322.908
      C173.172,322.126,173.166,322.974,173.43,322.908z M138.604,292.166C138.773,292.208,138.428,293.38,138.604,292.166
      C138.64,292.174,138.578,292.345,138.604,292.166z"/>
    <path fill-rule="evenodd" clip-rule="evenodd" d="M224.546,313.9c4.882-1.486,6.873-4.971,5.37-10.282
      c0.535-2.945-0.748-7.731-2.694-9.883c-1.454-0.13-6.637,1.314-6.989,2.813c-2.932,0.795-7.861-18.66-0.137-19.584
      c0.753-1.25,6.174-9.91,7.743-10.302c-1.519-4.615,1.485-12.699-2.746-17.367c-6.731-0.604-5.148,7.147-9.342,7.885
      c-0.371-2.434-0.323-9.125-1.949-10.857c-2.692-0.569-8.981,0.824-5.952,5.292c-0.425,2.861,1.1,12.41-0.455,14.204
      c-3.919,0.653-7.207,6.204-11.477,6.681c-0.831,1.718-5.072,1.812-5.428,3.758c-1.956,0.563-4.618,5.867-5.908,5.867
      c-2.258,0-5.056-16.987-6.869-18.919c-0.595-0.125-0.56-3.081-1.065-3.397c-0.38-7.499-10.356-3.05-6.159,0.505
      c-0.376,1.149,1.215,5.929,2.062,7.51c-1.248,1.405,0.755,6.485,0.939,7.476c-1.438,1.07,3.044,8.673,3.327,10.132
      c-0.523,0.45,0.869,3.541,0.695,4.705c-3.021,0.672-2.438,5.119-0.239,5.874c-0.138-0.591,0.968-1.63,1.372-1.731
      c-0.143,0.898-2.038,3.436-2.038,3.445c-0.368,2.904,3.556,4.95,1.739,7.456c0.854,1.749-1.317,1.937-0.102,3.006
      c2.391,2.101,3.101-0.377,5.142-0.656c-0.37,0.423-0.357,0.655,0.04,0.693c-2.714,2.528,1.777,2.27,3.68,1.999
      c0.476,2.523,1.955,5.94,5.466,5.573c0.104-0.541,7.083,0.417,7.552-2.809c1.35,0.331-0.813-11.566-0.892-11.992
      c-0.825-4.531-3.248-2.44-3.891-7c0.801-0.211,4.542-2.25,4.892-3.077c3.415-1.043,6.009-4.317,9.246-5.313
      c0.842,1.033,1.175,6.313,1.039,7.521c1.391,0.438,2.057,8.507,2.407,9.494c-0.953,0.567,0.521,4.663,0.411,5.707
      c0.665,0.205,2.559,2.973,2.487,3.563C214.398,317.189,222.172,319.988,224.546,313.9
      C224.922,313.786,224.471,314.093,224.546,313.9z M183.533,307.281C183.599,307.362,183.338,307.656,183.533,307.281
      C183.547,307.298,183.505,307.336,183.533,307.281z"/>
    <path fill-rule="evenodd" clip-rule="evenodd" d="M233.061,251.916c-0.463,2.781-0.797,13.633,1.045,15.694
      c-0.376,1.949-0.159,6.978,1.451,8.315c0.145,1.994-2.67,5.01,0.69,6.163c0.025,0.113,0.162-1.729,0.712-0.681
      c-4.303,2.45,3.551,8.966,0.131,10.963c-2.253,1.314,4.036,2.298,4.507,2.701c0.642,0.55,1.179,3.302,1.881,3.52
      c0.957,1.412-1.781,4.667,2.989,4.101c-0.042,0.857,1.011,1.938,1.631,2.472c0.633,0.543,2.414,4.236,2.344,4.87
      c4.182,1.282,6.873,0.065,5.529-5.516c3.136,0.612,16.729,3.181,17.316-0.795c-0.198-0.049,1.452-17.059-4.102-15.946
      c-1.356-1.678-15.988-2.128-18.469-2.159c0.869-2.692,8.157-3.109,9.242-5.944c1.996-0.606,3.273-3.276,4.764-3.644
      c-0.536-1.622-1.402-12.139-1.381-12.145c-0.361-0.224-1.559-2.874-1.976-3.333c-2.334-0.209-3.672,1.385-5.452,1.585
      c-0.504,1.043-3.848,3.084-5.103,3.225c-1.432,2.973-7.849,3.627-9.074,6.692c-0.213-1.698-2.116-10.468,0.464-11.113
      c-0.374-1.125,1.947-3.378,2.226-4.602c1.115-0.256,5.151-7.774,5.222-8.976c0.398-1.591,2.099-2.546,2.374-4.437
      c1.097,0.268,0.059-9.343-0.358-10.494c-0.603-1.665-0.814-2.043-0.855-3.72c-0.087-3.422-5.903-2.929-6.306-0.301
      C242.514,228.767,230.868,249.689,233.061,251.916C232.975,252.432,232.836,251.688,233.061,251.916z"/>
    <path fill-rule="evenodd" clip-rule="evenodd" d="M358.24,216.447c-2.618-2.945-12.534,2.807-5.988,5.048
      c-0.07-0.306,0.25-0.857,0.422-0.965c0.369,0.27-0.603,4,0.161,5.773c0.522,1.212,1.758,5.111,0.302,5.962
      c-2.023,1.181,1.799,2.415,1.807,2.369c3.5,1.583,13.037,0.713,13.769,5.031c-1.271,2.357,7.308,10.298,7.746,12.938
      c-1.018,1.887,3.811,12.01,4.732,14.027c-1.419,1.078-30.452-14.744-32.698-17.225c-5.471-0.488-10.261-9.871-15.377-9.896
      c-4.872-3.797-11.287-6.942-15.432-11.512c-5.549-0.488-10.804-12.166-16.89-10.357c-8.944,2.657-1.229,12.454-1.839,18.371
      c0.842,0.258,3.459,15.813,3.297,17.324c2.306,0.706,3.806,15.642,4.906,18.135c-3.007,1.923,12.057,30.47,11.58,35
      c1.143,0.351,1.256,3.427,1.164,4.279c1.875,0.575-0.613,2.003,2.908,1.171c2.388-0.564,1.223-1.846,2.953-2.274
      c-1.314-3.988-0.931-9.399-1.846-13.423c-0.053-2.029-1.413-8.571-2.843-10.095c-2.813-0.599-3.828-14.974-5.989-17.276
      c-1.279-0.265-3.949-10.869-4.242-12.553c-0.516-3.139-1.248-5.128-1.248-8.382c0-1.93-2.793-5.491-2.793-7.363
      c0.296,0.059,0.406-0.005,0.334-0.192c4.922,0.234,9.457,10.654,14.817,10.702c1.401,2.577,15.161,8.845,14.706,11.343
      c3.14,1.418,32.954,17.268,32.743,18.444c4.751,2.142,11.983,8.495,17.034,8.746c0.849,3.482,5.023-1.772,5.522-1.897
      c-0.688-2.096-0.216-4.654-0.688-6.857c0.403-3.525-1.134-7.095-1.577-10.49c1.209-0.494-4.021-16.14-4.067-17.6
      c-0.169,0.075-3.477-13.219-4.32-14.12c-2.183-0.449-4.948-11.777-7.546-13.398C373.614,218.872,363.329,215.355,358.24,216.447
      C358.213,216.416,358.701,216.348,358.24,216.447z"/>
    <path fill-rule="evenodd" clip-rule="evenodd" d="M483.096,170.964c-0.51,0.076-5.691,8.855-5.778,9.44
      c-3.185,0.585-4.425,9.774-7.401,10.108c-0.709,1.475-4.941,10.57-6.252,10.715c-0.464,0.97-1.824,5.353-2.802,5.461
      c-1.438,2.997-2.115,0.045-4.899,0.371c-1.192-1.432-9.499-4.078-11.418-3.851c-2.478-2.976-9.751-0.743-12.26-3.524
      c-4.783-0.431-9.275-3.5-14.438-2.217c-1.277-0.064-6.463,1.408-7.444,0.33c-3.855-0.344-9.279,3.318-4.234,5.048
      c-0.089-0.383,0.261-0.805,0.46-0.946c0.29,0.211-0.6,3.924,0.098,5.542c0.871,2.023-1.108,8.27,2.082,7.827
      c0.139-1.155,17.118,2.074,18.882,1.905c0.001-0.076,23.724,7.837,24.68,7.718c-1.276,2.661-3.443,11.971-6.357,12.296
      c-0.611,1.271-4.633,12.804-5.732,12.925c-1.005,2.084-2.635,11.062-5.624,7.784c-1.449-0.13-7.469,2.411-8.819,0.918
      c-4.034-0.359-9.282,3.533-4.266,5.252c-0.106-0.463,0.303-0.824,0.533-1.02c2.171,1.551-2.673,2.185-3.378,2.3
      c-0.709-0.893-3.688-2.169-4.857-3.398c-0.208-1.347-3.507-3.925-4.46-4.938c-4.149-0.871,0.158-3.84,0.425-4.503
      c2.424-0.73,4.353-3.969,6.15-4.416c-1.271-3.854,0.594-11.619-2.127-14.516c-6.938-1.47-8.888,3.855-14.701,5.309
      c-0.034-0.896-3.12-8.983-3.781-9.172c-0.062-1.673-0.515-3.888-1.436-5.421c3.061-0.776-5.959-5.36-3.676-5.925
      c-0.359-1.082,3.393-9.875,3.63-9.934c-1.241-3.76-1.753-9.792-1.843-13.376c-0.1-3.887-7.183-2.333-6.374,0.657
      c-0.722,4.022-3.312,7.18-3.925,11.316c-0.323,2.181,0.467,12.961,1.951,14.752c-0.377,2.561,1.224,3.325,1.008,5.531
      c1.509,0.478,0.889,5.211,0.816,5.884c-1.264-0.383,2.861,8.082,4.655,3.595c0.262,0.093-0.111,4.622,0.381,4.774
      c-3.229,0.655-2.903,4.134-0.556,4.938c-0.095-0.415,0.275-0.807,0.486-0.967c-0.106,1.046-0.328,1.256-0.845,2.721
      c-0.597,1.891,2.917,4.816,1.379,6.943c0.292,0.596,0.186,3.075,0.089,3.62c1.646,0.743,4.138-0.503,5.723-0.989
      c-1.346,2.688,6.763,9.17,6.414,12.328c0.525,0.162,8.373,9.872,8.326,10.129c3.619,1.636,5.193,5.345,11.13,4.808
      c-0.547,2.594,8.179-2.044,8.015-2.025c1.361-2.262,3.87-4.658,6.339-5.257c-1.822,1.074,1.429,2.253,2.277,2.053
      c2.174-0.514,1.389-1.852,2.893-2.228c-0.379-1.15,1.062-2.421,1.237-3.515c1.115-0.212,2.447-4.567,2.949-5.56
      c2.906-0.493,4.126-14.372,6.953-14.372c2.105,0,5.415-8.474,6.468-10.716c2.431-0.243,4.367-11.771,6.792-13.59
      c0.016,1.01,17.614,7.342,19.913,7.194c-0.017,0.449,9.136,2.545,10.283,2.455c-0.071,0.648,1.583-0.221,1.474,0.422
      c3.043,1.373,0.749,0.588,0.506,2.86c3.458,1.063,5.371-0.154,9.43-0.645c1.511-2.512,1.465-4.783,0.534-8.074
      c0.276-1.512-0.337-8.192-1.552-9.488c-0.984-0.208-1.968-2.68-2.677-3.466c-0.846-0.076-2.396,0.171-2.989-0.487
      c-1.84-0.164-3.775-1.192-5.602-0.929c-3.377-4.27-16.534-1.288-20.115-5.876c1.104-0.46,11.413-15.247,11.16-16.372
      c2.261-0.504,5.538-8.675,5.803-10.247c0.936-1.931,1.871-3.625,2.727-5.658c3.389-0.875,5.834-4.511,6.079-8.05
      c1.883,0.034,3.606,0.502,6.411,0.163c0.331-0.541,3.652-1.636,4.339-1.72c1.094-1.806,6.317-1.081,7.236-2.896
      c0.701,0.291,5.605,9.341,5.567,10.21c-0.814,2.144,5.477,6.735,5.424,9.123c-0.666,1.666,5.542,8.957,5.824,10.721
      c-1.465,1.875,6.639,12.839,7.049,15.18c-0.589,0.841,2.604,5.684,3.285,6.282c6.533,5.731,5.281-8.15,4.758-10.75
      c-0.69-3.422-3.404-14.138-6.593-15.774c-0.055-2.966-4.804-12.587-6.811-14.728c-1.709-0.363-7.484-12.167-8.262-14.132
      c4.103-1.243,9.053-2.837,9.681-7.277c1.27,0.312-1.135-12.354-1.167-13.665c-0.122-4.902-8.124-0.456-8.727,1.299
      c-5.035,1.438-10.2,5.182-15.397,5.763c-1.999,4.124-15.359,2.967-16.494,7.051c-1.055-0.074-1.053-0.813-2.067-0.779
      c-1.564-1.67-3.793-0.014-5.769,0.208c-0.712,1.479-2.238,2.994-4.102,3.203c-0.869,1.816-0.524,3.939-0.799,5.839
      C484.44,166.933,483.197,170.262,483.096,170.964C482.995,170.979,483.156,170.548,483.096,170.964z M499.63,160.4
      c1.162-0.188,0.485,0.359,0.561,1.307C499.441,161.292,500.014,160.605,499.63,160.4C499.777,160.376,500.053,160.626,499.63,160.4
      z"/>
    <path fill-rule="evenodd" clip-rule="evenodd" d="M322.465,409.45c1.551-3.371-1.271-19.975-7.77-20.221
      c-3.046-2.336-7.275-4.876-9.735-7.796c-2.246-4.899-12.022-9.313-15.944-13.17c5.01-1.338,8.764-6.746,13.836-8.257
      c6.542,2.207,6.029-5.911,5.066-9.306c0.646-3.558-1.363-14.56-6.705-12.972c-6.435,1.911-11.744,9.576-17.813,10.259
      c-0.673,1.393-5.959,4.812-7.595,4.996c-0.938,1.964-4.417-4.205-5.271-5.116c-3.946-0.829-7.69-10.907-9.683-14.071
      c-0.451-1.178-0.168-3.579-1.02-4.486c-0.872-0.185-7.93-1.547-5.695,2.194c-0.162,1.104,1.205,5.126,1.028,5.319
      c0.225,0.986,2.381,5.391,1.969,6.498c-2.633,1.904,1.1,6.058,1.329,8.405c-1.698,2.009,5.77,6.81,5.364,9.062
      c0.497,0.248-1.319-0.468,0.419,0.288c-0.454,1.846-12.005,7.548-14.202,7.796c-0.885,1.825-12.534,7.988-14.599,8.221
      c-2.633,5.452-10.328,3.319-13.76-0.477c-3.21-0.284-12.221-5.665-14.419-8.088c-6.249-0.559-18.409-13.81-22.911-18.604
      c-0.296-0.061-0.068,0.629-0.22,0.629c-1.066-5.661-11.995-5.464-7.613-0.21c-0.058,0.391,0.978,1.071,0.616,2.154
      c-0.295,0.841-1.918,1.365-3.676,1.563c-0.816,1.697,1.083,3.576,0.373,4.27c0.75,0.426,1.157,0.315,1.223-0.331
      c0.825,0.625-1.098,2.284-0.4,3.582c2.012,3.751,0.891,4.668,0.524,8.08c4.3,1.317,5.452,4.2,8.063-1.206
      c0.634,0.063,7.186,6.671,7.111,7.084c2.857,1.287,5.85,7.151,8.912,7.334c1.001,1.032,8.949,5.989,8.869,6.447
      c1.508,0.681,3.575,2.595,5.227,2.535c0.151,0.55,1.633,1.52,2.411,1.541c-0.737,2.078,0.088,3.651,1.512,4.139
      c-0.147-0.629,0.889-1.517,1.291-1.63c-0.345,2.207-2.542,2.895-1.541,4.762c2.024,3.772,0.873,4.754,0.523,8.048
      c3.152,0.967,9.577-1.281,10.37-6.001c0.974-0.291,9.805,0.438,9.399,2.661c1.314,0.593,11.155,4.131,10.986,5.111
      c1.489,0.672,3.846,2.233,5.479,2.174c0.104,0.908-0.791,4.605,2.306,4.067c-0.012,0.785,5.668,2.933,6.875,2.648
      c2.918-0.69,2.308-3.625,4.143-4.081c-2.753-8.312-0.155-13.682-5.983-20.141c-2.345-0.209-9.393-3.066-10.913-4.841
      c9.486-1.355,17.291-11.675,25.827-14.129c0.131,4.51,12.216,8.97,11.616,12.373c4.34,1.958,8.992,10.972,13.665,11.269
      c1.6,2.333,8.572,9.289,11.333,9.719c-0.094,1.498-1.206,4.337-0.622,4.85c0.447,0.394,4.43,1.361,4.247,2.38
      C320.045,418.469,324.566,411.27,322.465,409.45C323.1,408.072,323.206,410.091,322.465,409.45z"/>
    <path fill-rule="evenodd" clip-rule="evenodd" d="M328.25,385.016c5.906,2.663,8.702,12.223,16.034,11.698
      c0.472,2.343,9.233,3.386,11.864,2.811c5.557,1.287,14.5,1.368,13.436-5.606c-0.879-5.761,12.195-8.855,9.645-14.572
      c0.745-0.636,1.998-7.884,1.531-8.925c2.711-2.316-1.092-13.607-1.419-16.475c1.163-3.488-7.253-18.004-11.258-17.629
      c-5.152-5.731-13.241-3.608-20.187-2.836c-2.084,4.464-16.66,1.542-17.572,7.637c-1.565,0.404-6.121,5.164-6.363,6.817
      c-5.236,1.165-0.974,8.622-2.894,10.704c1.097,4.826,2.937,10.678,2.517,14.604c0.488,0.15,1.689,6.254,1.536,7.104
      C324.89,380.242,328.318,384.636,328.25,385.016C328.43,385.097,328.355,384.434,328.25,385.016z M354.741,350.989
      c2.403-0.701,15.024,3.709,14.827,5.528c4.238,1.307,1.77,13.158-2.695,13.661c-3.178,6.587-8.713,4.815-15.203,6.083
      c-0.265-0.328-3.269-0.194-3.852-0.156c-0.019-0.887-0.777-6.494-1.587-7.356c-3.347-0.709-9.084,0.728-9.882,4.764
      c-1.174-2.765-5.002-5.443-6.963-7.765c1.221-0.341,4.683-4.276,5.04-5.579c0.21-0.058,5.847-4.229,5.978-4.48
      C342.868,354.973,353.596,353.034,354.741,350.989C355.248,350.841,354.723,351.023,354.741,350.989z"/>
    <path fill-rule="evenodd" clip-rule="evenodd" d="M395.824,355.884c5.441,2.351,16.365,2.322,23.199,3.084
      c4.646,0.519,10.787,3.002,15.618,2.557c-0.231,1.333,10.074,0.021,10.065,0.022c2.402-3.973,0.354-10.08-0.41-14.315
      c-1.145-6.342-5.234-1.688-7.934-4.687c-2.723-0.246-5.982-1.658-8.674-1.221c0.943,1.18,4.146-4.564,4.885-4.746
      c-1.891-5.707,0.379-13.406-3.894-17.954c-1.938-0.408-4.145-5.777-5.818-5.777c-1.453,0-1.816-1.049-3.063-2.369
      c-0.305-0.066-6.494-3.741-6.191-3.408c-6.82-0.609-14.455-3.215-21.647-1.422c-2.664-0.096-6.414,0.322-9.001,0.971
      c-1.427-0.054-3.736,0.253-5.067,0.649c-2.412,0.719-1.809,2.407-3.494,2.597c-1.291,2.696,1.994,9.906,0.834,11.164
      c1.355,5.915,3.349,11.415,2.856,15.992c1.386,0.424,2.273,7.521,2.139,8.771c0.904,0.276,3.339,8.251,3.665,9.392
      c-2.505,1.944,5.303,11.134,5.303,13.869c3.873,0.42,6.371,9.826,9.892,11.426c-0.327,1.964,5.404,4.375,5.975,0.518
      c1.259,0.308-1.124-12.24-1.156-13.539C403.859,365.67,396.26,355.834,395.824,355.884
      C395.995,355.958,395.717,355.896,395.824,355.884z M393.652,353.825c-6.357-5.868-8.675-20.538-10.377-28.296
      c5.025-0.82,10.182-0.815,15.202-1.356c3.595,1.558,13.392,2.745,17.003,2.321c-4.896,1.085-9.343,6.705-13.758,7.197
      c-0.782,1.628-3.63,2.931-5.518,3.255c-3.012-3.84-8.275,7.135-2.763,4.379c1.436,1.028-1.049,2.245-1.049,2.741
      C391.885,348.101,396.722,350.322,393.652,353.825C393.635,353.809,393.99,353.439,393.652,353.825z"/>
    <path fill-rule="evenodd" clip-rule="evenodd" d="M465.171,347.153c-2.218-1.375-2.131-7.427-3.916-9.339
      c-1.735-0.364-2.985-6.68-4.249-8.029c-3.288-0.694-6.81-13.088-9.275-15.714c-3.269-0.687-8.26-11.82-10.715-14.433
      c-2.773-0.587-4.31-5.899-8.375-4.96c-2.253-2.629-12.762,2.921-6.018,5.235c-0.092-0.394,0.267-0.831,0.472-0.976
      c1.215,0.861-1.605,2.581-0.729,4.211c1.725,3.219,1.865,6.749,1.394,9.395c2.007,0.908,9.558,0.792,9.313,3.73
      c3.698,1.139,4.795,9.313,8.277,10.668c-0.328,2.213,5.975,5.936,5.685,8.663c1.343,0.413,7.032,10.269,6.894,11.534
      c1.404,0.43,6.295,9.893,6.445,11.223c-0.547,0.711,0.691,1.926,1.057,2.247c2.871,2.52,3.013-0.847,5.114-1.369
      C466.109,357.92,465.02,347.196,465.171,347.153C464.381,346.664,464.687,347.291,465.171,347.153z"/>
    <path fill-rule="evenodd" clip-rule="evenodd" d="M642.221,239.691c1.206-0.956,0.143-14.707-0.387-16.711
      c0-3.308-2.431-21.186-2.689-21.113c-3.479-2.141-1.056-13.229-3.691-16.039c0.674,0.149-3.01-3.357-1.879-2.106
      c-2.529-0.227-4.335,1.872-5.69,2.026c-0.295,0.614-1.181,3.474-0.944,4.197c-0.67,3.266-4.525,8.759-0.57,10.119
      c-0.126-0.544,0.358-0.853,0.62-1.115c-0.114,1.399-0.636,1.263-0.919,2.487c-0.475,2.063,2.842,5.513,1.348,7.578
      c0.232,0.482,0.182,3.213,0.09,3.725c2.454,1.108,4.788-1.021,4.706-2.538c3.329,7.897-0.069,19.709-1.308,28.589
      c-2.693-3.367-9.011-3.128-12.197-6.634c-1.34-0.121-4.688-3.959-5.646-4.993c-4.727-0.425-11.296-12.059-12.982-14.325
      c-0.302-7.557-16.36-8.403-10.235,0.144c-0.934,2.754,3.674,9.911,0.971,11.489c-2.184,1.276,5.646,6.255,5.371,7.806
      c2.212,1.003,5.787,20.632,5.37,24.549c1.915,0.589,0.523,6.55,1.833,7.642c0.2,0.168,3.052,6.184,3.082,6.513
      c-0.808,1.371,3.432,5.443,3.247,7.15c0.154,0.047,5.786,10.857,6.886,3.258c-0.195-0.048,0.119-17.103-3.51-19.147
      c-0.054-1.766-2.485-6.947-3.662-8.201c-2.396-0.512-2.809-9.814-3.131-11.812c3.71,0.626,6.378,8.792,10.455,9.064
      c1.929,2.387,9.953,7.472,13.398,7.33c0.1,0.748,4.865,2.789,5.717,2.587c3.819-0.903,2.523-6.633,3.992-6.992
      C638.454,249.92,643.823,243.929,642.221,239.691C642.261,239.66,642.358,240.056,642.221,239.691z M627.338,198.593
      C627.213,199.206,626.914,198.989,627.338,198.593C627.292,198.818,627.234,198.69,627.338,198.593z"/>
    <path fill-rule="evenodd" clip-rule="evenodd" d="M593.643,272.74c2.037-4.385-0.982-19.553-2.895-23.49
      c1.726-2.212-6.03-12.128-7.664-13.874c-1.538-0.325-6.543-3.367-7.392-4.308c-4.103-0.362-5.925-3.123-10.976-1.593
      c-1.494,0.29-9.845,1.653-10.384,2.811c-3.083,0.906-11.387,8.328-11.861,11.598c-4.117,0.91-5.163,13.941-7.591,14.211
      c-0.456,0.945-1.74,7.017-2.575,7.109c-0.922,1.916-0.038,8.2-0.166,8.327c3.06,1.301,1.056,10.275,2.431,10.871
      c-1.775,1.376,0.004,0.834-0.112,2.188c-2.098,0.1-10.61,1.276-11.22,3.864c-1.861,0.473-8.223,4.765-8.564,6.606
      c-6.359,1.494-10.058,11.301-16.34,12.871c-0.112-2.618,7.646-26.322,9.481-26.775c-0.649-1.973,1.978-4.735,1.886-6.885
      c2.477-0.691,0.863-10.386,0.732-11.933c-0.412-4.9-1.369-9.693-7.369-7.922c-1.092,0.197-5.464,1.879-5.739,2.817
      c-4.626,1.257-8.744,5.694-13.442,6.222c-1.521,3.202-11.337,3.268-12.259,6.62c-4.62,1.257-8.567,5.876-13.307,6.407
      c-0.778,1.625-15.038,5.23-10.709,8.454c-3.12,0.956-2.706,4.061-0.391,4.856c-0.152-0.655,0.602-1.147,0.983-1.474
      c0.09,0.832-3.45,8.217,0.523,7.914c0.176,1.622-1.207,4.625-0.579,5.174c2.656,2.333,3.182-0.853,4.985-0.991
      c0.297,2.751-0.995,2.779-1.212,4.822c0.364,0.112,2.184,1.89,2.247,1.541c4.201,1.892,6.75-0.925,6.118-5.06
      c-1.3-8.511,1.572-2.995,3.599-7.402c2.287-0.686,4.248-2.667,6.615-2.951c1.08-1.799,9.971-5.688,12.194-5.954
      c1.148-1.901,9.008-4.989,11.214-5.655c-1.122,8.331-7.417,15.903-8.723,24.253c-2.01,0.291-2.339,11.12-4.344,11.338
      c-1.322,2.758-6.568,9.24-0.688,9.369c-0.039,2.301-1.975,0.84-0.16,5.052c0.589,1.371,2.122,5.7,0.34,6.74
      c-2.762,1.612,3.349,3.07,4.542,2.759c0.716-0.187,3.985-2.795,4.323-3.556c3.83-1.167,18.171-7.78,19.464-11.493
      c1.747-0.51,7.585-4.944,8.187-6.668c3.328-0.98,5.593-6.453,9.008-6.861c1.707-2.826,8.056-3.583,9.252-6.184
      c5.336-1.564,4.913-10.25,2.016-14.783c0.264,0.081,5.921,8.165,6.251,6.329c0.809,0.364,8.897,1.589,8.837,1.939
      c3.349,1.512,10.467,2.135,14.289,1.454c1.989,0.653,6.925,0.859,8.998,0.504c3.258,1.166,4.054-1.256,6.188-1.784
      c-3.078-9.346,7.618-8.44,7.579-15.751C590.056,283.06,594.908,273.836,593.643,272.74
      C593.754,272.5,594.304,273.313,593.643,272.74z M561.848,282.958c-4.156-0.37-9.745-2.788-13.545-2.21
      c-0.825-1.039-5.101-2.063-6.347-2.903c-0.028-1.228-0.168-5.236,1.403-5.627c-0.577-1.741,2.993-10.43,5.127-10.689
      c1.265-2.1,7.136-10.127,9.48-10.41c1.14-1.898,13.48-3.695,13.23-2.335c4.203,1.904,12.894,5.07,14.173,11.197
      c-0.497,0.042-3.161,7.426-3.31,8.306c0.71-0.107-5.675,7.428-5.618,7.125C573.318,276.199,566.227,287.734,561.848,282.958
      C561.334,282.912,561.908,283.023,561.848,282.958z M536.779,291.232C537.389,291.227,537.184,291.732,536.779,291.232
      C537,291.23,536.879,291.354,536.779,291.232z"/>
    <path fill-rule="evenodd" clip-rule="evenodd" d="M374.611,442.253c3.022-0.716,16.28-2.599,17.871-4.984
      c6.186-1.802,12.136-6.673,18.11-7.389c2.544-4.239,14.563-3.288,16.657-7.692c5.902-1.778,11.685-6.946,17.777-7.679
      c2.518-4.249,14.448-3.401,16.564-7.838c5.871-1.777,11.504-7.282,17.555-8.016c2.594-4.313,14.202-3.608,16.379-8.144
      c8.046-2.445,65.201-32.775,58.604-40.723c-0.078-1.611-2.229-11.584-1.341-11.836c-0.69-0.429-6.07-8.077-7.037-1.56
      c-0.278,1.877-1.661,1.654-1.991,3.034c-5.527,1.461-10.685,8.181-16.02,8.781c-2.119,4.392-14.148,5.283-15.274,9.491
      c-5.964,1.49-10.569,7.963-16.892,8.67c-1.984,4.164-15.119,4.054-16.402,8.398c-6.021,1.554-11.229,7.505-17.361,8.19
      c-1.984,4.14-15.151,4.06-16.385,8.376c-6.012,1.568-11.355,7.31-17.549,8.008c-1.955,4.096-15.265,3.879-16.521,8.149
      c-6.049,1.615-11.391,7.471-17.547,8.163c-1.965,4.044-15.624,2.417-17.098,6.192c-6.041,1.733-12.434,5.202-18.599,5.89
      c-1.614,3.414-14.491,1.923-15.803,5.409c-1.331,0.388-8.191,1.619-8.619,2.733c-2.917,0.855-8.854,6.391-4.009,8.052
      c-0.149-0.641,0.719-1.507,1.327-1.676c-0.256,1.645-1.401,2.151-1.693,3.465c-0.341,0.987,1.587,2.984,1.071,4.63
      c2.585,2.413-3.151,6.714,3.16,6.236c0.43,3.941-3.172,6.652,3.233,5.571c1.724,1.077,9.132-0.39,6.345-2.809
      c1.841-4-3.122-7.599,2.972-8.333c0.447-0.671,4.909-1.621,5.793-1.727c0.878-1.398,9.737-3.344,11.546-3.561
      C364.414,444.17,372.653,442.743,374.611,442.253C374.741,442.222,374.581,442.26,374.611,442.253z"/>
    <path fill-rule="evenodd" clip-rule="evenodd" d="M588.239,379.968c-0.846-2.559-0.42-5.831-0.643-8.468
      c-0.079-0.941-0.878-6.491-1.672-7.335c-1.193-0.252-8.007-2.2-6.553,2.113c-0.878,0.165-4.228,1.115-4.403,1.909
      c-0.319,0.08-6.755,4.241-6.878,4.625c-3.303,0.85-6.083,3.585-9.467,3.965c-1.203,2.498-9.827,0.975-10.878,3.337
      c-5.995,1.722-11.729,6.125-17.434,6.765c-1.949,4.098-15.309,3.49-16.693,7.736c-6.266,1.611-11.826,8.047-17.716,8.706
      c-2.07,4.319-14.73,4.983-15.914,9.524c-5.898,1.452-10.267,7.827-16.63,8.545c-0.744,1.55-9.045,4.909-10.938,5.122
      c-1.387,2.876-10.062,2.923-10.924,5.98c-4.161,1.074-7.608,5.126-11.883,5.605c-1.342,2.819-10.23,3.068-10.989,6.006
      c-3.815,1-6.54,4.553-10.635,5.014c-1.229,2.637-10.462,2.418-11.267,5.565c-4.185,1.133-7.591,5.461-11.891,5.94
      c-0.718,1.498-14.397,5.902-6.685,8.555c-0.057-0.25,0.233-0.842,0.383-0.927c-0.229,0.311-0.043,0.396,0.558,0.255
      c-1.3,2.725-1.788,2.059-0.374,5.341c1.231,2.86,0.002,4.013-0.286,6.704c1.583,0.487,8.962,1.136,10.392-1.915
      c5.96-1.78,11.449-7.23,17.651-7.978c1.511-2.525,9.188-1.509,10.271-3.832c3.12-0.95,6.194-3.71,9.429-4.102
      c2.534-4.235,14.637-3.303,16.742-7.713c5.877-1.783,11.423-7.194,17.442-7.92c2.55-4.219,14.292-3.269,16.437-7.665
      c5.699-1.704,10.784-8.466,16.703-9.176c2.715-4.539,13.82-4.616,15.967-9.396c15.889-4.811,29.351-15.062,46.049-19.719
      c8.046-1.851,14.56-6.222,22.453-7.175c0.923-1.53,2.786-3.443,3.24-5.123c1.706-0.427,2.674-3.407,4.878-3.672
      C586.652,384.229,588.026,380.02,588.239,379.968C587.98,379.183,588.1,380.002,588.239,379.968z"/>
  </g>
</svg>